<?xml version="1.0" encoding="utf-8"?>
<!-- Generator: Adobe Illustrator 15.1.0, SVG Export Plug-In . SVG Version: 6.00 Build 0)  -->
<!DOCTYPE svg PUBLIC "-//W3C//DTD SVG 1.1//EN" "http://www.w3.org/Graphics/SVG/1.1/DTD/svg11.dtd">
<svg version="1.1" id="Layer_1" xmlns="http://www.w3.org/2000/svg" xmlns:xlink="http://www.w3.org/1999/xlink" x="0px" y="0px"
	 width="800px" height="600px" viewBox="0 0 800 600" enable-background="new 0 0 800 600" xml:space="preserve">
<g>
	<path d="M-8.028,6.189c-2.373-0.062-4.18,1.678-4.377,1.873c-0.525,0.527-0.524,1.373-0.002,1.902c0.263,0.266,0.609,0.4,0.958,0.4
		c0.343,0,0.685-0.129,0.947-0.387c0.32-0.314,1.376-1.117,2.427-1.09c0.611,0.018,1.176,0.316,1.723,0.914
		c0.504,0.547,1.356,0.584,1.906,0.082c0.551-0.504,0.588-1.359,0.083-1.908C-5.407,6.836-6.675,6.219-8.028,6.189z"/>
	<path d="M8.029,6.189C6.674,6.219,5.408,6.838,4.363,7.977C3.859,8.527,3.896,9.381,4.445,9.885
		c0.551,0.502,1.404,0.465,1.908-0.082C6.9,9.205,7.465,8.906,8.076,8.889c1.051-0.018,2.105,0.775,2.426,1.09
		c0.264,0.26,0.605,0.389,0.949,0.389c0.346,0,0.691-0.131,0.955-0.395c0.527-0.527,0.527-1.383,0-1.91
		C12.209,7.867,10.408,6.141,8.029,6.189z"/>
	<path d="M11.719,25.279c-3.127,0-4.84-0.795-6.498-1.564c-1.475-0.684-2.998-1.391-5.222-1.391c-2.223,0-3.747,0.707-5.223,1.393
		c-1.655,0.768-3.369,1.562-6.495,1.562c-0.745,0-1.35,0.605-1.35,1.35c0,0.746,0.604,1.35,1.35,1.35
		c1.286,0,2.378-0.123,3.339-0.316c1.408,1.051,4.484,2.965,8.184,2.965c2.392,0,5.04-0.82,7.657-3.176
		c1.168,0.311,2.541,0.527,4.258,0.527c0.744,0,1.35-0.604,1.35-1.35C13.068,25.885,12.463,25.279,11.719,25.279z M-6.139,27.039
		c0.769-0.281,1.439-0.59,2.054-0.873c1.372-0.639,2.457-1.141,4.084-1.141c1.628,0,2.712,0.502,4.085,1.141
		c0.428,0.197,0.885,0.408,1.383,0.615C0.847,30.301-3.694,28.541-6.139,27.039z"/>
	<path d="M22.395-21.392l-7.6-7.603c-1.389-1.387-4.012-2.473-5.973-2.473H7.168c0-0.062,0.006-0.127,0.006-0.189
		c0-4.148-1.766-6.294-3.324-8.188c-1.453-1.766-2.711-3.291-2.711-6.473c0-0.746-0.604-1.35-1.351-1.35
		c-0.744,0-1.35,0.604-1.35,1.35c0.002,3.182-1.255,4.707-2.709,6.473c-1.557,1.894-3.324,4.039-3.324,8.188
		c0,0.062,0.007,0.127,0.008,0.189h-1.23c-1.963,0-4.587,1.086-5.974,2.474l-7.604,7.604c-1.388,1.39-2.475,4.013-2.475,5.974
		v41.154c0,1.766,0.439,4.471,1,6.158l4.021,12.061c0.695,2.078,2.958,3.709,5.15,3.709h29.398c2.197,0,4.459-1.631,5.15-3.711
		l4.02-12.059c0.562-1.68,1.002-4.385,1.002-6.158v-41.154C24.871-17.379,23.783-20.003,22.395-21.392z M0.019,17.184
		c-0.007,0-0.012-0.004-0.02-0.004c-0.035,0-0.07,0.002-0.105,0.002s-0.07-0.002-0.105-0.002c-0.006,0-0.011,0.004-0.018,0.004
		c-6.481,0.039-12.683,1.754-14.326,2.246l-7.614-4.934V4.619C-18.902,3.486-8.004-0.633,0.883-7.772
		C3.035-5.354,10.803,2.512,22.17,4.191v10.17l-7.824,5.068C12.705,18.938,6.502,17.223,0.019,17.184z M-22.17-15.416
		c0-0.559,0.158-1.236,0.405-1.9c2.523-0.515,11.088-2.498,17.604-6.824c0.616,0.375,1.253,0.642,1.862,0.826
		c0.627,0.375,1.334,0.588,2.088,0.588c0.719,0,1.399-0.205,2.011-0.562c0.006-0.002,0.014-0.003,0.02-0.005
		C-4.928-15.992-17.628-10.172-22.17-8.24V-15.416z M10.721-19.167c1.404,1.029,4.594,2.929,9.035,2.929
		c0.729,0,1.494-0.056,2.287-0.17c0.08,0.351,0.127,0.689,0.127,0.992v5.633c-7.029-0.072-12.574-3.555-14.398-4.854
		C8.893-16.07,9.895-17.575,10.721-19.167z M6.621-13.241C8.52-11.853,14.43-8.043,22.17-7.977v9.43
		C12.07-0.203,4.922-7.344,2.949-9.521C4.252-10.689,5.484-11.932,6.621-13.241z M20.486-19.482
		c0.336,0.336,0.656,0.812,0.924,1.343c-5.219,0.614-8.812-1.825-9.902-2.688c0.812-1.887,1.383-3.879,1.66-5.975L20.486-19.482z
		 M10.607-28.405C9.471-11.176-15.301-0.807-22.17,1.74v-8.023c4.953-2.032,25.775-11.162,29.535-22.484h1.457
		C9.35-28.768,9.982-28.627,10.607-28.405z M-2.186-38.127c0.673-0.816,1.384-1.682,1.976-2.732
		c0.591,1.051,1.302,1.915,1.976,2.732c1.453,1.766,2.709,3.291,2.709,6.471c0,0.432-0.031,0.863-0.098,1.359
		c-0.004,0.018,0,0.035-0.002,0.053c-0.559-2.5-2.4-4.341-4.585-4.341c-2.219,0-4.033,1.8-4.586,4.315c0-0.01,0.001-0.018,0-0.027
		c-0.066-0.496-0.098-0.928-0.098-1.359C-4.894-34.836-3.64-36.361-2.186-38.127z M-12.882-27.084
		c0.896-0.896,2.795-1.684,4.064-1.684h1.281c0.385,1.471,1.07,2.592,1.891,3.44c-5.113,3.237-11.523,5.078-14.872,5.884
		c0.01-0.012,0.021-0.027,0.031-0.038L-12.882-27.084z M21.309,31.041l-4.021,12.061c-0.324,0.977-1.557,1.865-2.588,1.865h-29.398
		c-1.028,0-2.263-0.889-2.59-1.867l-4.02-12.057c-0.466-1.406-0.861-3.836-0.861-5.305v-9.098l6.988,4.527
		c0.148,0.096,0.318,0.145,0.489,0.145c0.093,0,0.187-0.014,0.275-0.043c0.07-0.023,7.15-2.266,14.311-2.289
		c7.163,0.023,14.245,2.266,14.315,2.289c0.09,0.029,0.184,0.043,0.273,0.043c0.174,0,0.344-0.049,0.492-0.145l7.195-4.662v9.232
		C22.17,27.215,21.777,29.645,21.309,31.041z"/>
</g>
</svg>
