<?xml version="1.0" encoding="utf-8"?>
<!-- Generator: Adobe Illustrator 15.1.0, SVG Export Plug-In . SVG Version: 6.00 Build 0)  -->
<!DOCTYPE svg PUBLIC "-//W3C//DTD SVG 1.1//EN" "http://www.w3.org/Graphics/SVG/1.1/DTD/svg11.dtd">
<svg version="1.1" id="Layer_1" xmlns="http://www.w3.org/2000/svg" xmlns:xlink="http://www.w3.org/1999/xlink" x="0px" y="0px"
	 width="800px" height="600px" viewBox="0 0 800 600" enable-background="new 0 0 800 600" xml:space="preserve">
<g>
	<path d="M0.001-21.759c-11.998,0-21.76,9.761-21.76,21.76c0,11.997,9.762,21.759,21.76,21.759s21.76-9.762,21.76-21.759
		C21.761-11.998,11.999-21.759,0.001-21.759z M0.001,19.059c-10.51,0-19.059-8.549-19.059-19.058c0-10.51,8.549-19.06,19.059-19.06
		s19.059,8.55,19.059,19.06C19.06,10.51,10.511,19.059,0.001,19.059z"/>
	<path d="M0.001-24.162c0.746,0,1.35-0.604,1.35-1.35v-15.307c0-0.746-0.604-1.351-1.35-1.351s-1.35,0.604-1.35,1.351v15.307
		C-1.349-24.767-0.745-24.162,0.001-24.162z"/>
	<path d="M0.001,24.162c-0.746,0-1.35,0.604-1.35,1.35v15.308c0,0.745,0.604,1.35,1.35,1.35s1.35-0.604,1.35-1.35V25.512
		C1.351,24.767,0.747,24.162,0.001,24.162z"/>
	<path d="M-24.161,0.001c0-0.745-0.604-1.351-1.35-1.351h-15.307c-0.746,0-1.352,0.605-1.352,1.351s0.605,1.351,1.352,1.351h15.307
		C-24.765,1.352-24.161,0.746-24.161,0.001z"/>
	<path d="M40.819-1.35H25.513c-0.746,0-1.35,0.605-1.35,1.351s0.604,1.351,1.35,1.351h15.307c0.746,0,1.35-0.605,1.35-1.351
		S41.565-1.35,40.819-1.35z"/>
	<path d="M-18.993-17.085c0.264,0.264,0.609,0.396,0.955,0.396s0.691-0.132,0.953-0.396c0.527-0.527,0.527-1.382,0-1.909
		l-10.822-10.822c-0.527-0.527-1.383-0.527-1.91,0s-0.527,1.381,0,1.908L-18.993-17.085z"/>
	<path d="M18.995,17.085c-0.527-0.527-1.383-0.527-1.91,0s-0.527,1.382,0,1.909l10.824,10.824c0.264,0.264,0.609,0.396,0.955,0.396
		s0.691-0.133,0.955-0.396c0.527-0.527,0.527-1.381,0-1.908L18.995,17.085z"/>
	<path d="M-18.993,17.085L-29.817,27.91c-0.527,0.527-0.527,1.381,0,1.908c0.264,0.264,0.609,0.396,0.955,0.396
		s0.691-0.133,0.955-0.396l10.822-10.824c0.527-0.527,0.527-1.382,0-1.909C-17.61,16.558-18.466,16.558-18.993,17.085z"/>
	<path d="M18.04-16.689c0.346,0,0.691-0.132,0.955-0.396l10.824-10.823c0.527-0.527,0.527-1.381,0-1.908s-1.383-0.527-1.91,0
		L17.085-18.994c-0.527,0.527-0.527,1.382,0,1.909C17.349-16.821,17.694-16.689,18.04-16.689z"/>
</g>
</svg>
