<?xml version="1.0" encoding="utf-8"?>
<!-- Generator: Adobe Illustrator 15.1.0, SVG Export Plug-In . SVG Version: 6.00 Build 0)  -->
<!DOCTYPE svg PUBLIC "-//W3C//DTD SVG 1.1//EN" "http://www.w3.org/Graphics/SVG/1.1/DTD/svg11.dtd">
<svg version="1.1" id="Layer_1" xmlns="http://www.w3.org/2000/svg" xmlns:xlink="http://www.w3.org/1999/xlink" x="0px" y="0px"
	 width="800px" height="600px" viewBox="0 0 800 600" enable-background="new 0 0 800 600" xml:space="preserve">
<path d="M49.795-18.896h-11.93v-11.93c0-0.744-0.605-1.35-1.35-1.35H17.947v-11.928c0-0.746-0.605-1.35-1.35-1.35H-16.6
	c-0.744,0-1.35,0.604-1.35,1.35v11.928h-11.926c-0.746,0-1.352,0.605-1.352,1.35v11.93h-18.568c-0.746,0-1.35,0.605-1.35,1.35
	v13.279c0,0.746,0.604,1.35,1.35,1.35h11.93V9.01c0,0.746,0.605,1.35,1.35,1.35h18.998l-2.33,19.99l-15.564,5.328
	c-0.562,0.191-0.932,0.727-0.912,1.32c0.018,0.592,0.422,1.102,0.994,1.258l23.865,6.514c0.641,0.178,1.324-0.148,1.594-0.762
	L0.662,19.846l7.951,11.111L0.27,43.35c-0.332,0.49-0.305,1.139,0.066,1.602c0.262,0.324,0.652,0.502,1.053,0.502
	c0.166,0,0.334-0.029,0.496-0.094l21.848-8.643c0.635-0.25,0.982-0.936,0.811-1.596l-6.475-24.762h11.809
	c0.746,0,1.35-0.604,1.35-1.35V-2.918h18.568c0.746,0,1.35-0.604,1.35-1.35v-13.279C51.145-18.291,50.541-18.896,49.795-18.896z
	 M35.164-18.896H16.6h-0.002H4.668v-10.578h11.93h18.566V-18.896z M3.318-16.195h11.93v10.576H-3.318H-15.25v-10.576H3.318z
	 M-15.25-42.754h30.498v10.578H3.318H-15.25V-42.754z M-28.525-29.475H-16.6H1.969v10.578H-16.6h-11.926V-29.475z M-48.445-16.195
	h18.57h11.926v10.576h-18.566c-0.004,0-0.004,0.002-0.008,0.002h-11.922V-16.195z M-35.166-2.918H-16.6h11.932V7.66h-30.498V-2.918z
	 M21.629,34.646L4.939,41.248l6.438-9.561c0.314-0.467,0.305-1.08-0.023-1.539L1.475,16.34c-0.283-0.395-0.75-0.6-1.24-0.559
	c-0.482,0.053-0.902,0.359-1.096,0.805l-11.02,25.271l-18.5-5.049l12.211-4.18c0.492-0.168,0.844-0.605,0.904-1.121l2.469-21.148
	h11.479h18.596L21.629,34.646z M28.527,7.66H-1.969V-2.918h18.566l0,0H16.6h11.928V7.66z M48.445-5.617H29.887
	c-0.004,0-0.006-0.002-0.01-0.002H17.949v-10.576h18.566h11.93V-5.617z"/>
</svg>
