<?xml version="1.0" encoding="utf-8"?>
<!-- Generator: Adobe Illustrator 15.1.0, SVG Export Plug-In . SVG Version: 6.00 Build 0)  -->
<!DOCTYPE svg PUBLIC "-//W3C//DTD SVG 1.1//EN" "http://www.w3.org/Graphics/SVG/1.1/DTD/svg11.dtd">
<svg version="1.1" id="Layer_1" xmlns="http://www.w3.org/2000/svg" xmlns:xlink="http://www.w3.org/1999/xlink" x="0px" y="0px"
	 width="800px" height="600px" viewBox="0 0 800 600" enable-background="new 0 0 800 600" xml:space="preserve">
<g>
	<path d="M39.162-5.979c-0.008-0.078-0.021-0.152-0.041-0.227C36.021-24.233,19.664-38.032,0-38.032
		c-21.865,0-39.656,17.061-39.656,38.031S-21.865,38.032,0,38.032c21.867,0,39.656-17.062,39.656-38.033
		C39.656-2.034,39.484-4.032,39.162-5.979z M0-35.333c18.387,0,33.676,12.908,36.488,29.74l0.002,0.014
		c0.133,2.039,0.074,4.281-2.275,5.064c-6.473,1.799-6.68,4.621-6.279,8.125c0.162,1.412,0.314,2.746-0.238,4.189
		c-0.537,1.01-1.58,1.502-2.891,2.123c-1.205,0.568-2.566,1.213-3.703,2.408c-1.029,1.086-1.104,2.312-1.162,3.297
		c-0.076,1.273-0.137,2.281-2.086,3.574c-1.844,1.229-3.141,0.756-5.285-0.025c-1.697-0.617-3.795-1.383-6.615-1.303
		c-3.594,0.113-5.521,1.805-7.223,3.297c-1.543,1.355-2.764,2.426-5.139,2.439c-0.025,0-0.051,0-0.078,0
		c-3.289,0-3.674-1.053-4.588-3.568c-0.467-1.283-1.049-2.879-2.195-4.492c-2.381-3.352-5.207-3.305-7.484-3.264
		c-1.873,0.033-3.363,0.059-4.812-1.486c-1.08-1.15-1.25-2.779-1.432-4.506c-0.248-2.359-0.557-5.295-3.787-6.559
		c-3.35-1.312-4.119-2.551-5.096-4.119c-0.303-0.486-0.625-0.99-1.023-1.512C-35.867-20.499-19.711-35.333,0-35.333z M0,35.331
		c-19.328,0-35.23-14.264-36.814-32.357c0.965,1.123,2.389,2.234,5.047,3.275c1.625,0.637,1.832,1.922,2.086,4.328
		c0.209,1.996,0.447,4.258,2.148,6.07c2.268,2.418,4.799,2.375,6.828,2.338c2.137-0.039,3.678-0.064,5.236,2.129
		c0.936,1.316,1.404,2.605,1.857,3.852c0.957,2.627,1.945,5.344,7.145,5.344c0.023,0,0.049,0,0.074,0
		c3.383-0.018,5.256-1.66,6.906-3.109c1.557-1.365,2.9-2.543,5.527-2.627c2.291-0.068,3.973,0.545,5.605,1.141
		c2.32,0.846,4.719,1.723,7.703-0.262c3.068-2.039,3.195-4.133,3.287-5.662c0.049-0.83,0.088-1.244,0.426-1.6
		c0.787-0.83,1.812-1.314,2.896-1.826c1.514-0.715,3.229-1.525,4.174-3.4c0.02-0.037,0.035-0.072,0.051-0.111
		c0.83-2.094,0.611-4.01,0.434-5.549c-0.295-2.592-0.443-3.893,4.385-5.236c0.779-0.26,1.406-0.615,1.926-1.027
		C36.35,20.042,20.014,35.331,0,35.331z"/>
	<path d="M-11.369-7.499c-0.027,0.271-0.051,0.547-0.051,0.826c0,5.541,5.389,10.049,12.014,10.049
		c5.816,0,10.68-3.475,11.779-8.074c0.297-0.209,0.717-0.436,1.129-0.656c1.08-0.574,2.303-1.225,2.92-2.357
		c1.066-1.949,0.576-7.873-1.152-9.689c-1.438-1.506-3.205-1.631-4.623-1.73c-1.299-0.092-2.061-0.176-2.617-0.824
		c-0.174-0.201-0.406-0.561-0.652-0.941c-0.715-1.1-1.523-2.348-2.703-2.822c-3.227-1.297-5.232,0.906-6.428,2.225
		c-0.285,0.314-0.941,0.51-1.574,0.699c-0.199,0.061-0.395,0.119-0.586,0.182c-1.092,0.361-1.471,0.316-2.736,0.16
		c-1.301-0.158-3.252,0.102-4.508,1.359c-1.432,1.434-2.094,4.193-1.908,6.031C-12.799-10.409-12.227-8.554-11.369-7.499z
		 M0.594,0.677c-5.135,0-9.314-3.297-9.314-7.35s4.18-7.348,9.314-7.348c5.137,0,9.314,3.295,9.314,7.348S5.73,0.677,0.594,0.677z
		 M-9.246-17.187c0.43-0.434,1.422-0.693,2.268-0.588c1.402,0.17,2.246,0.275,3.914-0.275c0.164-0.055,0.334-0.105,0.51-0.158
		c0.895-0.268,2.01-0.602,2.801-1.473c1.344-1.484,2.07-2.078,3.42-1.533c0.387,0.154,1.074,1.217,1.445,1.787
		c0.297,0.457,0.578,0.893,0.869,1.23c1.318,1.535,3.068,1.658,4.475,1.758c1.33,0.094,2.178,0.188,2.859,0.9
		c0.818,0.859,1.336,5.438,0.738,6.533c-0.201,0.367-0.896,0.771-1.541,1.119c-0.719-4.971-5.785-8.834-11.918-8.834
		c-4.635,0-8.658,2.209-10.66,5.432c-0.119-0.553-0.23-1.221-0.312-2.047C-10.508-14.603-9.957-16.476-9.246-17.187z"/>
	<path d="M-20.121-19.507c0.619,0.258,1.326-0.033,1.586-0.65l1.426-3.42c0.258-0.619-0.035-1.328-0.65-1.586
		c-0.617-0.258-1.328,0.035-1.584,0.652l-1.428,3.42C-21.029-20.472-20.738-19.763-20.121-19.507z"/>
	<path d="M-27.848-9.614c0.207,0.639,0.889,0.988,1.525,0.783s0.986-0.889,0.783-1.525l-1.137-3.527
		c-0.205-0.639-0.887-0.986-1.523-0.783c-0.637,0.205-0.986,0.887-0.783,1.523L-27.848-9.614z"/>
	<path d="M-18.516-3.665l1.285-3.475c0.234-0.627-0.088-1.324-0.713-1.557C-18.572-8.931-19.27-8.61-19.5-7.983l-1.289,3.477
		c-0.232,0.629,0.088,1.324,0.713,1.559C-19.447-2.716-18.75-3.038-18.516-3.665z"/>
	<path d="M-19.994,7.366c0.16,0.65,0.812,1.051,1.461,0.893l3.604-0.877c0.65-0.158,1.049-0.812,0.893-1.461
		c-0.156-0.652-0.814-1.051-1.463-0.895l-3.602,0.877C-19.754,6.062-20.15,6.716-19.994,7.366z"/>
	<path d="M6.648-27.612c0.205,0.639,0.887,0.986,1.523,0.783c0.639-0.205,0.988-0.889,0.785-1.525l-1.139-3.527
		c-0.205-0.639-0.885-0.988-1.521-0.783c-0.639,0.205-0.988,0.887-0.783,1.523L6.648-27.612z"/>
	<path d="M-6.508-27.696c0.549,0.383,1.305,0.248,1.686-0.301c0.385-0.549,0.246-1.305-0.301-1.688l-3.043-2.117
		c-0.551-0.381-1.305-0.246-1.686,0.303c-0.385,0.551-0.246,1.305,0.301,1.686L-6.508-27.696z"/>
	<path d="M19.541-22.552c0.551,0.383,1.305,0.246,1.688-0.301c0.383-0.549,0.246-1.305-0.301-1.689l-3.045-2.113
		c-0.549-0.383-1.303-0.246-1.686,0.301c-0.383,0.551-0.246,1.303,0.303,1.688L19.541-22.552z"/>
	<path d="M17.793,4.136c-0.074-0.666-0.672-1.146-1.336-1.074c-0.666,0.074-1.143,0.672-1.072,1.336l0.406,3.686
		c0.072,0.666,0.674,1.146,1.336,1.072c0.664-0.072,1.146-0.672,1.074-1.336L17.793,4.136z"/>
	<path d="M13.359,15.058l-3.238,1.805c-0.584,0.326-0.795,1.062-0.471,1.646c0.328,0.584,1.064,0.795,1.648,0.471l3.238-1.807
		c0.584-0.326,0.793-1.062,0.469-1.646C14.68,14.94,13.943,14.733,13.359,15.058z"/>
	<path d="M7.264,7.177l-2.066,3.078c-0.375,0.555-0.229,1.309,0.326,1.682s1.309,0.225,1.682-0.328l2.068-3.08
		c0.371-0.553,0.225-1.307-0.33-1.68C8.387,6.476,7.639,6.624,7.264,7.177z"/>
	<path d="M-0.828,16.257l-2.066,3.078c-0.375,0.557-0.225,1.309,0.326,1.684c0.559,0.371,1.311,0.225,1.684-0.332l2.066-3.076
		c0.373-0.557,0.225-1.309-0.326-1.682C0.297,15.556-0.453,15.704-0.828,16.257z"/>
	<path d="M-5.648,7.409l-3.197,1.877c-0.578,0.338-0.771,1.08-0.436,1.656c0.34,0.576,1.084,0.771,1.66,0.434l3.197-1.877
		c0.576-0.34,0.77-1.082,0.434-1.658C-4.33,7.263-5.07,7.071-5.648,7.409z"/>
	<path d="M21.307-11.403c0.482,0.467,1.25,0.453,1.715-0.027l2.578-2.664c0.463-0.48,0.449-1.248-0.029-1.713
		c-0.482-0.465-1.248-0.453-1.711,0.027l-2.578,2.664C20.814-12.634,20.826-11.868,21.307-11.403z"/>
	<path d="M24.537-5.036c-0.238-0.625-0.938-0.939-1.562-0.701c-0.627,0.238-0.938,0.938-0.701,1.562l1.32,3.463
		c0.236,0.627,0.939,0.939,1.562,0.703c0.627-0.24,0.941-0.939,0.703-1.564L24.537-5.036z"/>
</g>
</svg>
