<?xml version="1.0" encoding="utf-8"?>
<!-- Generator: Adobe Illustrator 15.1.0, SVG Export Plug-In . SVG Version: 6.00 Build 0)  -->
<!DOCTYPE svg PUBLIC "-//W3C//DTD SVG 1.1//EN" "http://www.w3.org/Graphics/SVG/1.1/DTD/svg11.dtd">
<svg version="1.1" id="Layer_1" xmlns="http://www.w3.org/2000/svg" xmlns:xlink="http://www.w3.org/1999/xlink" x="0px" y="0px"
	 width="800px" height="600px" viewBox="0 0 800 600" enable-background="new 0 0 800 600" xml:space="preserve">
<g>
	<path d="M14.043-6.794c0-11.563-9.407-20.971-20.97-20.971c-11.564,0-20.972,9.407-20.972,20.971c0,6.295,2.11,9.46,4.151,12.522
		c1.76,2.641,3.431,5.146,3.668,9.854c-1.889,0.489-3.896,2.006-3.896,5.093c0,1.812,0.692,3.084,1.646,3.925
		c-0.955,0.841-1.646,2.111-1.646,3.923c0,1.229,0.495,3.453,3.807,4.539c0.849,0.279,1.717,0.428,2.429,0.505l-1.821,12.53
		l-7.139,2.26c-0.542,0.172-0.917,0.664-0.942,1.232c-0.023,0.568,0.312,1.088,0.838,1.305l11.749,4.812
		c0.371,0.15,0.79,0.13,1.144-0.057c0.354-0.188,0.606-0.521,0.69-0.914l4.442-20.938h3.82l-0.179,14.854l-5.815,3.285
		c-0.494,0.278-0.761,0.836-0.67,1.395c0.093,0.559,0.524,1.002,1.081,1.107l12.345,2.35c0.085,0.017,0.169,0.025,0.253,0.025
		c0.307,0,0.608-0.105,0.852-0.303c0.309-0.25,0.49-0.623,0.498-1.023l0.41-21.691c3.885-0.217,6.278-2.191,6.303-5.262
		c0.012-1.504-0.468-2.789-1.387-3.713c-0.08-0.082-0.162-0.16-0.247-0.232c0.947-0.84,1.634-2.109,1.634-3.914
		c0-3.087-2.008-4.604-3.896-5.093c0.238-4.708,1.908-7.212,3.669-9.854C11.932,2.666,14.043-0.5,14.043-6.794z M3.495,16.751
		c0,0.746,0.604,1.35,1.35,1.35c0.43,0,2.575,0.125,2.575,2.574c0,2.35-1.978,2.564-2.575,2.574c-0.002,0-0.002,0-0.006,0
		c-0.002,0-0.002,0-0.004,0s-0.002,0-0.005,0c-0.002,0-0.003,0-0.005,0s-0.004,0-0.006,0s-0.004,0-0.006,0
		c-0.73,0.017-1.318,0.614-1.318,1.351c0,0.741,0.6,1.345,1.342,1.351c0.613,0.008,2.602,0.225,2.583,2.562
		c-0.019,2.266-2.724,2.604-4.335,2.604c-0.278,0-0.459-0.013-0.479-0.014c-0.371-0.031-0.739,0.092-1.017,0.344
		c-0.277,0.25-0.438,0.604-0.445,0.976L0.737,53.837l-7.154-1.361l3.284-1.855c0.418-0.234,0.68-0.676,0.686-1.158l0.206-16.998
		c0.005-0.359-0.135-0.708-0.389-0.965c-0.255-0.256-0.6-0.4-0.961-0.4h-6.279c-0.637,0-1.188,0.444-1.32,1.068l-4.334,20.428
		l-6.807-2.788l4.396-1.392c0.492-0.156,0.853-0.582,0.928-1.094l2.155-14.829c0.056-0.387-0.104-0.78-0.36-1.075
		c-0.257-0.297-0.675-0.469-1.067-0.469c-0.204,0-4.993-0.025-4.993-2.426c0-2.348,1.979-2.564,2.574-2.572
		c0.746,0,1.35-0.605,1.35-1.351s-0.604-1.351-1.35-1.351c-0.43,0-2.574-0.124-2.574-2.574c0-2.349,1.979-2.562,2.574-2.574
		c0.746,0,1.35-0.604,1.35-1.35c0-6.295-2.109-9.461-4.15-12.521c-1.902-2.852-3.697-5.547-3.697-11.024
		c0-10.073,8.196-18.271,18.271-18.271c10.074,0,18.27,8.197,18.27,18.271c0,5.478-1.796,8.173-3.698,11.024
		C5.604,7.291,3.495,10.457,3.495,16.751z"/>
	<path d="M-0.302-15.599l-4.878,4.88c-0.527,0.527-0.527,1.381,0,1.908s1.383,0.527,1.909,0l2.969-2.969l2.969,2.969
		c0.264,0.264,0.61,0.396,0.955,0.396c0.346,0,0.692-0.133,0.954-0.396c0.527-0.527,0.527-1.381,0.002-1.908L-0.302-15.599z"/>
	<path d="M-15.966-8.811l2.97-2.969l2.969,2.969c0.264,0.264,0.608,0.396,0.954,0.396c0.346,0,0.691-0.133,0.955-0.396
		c0.527-0.527,0.527-1.381,0-1.908l-4.878-4.88l-4.879,4.88c-0.527,0.527-0.527,1.381,0,1.908
		C-17.349-8.284-16.493-8.284-15.966-8.811z"/>
	<path d="M-17.81-3.075c0,6.154,5.007,11.16,11.161,11.16c6.154,0,11.16-5.006,11.16-11.16v-1.35H-17.81V-3.075z M1.704-1.725
		C1.056,2.302-2.442,5.386-6.649,5.386s-7.706-3.084-8.353-7.111H1.704z"/>
	<path d="M-35.477,1.3l-7.095,2.422c-0.707,0.241-1.083,1.01-0.842,1.715c0.191,0.561,0.715,0.914,1.278,0.914
		c0.144,0,0.292-0.023,0.436-0.072l7.094-2.424c0.707-0.241,1.083-1.008,0.842-1.713C-34.004,1.435-34.772,1.06-35.477,1.3z"/>
	<path d="M-28.736-25.355l-11.247-7.786c-0.613-0.423-1.455-0.271-1.879,0.342c-0.424,0.613-0.271,1.453,0.341,1.879l11.248,7.785
		c0.235,0.164,0.503,0.241,0.769,0.241c0.427,0,0.849-0.204,1.111-0.582C-27.97-24.089-28.123-24.93-28.736-25.355z"/>
	<path d="M-14.07-34.221c0.144,0.623,0.699,1.045,1.314,1.045c0.101,0,0.202-0.01,0.306-0.035c0.726-0.166,1.178-0.893,1.011-1.618
		l-4.846-20.938c-0.167-0.727-0.892-1.178-1.619-1.012c-0.726,0.169-1.18,0.893-1.011,1.621L-14.07-34.221z"/>
	<path d="M2.261-32.204c0.192,0.096,0.394,0.139,0.595,0.139c0.497,0,0.977-0.277,1.213-0.756l9.688-19.727
		c0.329-0.669,0.053-1.478-0.616-1.807c-0.67-0.328-1.479-0.053-1.808,0.617L1.645-34.01C1.315-33.34,1.592-32.532,2.261-32.204z"/>
	<path d="M38.323,4.526L24.306,2.796c-0.74-0.09-1.413,0.434-1.505,1.174s0.434,1.414,1.174,1.505l14.018,1.731
		c0.057,0.008,0.11,0.011,0.166,0.011c0.672,0,1.254-0.501,1.338-1.185C39.588,5.292,39.063,4.617,38.323,4.526z"/>
	<path d="M-34.522-13.481h-13.151c-0.746,0-1.35,0.604-1.35,1.35v0.174c0,0.746,0.604,1.351,1.35,1.351h13.151
		c0.745,0,1.35-0.604,1.35-1.351v-0.174C-33.173-12.876-33.777-13.481-34.522-13.481z"/>
	<path d="M34.35-45.148c-8.092,0-14.674,6.583-14.674,14.675c0,2.176,0.488,4.236,1.343,6.094c-0.452,2.564-2.907,5.135-3.97,6.018
		l-2.125,1.759l2.693,0.6c1.149,0.255,2.266,0.385,3.318,0.385c2.92,0,4.968-0.965,6.341-2.005c2.099,1.16,4.51,1.824,7.073,1.824
		c8.092,0,14.674-6.584,14.674-14.674C49.024-38.565,42.442-45.148,34.35-45.148z"/>
</g>
</svg>
