<?xml version="1.0" encoding="utf-8"?>
<!-- Generator: Adobe Illustrator 15.1.0, SVG Export Plug-In . SVG Version: 6.00 Build 0)  -->
<!DOCTYPE svg PUBLIC "-//W3C//DTD SVG 1.1//EN" "http://www.w3.org/Graphics/SVG/1.1/DTD/svg11.dtd">
<svg version="1.1" id="Layer_1" xmlns="http://www.w3.org/2000/svg" xmlns:xlink="http://www.w3.org/1999/xlink" x="0px" y="0px"
	 width="800px" height="600px" viewBox="0 0 800 600" enable-background="new 0 0 800 600" xml:space="preserve">
<g>
	<path d="M36.723,34.645c0.039-0.15,0.066-0.303,0.094-0.453c0.018-0.096,0.041-0.193,0.053-0.291
		c0.033-0.244,0.051-0.49,0.051-0.732c0-4.418-5.463-8.303-15.02-10.744l0.338-3.441c0.17,0.01,0.342,0.029,0.514,0.029
		c2.012,0,3.951-0.682,5.539-1.963c1.846-1.482,3.002-3.598,3.256-5.949c0.256-2.354-0.422-4.668-1.906-6.512
		c-1.426-1.771-3.438-2.9-5.68-3.211l0.285-2.925c0.012-0.113,0.004-0.225-0.014-0.332c0.008-0.091,0.02-0.181,0.02-0.271
		c0-5.543-12.568-8.441-24.984-8.441c-12.418,0-24.988,2.898-24.988,8.441c0,0.094,0.013,0.186,0.02,0.279
		c-0.018,0.125-0.024,0.251-0.007,0.383l3.395,24.021c-9.296,2.443-14.606,6.291-14.606,10.637c0,0.256,0.02,0.512,0.053,0.768
		c0.006,0.035,0.013,0.07,0.018,0.105c1.037,7.098,14.648,14.145,36.852,14.145c21.021,0,34.65-6.623,36.654-13.316
		C36.678,34.795,36.701,34.721,36.723,34.645z M-22.453,2.244c4.539,2.67,13.165,4.045,21.721,4.045
		c8.678,0,17.422-1.418,21.906-4.162l-2.248,23.027c-0.65,3.184-7.145,10.66-19.658,10.66c-12.317,0-17.783-7.232-18.486-10.652
		L-22.453,2.244z M27.537,6.281c1.033,1.283,1.504,2.889,1.326,4.527c-0.178,1.635-0.98,3.107-2.264,4.139
		c-1.172,0.941-2.611,1.412-4.1,1.352l1.197-12.234C25.213,4.303,26.568,5.076,27.537,6.281z M-0.732-7.894
		c13.604,0,22.285,3.4,22.285,5.742c0,0.638-0.668,1.356-1.887,2.062C13.617-2.823,7.016-4.228,0.01-4.228
		c-10.968,0-19.561,3.461-21.141,4.141c-1.22-0.706-1.89-1.426-1.89-2.064C-23.021-4.493-14.338-7.894-0.732-7.894z M-21.934,25.219
		l0.056,0.402c0.861,4.205,7.163,12.893,21.146,12.893c13.896,0,21.508-8.553,22.324-12.916l0.043-0.459
		c7.695,2.031,12.586,5.121,12.586,8.029c0,0.15-0.014,0.299-0.039,0.451c-0.006,0.033-0.018,0.068-0.023,0.102
		c-0.984,4.83-14.73,9.98-34.156,9.98c-20.168,0-34.221-5.551-34.221-10.533C-34.219,30.307-29.445,27.246-21.934,25.219z"/>
	<path d="M-9.514-14.544c0.746,0,1.351-0.605,1.351-1.351v-9.694c0-0.745-0.604-1.35-1.351-1.35c-0.745,0-1.35,0.604-1.35,1.35
		v9.694C-10.863-15.149-10.259-14.544-9.514-14.544z"/>
	<path d="M1.699-18.459c0.748,0,1.35-0.604,1.35-1.351v-22.201c0-0.745-0.602-1.35-1.35-1.35c-0.744,0-1.35,0.604-1.35,1.35v22.201
		C0.35-19.063,0.955-18.459,1.699-18.459z"/>
	<path d="M-5.816-35.374c0.745,0,1.35-0.605,1.35-1.351v-10.11c0-0.746-0.604-1.351-1.35-1.351c-0.746,0-1.35,0.604-1.35,1.351
		v10.11C-7.166-35.979-6.562-35.374-5.816-35.374z"/>
	<path d="M8.953-13.757c0.744,0,1.35-0.605,1.35-1.35v-10.109c0-0.746-0.605-1.351-1.35-1.351c-0.746,0-1.352,0.604-1.352,1.351
		v10.109C7.602-14.362,8.207-13.757,8.953-13.757z"/>
</g>
</svg>
