<?xml version="1.0" encoding="utf-8"?>
<!-- Generator: Adobe Illustrator 15.1.0, SVG Export Plug-In . SVG Version: 6.00 Build 0)  -->
<!DOCTYPE svg PUBLIC "-//W3C//DTD SVG 1.1//EN" "http://www.w3.org/Graphics/SVG/1.1/DTD/svg11.dtd">
<svg version="1.1" id="Layer_1" xmlns="http://www.w3.org/2000/svg" xmlns:xlink="http://www.w3.org/1999/xlink" x="0px" y="0px"
	 width="800px" height="600px" viewBox="0 0 800 600" enable-background="new 0 0 800 600" xml:space="preserve">
<g>
	<path d="M19.209-24.987v-3.75h-2.701v3.75h-33.017v-3.75h-2.7v3.75h-15.307v53.725h69.031v-53.725H19.209z M31.815,26.038h-63.631
		v-48.324h12.606v3.752h2.7v-3.752h33.017v3.752h2.701v-3.752h12.606V26.038z"/>
	<rect x="-27.601" y="-11.312" width="6.601" height="6.602"/>
	<rect x="-19.5" y="-11.312" width="6.6" height="6.602"/>
	<rect x="-11.4" y="-11.312" width="6.601" height="6.602"/>
	<rect x="-3.301" y="-11.312" width="6.602" height="6.602"/>
	<rect x="4.8" y="-11.312" width="6.601" height="6.602"/>
	<rect x="12.899" y="-11.312" width="6.601" height="6.602"/>
	<rect x="21" y="-11.312" width="6.6" height="6.602"/>
	<rect x="-27.601" y="-3.36" width="6.601" height="6.6"/>
	<rect x="-19.5" y="-3.36" width="6.6" height="6.6"/>
	<rect x="-11.4" y="-3.36" width="6.601" height="6.6"/>
	<rect x="-3.301" y="-3.36" width="6.602" height="6.6"/>
	<rect x="4.8" y="-3.36" width="6.601" height="6.6"/>
	<rect x="12.899" y="-3.36" width="6.601" height="6.6"/>
	<rect x="21" y="-3.36" width="6.6" height="6.6"/>
	<rect x="-27.601" y="4.591" width="6.601" height="6.6"/>
	<rect x="-19.5" y="4.591" width="6.6" height="6.6"/>
	<rect x="-11.4" y="4.591" width="6.601" height="6.6"/>
	<rect x="-3.301" y="4.591" width="6.602" height="6.6"/>
	<rect x="4.8" y="4.591" width="6.601" height="6.6"/>
	<rect x="12.899" y="4.591" width="6.601" height="6.6"/>
	<rect x="21" y="4.591" width="6.6" height="6.6"/>
	<rect x="-27.601" y="12.54" width="55.2" height="6.602"/>
</g>
</svg>
