<?xml version="1.0" encoding="utf-8"?>
<!-- Generator: Adobe Illustrator 15.1.0, SVG Export Plug-In . SVG Version: 6.00 Build 0)  -->
<!DOCTYPE svg PUBLIC "-//W3C//DTD SVG 1.1//EN" "http://www.w3.org/Graphics/SVG/1.1/DTD/svg11.dtd">
<svg version="1.1" id="Layer_1" xmlns="http://www.w3.org/2000/svg" xmlns:xlink="http://www.w3.org/1999/xlink" x="0px" y="0px"
	 width="800px" height="600px" viewBox="0 0 800 600" enable-background="new 0 0 800 600" xml:space="preserve">
<path d="M14.639,29.588c-0.222,0-0.442-0.054-0.643-0.163L-4.963,19.152c-0.503-0.272-0.78-0.832-0.691-1.397
	c0.09-0.564,0.525-1.013,1.088-1.116L6.2,14.646L7.256-0.73H-6.692l-10.439,27.846c-0.139,0.369-0.432,0.659-0.802,0.795
	c-0.37,0.133-0.781,0.1-1.124-0.092l-17.958-10.101c-0.508-0.286-0.774-0.862-0.663-1.435c0.11-0.57,0.575-1.007,1.152-1.08
	l12.343-1.595L-19.86-0.73h-13.509h-0.002c-3.872,0-10.281-2.197-10.281-10.428c0-8.852,9.908-15.491,26.504-17.757
	c0.65-0.091,1.267,0.301,1.468,0.923c0.141,0.438,0.047,0.903-0.223,1.248c1.724-0.961,3.471-1.885,5.123-2.679
	c0.16-0.077,0.336-0.122,0.515-0.13c3.091-0.158,11.58,0.26,15.038,0.467c0.646,0.037,1.173,0.529,1.258,1.171
	c0.062,0.464-0.123,0.914-0.463,1.204c2.205-0.697,4.409-1.255,6.427-1.531c0.133-0.018,0.269-0.016,0.401,0.006
	c4.257,0.697,5.222,0.969,8.417,1.859l1.568,0.438c0.622,0.173,1.035,0.762,0.986,1.404c-0.033,0.419-0.254,0.785-0.582,1.01
	c2.353-0.488,3.994-0.717,4.148-0.738c0.225-0.03,0.453-0.004,0.664,0.077c4.827,1.846,16.055,6.908,16.055,14.038
	c0,2.209-1.42,9.418-19.697,9.418h-4.07l-3.908,29.148c-0.059,0.439-0.33,0.822-0.726,1.023
	C15.059,29.539,14.849,29.588,14.639,29.588z M-0.32,18.599l13.881,7.521L17.367-2.26c0.089-0.67,0.661-1.17,1.337-1.17h5.251
	c12.546,0,16.998-3.62,16.998-6.719c0-3.682-5.352-8.029-13.992-11.391c-1.637,0.251-8.904,1.463-14.533,3.992
	c-0.559,0.249-1.215,0.095-1.602-0.38c-0.385-0.475-0.404-1.149-0.045-1.646c1.825-2.516,4.233-4.062,6.338-5.004
	c-1.313-0.326-2.574-0.57-4.957-0.962c-8.283,1.206-20.354,7.606-20.476,7.671c-0.582,0.31-1.301,0.154-1.703-0.367
	c-0.403-0.521-0.37-1.257,0.077-1.74C-7.142-23-3.761-25.204-0.998-26.68c-3.301-0.144-6.938-0.26-8.862-0.189
	c-7.353,3.57-16.813,9.875-16.909,9.94c-0.534,0.356-1.246,0.288-1.702-0.165c-0.455-0.451-0.528-1.164-0.177-1.699
	c1.706-2.594,3.845-4.724,5.785-6.341c-11.305,2.626-18.09,7.757-18.09,13.976c0,7.357,6.249,7.729,7.502,7.729l15.408-0.001
	c0.427,0,0.829,0.201,1.083,0.545c0.255,0.342,0.332,0.785,0.209,1.195l-5.101,16.915c-0.153,0.51-0.592,0.88-1.119,0.949
	l-9.176,1.185l13.04,7.334L-8.892-2.553C-8.694-3.08-8.19-3.43-7.628-3.43H8.701c0.373,0,0.731,0.154,0.986,0.428
	c0.256,0.275,0.386,0.641,0.36,1.015L8.822,15.874c-0.043,0.613-0.496,1.122-1.102,1.233L-0.32,18.599z"/>
</svg>
