<?xml version="1.0" encoding="utf-8"?>
<!-- Generator: Adobe Illustrator 15.1.0, SVG Export Plug-In . SVG Version: 6.00 Build 0)  -->
<!DOCTYPE svg PUBLIC "-//W3C//DTD SVG 1.1//EN" "http://www.w3.org/Graphics/SVG/1.1/DTD/svg11.dtd">
<svg version="1.1" id="Layer_1" xmlns="http://www.w3.org/2000/svg" xmlns:xlink="http://www.w3.org/1999/xlink" x="0px" y="0px"
	 width="800px" height="600px" viewBox="0 0 800 600" enable-background="new 0 0 800 600" xml:space="preserve">
<g>
	<path d="M15.995-43.79c-15.033,0-27.263,12.23-27.263,27.264c0,6.207,2.088,11.934,5.594,16.521l-8.975,10.164l-3.864-3.785
		c-0.532-0.521-1.387-0.514-1.909,0.02l-22.452,22.918c-0.522,0.533-0.514,1.387,0.02,1.908l12.435,12.184
		c0.252,0.248,0.592,0.387,0.944,0.387c0.005,0,0.009,0,0.015,0c0.357-0.004,0.699-0.15,0.95-0.406l22.454-22.92
		c0.25-0.256,0.39-0.6,0.386-0.959c-0.004-0.357-0.149-0.699-0.405-0.949l-3.387-3.316l8.851-10.164
		c4.602,3.547,10.362,5.664,16.608,5.664c15.035,0,27.266-12.23,27.266-27.266C43.26-31.56,31.03-43.79,15.995-43.79z
		 M-29.495,40.53l-10.507-10.293l20.562-20.99l10.509,10.291L-29.495,40.53z M15.995,8.04C2.45,8.04-8.568-2.981-8.568-16.526
		S2.45-41.091,15.995-41.091c13.547,0,24.566,11.02,24.566,24.564S29.542,8.04,15.995,8.04z"/>
	<path d="M31.118-25.938c0.621,1.787,0.975,3.699,0.975,5.697c0,9.613-7.793,17.406-17.404,17.406
		c-6.314,0-11.828-3.373-14.88-8.408C1.627-3.401,8.639,2.446,17.036,2.446c9.773,0,17.699-7.924,17.699-17.697
		C34.735-19.272,33.375-22.968,31.118-25.938z"/>
</g>
</svg>
