<?xml version="1.0" encoding="utf-8"?>
<!-- Generator: Adobe Illustrator 15.1.0, SVG Export Plug-In . SVG Version: 6.00 Build 0)  -->
<!DOCTYPE svg PUBLIC "-//W3C//DTD SVG 1.1//EN" "http://www.w3.org/Graphics/SVG/1.1/DTD/svg11.dtd">
<svg version="1.1" id="Layer_1" xmlns="http://www.w3.org/2000/svg" xmlns:xlink="http://www.w3.org/1999/xlink" x="0px" y="0px"
	 width="800px" height="600px" viewBox="0 0 800 600" enable-background="new 0 0 800 600" xml:space="preserve">
<g>
	<path d="M46.611-11.083l-0.077-0.043c-0.481-0.277-6.115-3.584-13.472-10.955c-0.694-0.693-1.391-1.4-2.086-2.105l-0.393-0.396
		c-0.83-0.844-1.66-1.688-2.494-2.53c-6.446-6.44-13.52-12.599-22.803-11.065c-0.836,0.134-1.494,0.725-1.709,1.518
		c-0.23,0.791,0.03,1.642,0.66,2.18c0.029,0.025,0.058,0.053,0.088,0.077c0.209,0.183,0.842,0.734,1.638,1.53
		c1.934,1.941,7.978,8.547,4.511,12.086c-0.413,0.412-0.629,0.969-0.609,1.609c0.035,0.561,0.285,1.083,0.693,1.457l0.096,0.083
		c0.199,0.175,0.922,0.806,1.98,1.753c-0.389,0.901-1.984,2.752-4.746,5.506L7.384-9.891C5.283-7.788,2.371-4.42-0.001-1.6
		c-2.373-2.822-5.286-6.189-7.4-8.307l-0.476-0.461c-2.8-2.789-4.402-4.649-4.769-5.508c0.982-0.88,1.679-1.49,1.937-1.715
		c0.078-0.068,0.122-0.109,0.139-0.125c0.418-0.385,0.666-0.903,0.705-1.503c0.02-0.6-0.199-1.157-0.603-1.56
		c-3.477-3.549,2.566-10.154,4.5-12.094c0.811-0.811,1.441-1.358,1.65-1.539c0.027-0.025,0.054-0.048,0.08-0.07
		c0.627-0.538,0.886-1.387,0.665-2.157c-0.222-0.815-0.879-1.406-1.707-1.538c-0.94-0.154-1.892-0.234-2.825-0.234
		c-8.006,0-14.263,5.582-19.992,11.302c-0.731,0.738-1.462,1.481-2.194,2.226l-0.554,0.562c-0.74,0.75-1.48,1.501-2.221,2.242
		c-7.354,7.367-12.972,10.667-13.468,10.951l-0.081,0.045c-0.872,0.508-1.276,1.565-0.963,2.51
		C-43.242,4.703-32.364,6.254-31.945,6.308c0.678,0.109,1.329-0.102,1.824-0.578c0.264-0.262,0.456-0.598,0.554-0.977
		c0.506-1.967,2.331-5.601,8.062-11.873c2.493,2.418,5.032,4.535,6.149,5.449l0.007,0.008c0.037,0.029,3.795,3.26,8.615,8.293
		c-2.608,3.268-5.09,6.467-6.899,8.896c-4.493,6.034-14.166,16.592-16.061,18.648l-0.083,0.092
		c-0.573,0.609-0.733,1.499-0.406,2.271c0.104,0.245,0.259,0.468,0.457,0.667c0.366,0.367,0.853,0.588,1.402,0.627l12.812,0.582
		c0.029,0.002,0.058,0.002,0.086,0.002c0.939,0,1.771-0.613,2.045-1.526c1.97-6.72,6.471-14.354,13.378-22.707
		C6.906,22.535,11.41,30.171,13.38,36.896c0.268,0.895,1.108,1.52,2.043,1.52l12.93-0.586c0.515-0.037,1-0.256,1.378-0.631
		c0.191-0.195,0.341-0.415,0.452-0.666c0.322-0.765,0.163-1.654-0.387-2.243l-0.107-0.114c-1.894-2.057-11.566-12.614-16.06-18.648
		C11.816,13.092,9.333,9.893,6.73,6.63c4.863-5.08,8.574-8.26,8.602-8.283l0.091-0.075c1.062-0.868,3.597-2.985,6.079-5.392
		c5.73,6.271,7.557,9.906,8.064,11.878c0.096,0.371,0.285,0.705,0.57,0.991c0.486,0.461,1.143,0.664,1.764,0.564
		c0.461-0.06,11.338-1.608,15.676-14.887C47.89-9.536,47.494-10.568,46.611-11.083z M-13.625-3.743L-13.625-3.743
		c-0.023-0.02-0.051-0.042-0.083-0.068c-1.169-0.956-4.183-3.474-6.88-6.198l-0.985-0.995l-0.958,1.021
		c-5.235,5.578-8.427,10.125-9.496,13.528c-1.951-0.438-9.446-2.729-12.84-12.531c1.651-0.999,7.02-4.479,13.712-11.184
		c0.745-0.745,1.49-1.501,2.234-2.257l0.555-0.564c0.729-0.74,1.458-1.481,2.182-2.213c5.613-5.604,11.765-11.059,19.223-10.461
		c-0.266,0.248-0.576,0.545-0.916,0.885c-6.172,6.189-7.942,11.767-4.929,15.436c-0.404,0.356-1.074,0.947-1.926,1.713l-0.144,0.129
		l-0.061,0.097c-0.234,0.235-0.467,0.613-0.487,1.195c-0.041,1.756,1.951,4.079,5.653,7.768l0.474,0.459
		c1.731,1.733,4.327,4.658,7.538,8.49c-0.559,0.675-1.123,1.362-1.692,2.058c-0.064,0.08-0.129,0.16-0.193,0.24
		c-0.46,0.562-0.921,1.128-1.384,1.703C-9.854-0.508-13.59-3.714-13.625-3.743z M26.955,35.189l-11.115,0.507
		C13.673,28.631,8.947,20.697,1.775,12.09c0.527-0.61,1.052-1.222,1.598-1.832c0.068-0.077,0.14-0.154,0.209-0.231
		c0.422-0.47,0.857-0.934,1.287-1.401c2.495,3.131,4.856,6.179,6.596,8.513C15.572,22.655,23.617,31.547,26.955,35.189z
		 M32.025,3.543c-1.072-3.406-4.265-7.952-9.496-13.526l-0.959-1.021l-0.984,0.995c-2.684,2.709-5.699,5.233-6.871,6.191
		c-0.032,0.026-0.061,0.049-0.085,0.07l0,0c-0.034,0.026-3.737,3.195-8.603,8.253L5.023,4.5L3.958,5.626
		c-1.73,1.836-3.409,3.711-4.99,5.574l-0.741,0.873l0.007,0.008c-7.177,8.613-11.915,16.555-14.077,23.614l-11.118-0.505
		c3.34-3.644,11.385-12.536,15.494-18.053c1.96-2.631,4.721-6.182,7.576-9.74c1.668-2.079,3.327-4.109,4.927-6.03l0,0l0,0
		c3.543-4.256,6.398-7.49,8.242-9.336l0.502-0.487c3.688-3.676,5.68-5.999,5.64-7.781c-0.024-0.578-0.265-0.953-0.487-1.173
		l-0.201-0.222c-0.846-0.759-1.512-1.348-1.929-1.712c3.015-3.659,1.248-9.242-4.93-15.438c-0.336-0.336-0.645-0.631-0.913-0.883
		c7.457-0.582,13.578,4.825,19.217,10.455c0.826,0.836,1.653,1.678,2.482,2.521l0.393,0.398c0.701,0.711,1.4,1.421,2.101,2.119
		c6.772,6.785,12.079,10.211,13.711,11.188C41.488,0.773,34.043,3.086,32.025,3.543z"/>
	<path d="M-10.557-17.727c0,0-0.01,0.008-0.014,0.012c-0.002,0.002-0.004,0.004-0.005,0.006
		C-10.562-17.722-10.557-17.727-10.557-17.727z"/>
</g>
</svg>
