<?xml version="1.0" encoding="utf-8"?>
<!-- Generator: Adobe Illustrator 15.1.0, SVG Export Plug-In . SVG Version: 6.00 Build 0)  -->
<!DOCTYPE svg PUBLIC "-//W3C//DTD SVG 1.1//EN" "http://www.w3.org/Graphics/SVG/1.1/DTD/svg11.dtd">
<svg version="1.1" id="Layer_1" xmlns="http://www.w3.org/2000/svg" xmlns:xlink="http://www.w3.org/1999/xlink" x="0px" y="0px"
	 width="800px" height="600px" viewBox="0 0 800 600" enable-background="new 0 0 800 600" xml:space="preserve">
<path d="M41.852,21.212L7.633,1.452c0.334-0.889,0.525-1.846,0.525-2.852c0-3.773-2.578-6.949-6.062-7.879l6.666-12.436
	c0.166-0.309,0.205-0.67,0.109-1.006l-7.58-26.748c-0.184-0.646-0.822-1.062-1.484-0.969c-0.668,0.094-1.164,0.664-1.164,1.338
	v39.656C-5.217-8.796-8.172-5.44-8.172-1.399c0,0.73,0.105,1.434,0.287,2.107L-21.664,1.06c-0.35,0.01-0.682,0.154-0.928,0.404
	l-19.689,20.041c-0.473,0.482-0.518,1.238-0.104,1.771c0.264,0.342,0.662,0.525,1.068,0.525c0.229,0,0.461-0.061,0.674-0.182
	l34.34-19.826C-5.408,4.878-4.234,5.718-2.9,6.226l-1.748,42.818c-0.016,0.367,0.119,0.725,0.375,0.99
	C-4.02,50.3-3.668,50.45-3.301,50.45h6.586c0.006,0,0.012,0,0.018,0c0.746,0,1.35-0.605,1.35-1.352c0-0.094-0.01-0.186-0.027-0.273
	L2.885,6.228C3.965,5.815,4.938,5.19,5.742,4.39l6.879,11.535c0.182,0.305,0.475,0.525,0.816,0.615l27.521,7.219
	c0.113,0.029,0.229,0.045,0.342,0.045c0.01,0,0.018,0,0.018,0c0.75-0.004,1.35-0.607,1.35-1.352
	C42.668,21.896,42.332,21.419,41.852,21.212z M-33.406,16.323l12.357-12.576l9.867-0.254L-33.406,16.323z M1.342-39.384
	l4.783,16.875l-4.783,8.92V-39.384z M0.203,6.767l1.676,40.982h-3.773l1.676-40.982H0.203z M-0.008,4.065
	c-3.014,0-5.463-2.451-5.463-5.465s2.449-5.465,5.463-5.465s5.465,2.451,5.465,5.465S3.006,4.065-0.008,4.065z M14.656,14.067
	L9.709,5.769l22.215,12.828L14.656,14.067z"/>
</svg>
