<?xml version="1.0" encoding="utf-8"?>
<!-- Generator: Adobe Illustrator 15.1.0, SVG Export Plug-In . SVG Version: 6.00 Build 0)  -->
<!DOCTYPE svg PUBLIC "-//W3C//DTD SVG 1.1//EN" "http://www.w3.org/Graphics/SVG/1.1/DTD/svg11.dtd">
<svg version="1.1" id="Layer_1" xmlns="http://www.w3.org/2000/svg" xmlns:xlink="http://www.w3.org/1999/xlink" x="0px" y="0px"
	 width="800px" height="600px" viewBox="0 0 800 600" enable-background="new 0 0 800 600" xml:space="preserve">
<g>
	<path d="M-36.518-42.263l3.868,0.276c0.032,0.002,0.065,0.004,0.097,0.004c0.702,0,1.294-0.544,1.345-1.254
		c0.053-0.744-0.507-1.391-1.25-1.443l-3.868-0.275c-0.742-0.057-1.39,0.506-1.443,1.25C-37.822-42.962-37.262-42.315-36.518-42.263
		z"/>
	<path d="M-28.364-51.542c0.267,0.339,0.663,0.517,1.063,0.517c0.292,0,0.585-0.095,0.833-0.288c0.586-0.46,0.689-1.308,0.229-1.896
		l-7.046-8.98c-0.46-0.587-1.309-0.688-1.895-0.229c-0.587,0.461-0.689,1.309-0.229,1.896L-28.364-51.542z"/>
	<path d="M-14.975-53.367c0.127,0.039,0.255,0.057,0.382,0.057c0.583,0,1.121-0.381,1.294-0.971l2.072-7.045
		c0.211-0.715-0.199-1.466-0.914-1.677c-0.716-0.211-1.466,0.198-1.676,0.914l-2.072,7.047
		C-16.099-54.326-15.69-53.576-14.975-53.367z"/>
	<path d="M40.359-23.769c-1.025-6.186-6.879-10.424-16.09-11.718c-0.652-1.492-1.439-2.927-2.361-4.261c0-0.002,0-0.002,0-0.002
		C17.133-46.664,9.277-50.791,0.892-50.791c-3.978,0-7.908,0.943-11.45,2.725c-1.907-2.436-4.787-3.857-7.928-3.857
		c-5.574,0-10.107,4.535-10.107,10.107c0,3.713,2,7.047,5.183,8.817c-0.794,2.498-1.221,5.087-1.221,7.731
		c0,0.917,0.068,1.854,0.171,2.791c-7.597,5.33-11.222,11.039-10.199,16.133c1.053,5.295,6.906,9.35,16.103,11.225
		c0.86,9.469,8.518,15.312,20.29,15.312c12.399,0,20.413-6.716,20.413-17.112v-3.613C34.557-6.645,41.688-15.702,40.359-23.769z
		 M-14.796-40.492l2.589,2.589c-0.617,0.986-1.458,1.815-2.454,2.419l-2.572-2.572L-14.796-40.492z M-18.506-39.328l-2.436-2.438
		l2.437-2.436l2.436,2.436L-18.506-39.328z M-11.39-43.898c0.201,0.674,0.311,1.376,0.311,2.082c0,0.756-0.115,1.484-0.326,2.172
		l-2.12-2.121L-11.39-43.898z M-16.428-34.705c-0.654,0.189-1.344,0.297-2.058,0.297c-0.711,0-1.412-0.103-2.092-0.303l2.072-2.072
		L-16.428-34.705z M-20.918-32.006c0.065,0.016,0.132,0.021,0.197,0.035c0.256,0.061,0.514,0.105,0.773,0.145
		c0.116,0.018,0.23,0.037,0.346,0.051c0.37,0.041,0.742,0.066,1.117,0.066c0.163,0,0.321-0.016,0.483-0.024l-3.924,6.346
		C-21.916-27.646-21.58-29.866-20.918-32.006z M-17.953-26.414c-0.001,0-0.001,0-0.002,0c-0.622,0.325-1.229,0.659-1.827,0.996
		c-0.005,0.004-0.01,0.006-0.015,0.01l4.151-6.713c3.56-1.045,6.312-3.994,7.064-7.668l22.379,4.061
		c-4.641,0.352-9.543,1.253-14.481,2.698C-6.875-31.369-12.847-29.082-17.953-26.414z M0.892-48.092
		c7.497,0,14.522,3.691,18.793,9.874c0,0.002,0,0.002,0,0.002c0.43,0.624,0.82,1.276,1.188,1.94l-29.264-5.309
		c0.002-0.077,0.013-0.152,0.013-0.232c0-0.409-0.034-0.816-0.084-1.221c-0.015-0.12-0.034-0.236-0.054-0.354
		c-0.049-0.303-0.111-0.604-0.188-0.9c-0.027-0.111-0.053-0.223-0.085-0.332c-0.111-0.382-0.237-0.758-0.394-1.123
		C-6.059-47.285-2.602-48.092,0.892-48.092z M-12.171-45.664l-2.625,2.627l-2.437-2.438l2.634-2.635
		C-13.63-47.506-12.794-46.684-12.171-45.664z M-16.352-48.9l-2.153,2.154l-2.15-2.15c0.687-0.211,1.415-0.327,2.17-0.327
		C-17.748-49.224-17.034-49.104-16.352-48.9z M-22.398-48.094l2.62,2.619l-2.437,2.438l-2.603-2.602
		C-24.214-46.636-23.385-47.477-22.398-48.094z M-25.894-41.816c0-0.713,0.107-1.402,0.297-2.057l2.109,2.107l-2.089,2.091
		C-25.782-40.357-25.894-41.076-25.894-41.816z M-24.779-37.928l2.563-2.564l2.437,2.436l-2.559,2.561
		C-23.349-36.11-24.173-36.949-24.779-37.928z M19.445,3.08c0,10.626-9.148,14.412-17.711,14.412
		c-10.769,0-17.377-5.152-17.68-13.783c-0.004-0.108-0.012-0.217-0.019-0.324c-0.007-0.101-0.015-0.201-0.015-0.305V-9.393v-14.993
		c0.208-0.104,0.415-0.209,0.625-0.312c0.285-0.143,0.57-0.283,0.86-0.422c0.343-0.163,0.692-0.323,1.042-0.483
		c0.293-0.136,0.585-0.27,0.882-0.4c0.358-0.16,0.723-0.315,1.088-0.47c0.299-0.127,0.597-0.255,0.899-0.38
		c0.375-0.152,0.756-0.303,1.136-0.451c0.302-0.118,0.601-0.24,0.904-0.354c0.397-0.151,0.801-0.297,1.203-0.443
		c0.295-0.107,0.588-0.217,0.885-0.322c0.427-0.148,0.859-0.291,1.291-0.436c0.281-0.093,0.559-0.189,0.842-0.281
		c0.482-0.156,0.97-0.304,1.457-0.451c0.236-0.072,0.472-0.148,0.711-0.219c0.728-0.216,1.461-0.422,2.197-0.62
		c0.88-0.257,1.758-0.495,2.633-0.718c0.287-0.073,0.574-0.135,0.861-0.203c0.586-0.143,1.17-0.283,1.752-0.408
		c0.346-0.075,0.688-0.137,1.031-0.205c0.518-0.104,1.037-0.209,1.553-0.301c0.367-0.063,0.729-0.118,1.094-0.176
		c0.486-0.078,0.973-0.154,1.455-0.22c0.373-0.052,0.742-0.093,1.113-0.138c0.467-0.055,0.932-0.107,1.395-0.15
		c0.373-0.035,0.742-0.063,1.111-0.092c0.451-0.033,0.898-0.064,1.344-0.086c0.367-0.02,0.732-0.031,1.096-0.044
		c0.438-0.013,0.871-0.021,1.303-0.022c0.359-0.002,0.715,0,1.07,0.006c0.197,0.004,0.393,0.013,0.59,0.018v21.616v10.177V3.08z"/>
	<path d="M-29.13-34.945c-0.355-0.655-1.175-0.899-1.831-0.543l-8.85,4.799c-0.655,0.357-0.898,1.176-0.543,1.832
		c0.245,0.45,0.708,0.707,1.188,0.707c0.218,0,0.438-0.053,0.643-0.164l8.85-4.801C-29.018-33.47-28.775-34.289-29.13-34.945z"/>
	<path d="M-6.168-11.209c3.482,0,6.316-2.834,6.316-6.317c0-3.482-2.834-6.315-6.316-6.315c-3.484,0-6.317,2.833-6.317,6.315
		C-12.486-14.043-9.653-11.209-6.168-11.209z M-6.168-22.043c2.49,0,4.516,2.027,4.516,4.517c0,2.491-2.025,4.518-4.516,4.518
		c-2.491,0-4.517-2.026-4.517-4.518C-10.686-20.016-8.66-22.043-6.168-22.043z"/>
	<circle cx="-6.168" cy="-17.526" r="2.303"/>
	<path d="M9.49-23.842c-3.484,0-6.316,2.833-6.316,6.315c0,3.483,2.832,6.317,6.316,6.317c3.482,0,6.316-2.834,6.316-6.317
		C15.807-21.009,12.973-23.842,9.49-23.842z M9.49-13.009c-2.492,0-4.518-2.026-4.518-4.518c0-2.489,2.025-4.517,4.518-4.517
		c2.49,0,4.518,2.027,4.518,4.517C14.008-15.035,11.98-13.009,9.49-13.009z"/>
	<circle cx="9.49" cy="-17.526" r="2.303"/>
	<path d="M13.289-2.125c-0.391-0.027-0.752,0.204-0.893,0.566c-0.004-0.074-0.008-0.147-0.012-0.222
		c-0.021-0.422-0.338-0.771-0.758-0.831c-0.326-0.048-0.646,0.092-0.836,0.344c-0.053-0.217-0.104-0.439-0.154-0.653
		c-0.09-0.392-0.432-0.673-0.834-0.688c-0.395-0.014-0.756,0.241-0.875,0.62C8.779-3.119,8.586-3.204,8.373-3.213
		C7.938-3.234,7.555-2.932,7.467-2.506L7.371-2.039l-0.52-1.227c-0.15-0.354-0.508-0.569-0.891-0.537
		C5.578-3.77,5.26-3.498,5.172-3.123L5.133-2.956L5.082-3.199C4.996-3.611,4.621-3.89,4.205-3.905C3.783-3.9,3.422-3.6,3.342-3.183
		L2.479,1.359c-0.09,0.48,0.225,0.945,0.707,1.037c0.48,0.09,0.945-0.225,1.035-0.707L4.262,1.48
		c0.135,0.316,0.447,0.531,0.803,0.536c0.408,0.028,0.777-0.277,0.875-0.682L6.273-0.08l0.574,1.358
		C7,1.635,7.363,1.854,7.752,1.814C8.031,1.787,8.275,1.63,8.418,1.4c0.094,0.031,0.201,0.049,0.324,0.056
		c0.43,0.021,0.836-0.294,0.936-0.712c0.004-0.012,0.006-0.028,0.012-0.047c0.359,1.246,0.559,1.221,1.135,1.156
		c0.078-0.009,0.156-0.028,0.232-0.061c0.184,0.518,0.398,0.598,0.631,0.686c0.092,0.034,0.193,0.052,0.299,0.052
		c0.266,0,0.547-0.107,0.725-0.29c0.086-0.088,0.178-0.222,0.27-0.385c0.193,0.193,0.475,0.295,0.764,0.249
		c0.484-0.075,0.814-0.528,0.74-1.013l-0.383-2.468C14.039-1.783,13.701-2.093,13.289-2.125z"/>
	<path d="M-0.728-3.905c-0.422,0.003-0.79,0.294-0.876,0.706l-0.051,0.245l-0.04-0.169c-0.089-0.375-0.407-0.646-0.789-0.68
		c-0.382-0.032-0.741,0.184-0.891,0.537l-0.519,1.229l-0.098-0.469c-0.088-0.426-0.466-0.729-0.906-0.707
		c-0.212,0.009-0.405,0.094-0.554,0.225c-0.119-0.379-0.48-0.634-0.876-0.62c-0.4,0.015-0.744,0.296-0.834,0.688
		c-0.05,0.214-0.102,0.435-0.152,0.653c-0.191-0.252-0.51-0.392-0.836-0.344c-0.42,0.06-0.737,0.409-0.759,0.831
		C-8.911-1.706-8.916-1.633-8.92-1.557c-0.139-0.364-0.501-0.596-0.894-0.568c-0.411,0.032-0.747,0.342-0.81,0.749l-0.383,2.468
		c-0.076,0.484,0.256,0.938,0.74,1.013c0.291,0.046,0.571-0.056,0.763-0.249c0.094,0.163,0.185,0.297,0.271,0.387
		C-9.057,2.423-8.776,2.53-8.51,2.53c0.105,0,0.208-0.018,0.301-0.053c0.232-0.087,0.447-0.169,0.631-0.686
		c0.073,0.031,0.15,0.053,0.232,0.062c0.575,0.066,0.774,0.09,1.133-1.156c0.006,0.019,0.01,0.036,0.013,0.049
		c0.101,0.418,0.503,0.732,0.935,0.71C-5.141,1.449-5.034,1.432-4.941,1.4c0.144,0.229,0.386,0.387,0.667,0.414
		c0.385,0.037,0.752-0.18,0.903-0.536l0.573-1.356l0.336,1.413c0.096,0.404,0.463,0.712,0.875,0.682
		c0.355-0.005,0.666-0.22,0.803-0.538l0.039,0.211c0.092,0.482,0.557,0.797,1.037,0.707C0.774,2.305,1.089,1.84,0.999,1.359
		L0.135-3.183C0.056-3.6-0.305-3.9-0.728-3.905z"/>
	<path d="M22.092,16.535c-0.234-0.609-0.869-0.962-1.508-0.844c-0.639,0.119-1.104,0.676-1.104,1.326c0,4.553-8.99,8.856-18.5,8.856
		c-7.167,0-13.75-2.931-16.548-5.823c-1.022-1.059-1.547-2.091-1.516-2.987c0.022-0.657-0.435-1.237-1.081-1.367
		c-0.646-0.13-1.292,0.224-1.529,0.839l-4.983,12.963c-0.169,0.441-0.096,0.939,0.193,1.313L0.132,62.537
		c0.256,0.33,0.65,0.521,1.067,0.521s0.81-0.191,1.066-0.521l24.615-31.726c0.291-0.374,0.363-0.872,0.193-1.313L22.092,16.535z
		 M1.2,59.508l-23.083-29.751l3.437-8.94c0.272,0.375,0.585,0.746,0.938,1.111c3.784,3.912,11.387,6.646,18.489,6.646
		c8.141,0,16.737-2.936,19.92-7.611l3.381,8.794L1.2,59.508z"/>
	<path d="M-2.1,38.812c0.277,0,0.55-0.126,0.727-0.367c0.295-0.4,0.208-0.963-0.193-1.258l-14.699-10.801
		c-0.4-0.293-0.963-0.207-1.258,0.193c-0.294,0.401-0.208,0.964,0.192,1.259l14.7,10.8C-2.471,38.757-2.285,38.812-2.1,38.812z"/>
	<path d="M-12.144,35.297c-0.366-0.337-0.935-0.312-1.271,0.055c-0.336,0.366-0.312,0.936,0.054,1.271l10.95,10.051
		c0.173,0.158,0.391,0.236,0.608,0.236c0.243,0,0.485-0.098,0.663-0.291c0.336-0.367,0.312-0.937-0.055-1.272L-12.144,35.297z"/>
	<path d="M19.264,26.703l-8.549,8.399c-0.355,0.348-0.361,0.919-0.012,1.272c0.176,0.18,0.408,0.27,0.643,0.27
		c0.227,0,0.455-0.085,0.631-0.258l8.549-8.4c0.355-0.348,0.359-0.917,0.012-1.272C20.189,26.359,19.619,26.355,19.264,26.703z"/>
</g>
</svg>
