<?xml version="1.0" encoding="utf-8"?>
<!-- Generator: Adobe Illustrator 15.1.0, SVG Export Plug-In . SVG Version: 6.00 Build 0)  -->
<!DOCTYPE svg PUBLIC "-//W3C//DTD SVG 1.1//EN" "http://www.w3.org/Graphics/SVG/1.1/DTD/svg11.dtd">
<svg version="1.1" id="Layer_1" xmlns="http://www.w3.org/2000/svg" xmlns:xlink="http://www.w3.org/1999/xlink" x="0px" y="0px"
	 width="800px" height="600px" viewBox="0 0 800 600" enable-background="new 0 0 800 600" xml:space="preserve">
<g>
	<path d="M11.628,25.766h-23.256c-5.019,0-9.101,4.084-9.101,9.102c0,5.02,4.082,9.1,9.101,9.1h23.256c5.019,0,9.103-4.08,9.103-9.1
		C20.73,29.85,16.646,25.766,11.628,25.766z M11.628,41.268h-23.256c-3.53,0-6.4-2.871-6.4-6.4s2.87-6.402,6.4-6.402h23.256
		c3.53,0,6.401,2.873,6.401,6.402S15.158,41.268,11.628,41.268z"/>
	<path d="M12.135-39.926h-24.268v18.874h24.268V-39.926z M9.434-23.752H-9.433v-13.474H9.434V-23.752z"/>
	<rect x="-18.063" y="-43.967" width="2.7" height="16.174"/>
	<rect x="15.365" y="-43.967" width="2.699" height="16.174"/>
	<path d="M-11.684-9.914c-2.025,0-3.674,1.648-3.674,3.676c0,2.024,1.648,3.672,3.674,3.672c2.024,0,3.672-1.647,3.672-3.672
		C-8.012-8.266-9.659-9.914-11.684-9.914z"/>
	<path d="M0.002-9.914c-2.027,0-3.674,1.648-3.674,3.676c0,2.024,1.646,3.672,3.674,3.672c2.025,0,3.674-1.647,3.674-3.672
		C3.676-8.266,2.027-9.914,0.002-9.914z"/>
	<path d="M11.688-9.914c-2.025,0-3.674,1.648-3.674,3.676c0,2.024,1.648,3.672,3.674,3.672s3.672-1.647,3.672-3.672
		C15.359-8.266,13.713-9.914,11.688-9.914z"/>
	<path d="M-3.898-29.25c1.452,0,2.635-1.184,2.635-2.637c0-1.452-1.183-2.635-2.635-2.635c-1.453,0-2.635,1.183-2.635,2.635
		C-6.533-30.434-5.352-29.25-3.898-29.25z"/>
	<path d="M3.9-29.25c1.453,0,2.635-1.184,2.635-2.637c0-1.452-1.182-2.635-2.635-2.635c-1.451,0-2.633,1.183-2.633,2.635
		C1.268-30.434,2.449-29.25,3.9-29.25z"/>
	<path d="M-22.916,21.811h45.832v-39.094h-45.832V21.811z M-20.217-14.583h40.434v33.694h-40.434V-14.583z"/>
	<rect x="26.147" y="-10.54" width="2.7" height="24.265"/>
	<rect x="-28.848" y="-10.54" width="2.7" height="24.265"/>
	<path d="M-10.468,31.1c-2.077,0-3.767,1.689-3.767,3.768s1.689,3.768,3.767,3.768c2.079,0,3.771-1.689,3.771-3.768
		S-8.389,31.1-10.468,31.1z"/>
	<path d="M0,31.1c-2.078,0-3.77,1.689-3.77,3.768s1.691,3.768,3.77,3.768c2.08,0,3.771-1.689,3.771-3.768S2.08,31.1,0,31.1z"/>
	<path d="M10.469,31.1c-2.078,0-3.77,1.689-3.77,3.768s1.691,3.768,3.77,3.768s3.77-1.689,3.77-3.768S12.547,31.1,10.469,31.1z"/>
</g>
</svg>
