<?xml version="1.0" encoding="utf-8"?>
<!-- Generator: Adobe Illustrator 15.1.0, SVG Export Plug-In . SVG Version: 6.00 Build 0)  -->
<!DOCTYPE svg PUBLIC "-//W3C//DTD SVG 1.1//EN" "http://www.w3.org/Graphics/SVG/1.1/DTD/svg11.dtd">
<svg version="1.1" id="Layer_1" xmlns="http://www.w3.org/2000/svg" xmlns:xlink="http://www.w3.org/1999/xlink" x="0px" y="0px"
	 width="800px" height="600px" viewBox="0 0 800 600" enable-background="new 0 0 800 600" xml:space="preserve">
<g>
	<path d="M0.644,26.441c7.949,0,14.416-6.467,14.416-14.416S8.593-2.391,0.644-2.391c-7.947,0-14.414,6.467-14.414,14.416
		S-7.304,26.441,0.644,26.441z M0.644,0.31c6.461,0,11.717,5.256,11.717,11.716S7.104,23.741,0.644,23.741
		c-6.459,0-11.713-5.256-11.713-11.716S-5.815,0.31,0.644,0.31z"/>
	<path d="M42.101-10.967c-0.238-4.494-1.695-10.693-6.039-10.693H13.138v-10.879c0-1.389-1.309-2.477-2.98-2.477h-20.312
		c-1.67,0-2.979,1.088-2.979,2.477v10.879h-6.861v-7.391h-11.6v7.391h-4.471c-4.342,0-5.797,6.199-6.035,10.693h-0.041v1.35v1.351
		v43.282h84.283V-8.267v-1.351v-1.35H42.101z M-28.894-26.352h6.197v4.691h-6.197V-26.352z M-36.065-18.959h25.633v-13.314
		c0.064-0.022,0.158-0.042,0.277-0.042h20.312c0.119,0,0.213,0.021,0.279,0.042v13.314h25.625c1.881,0,3.113,3.93,3.342,7.992
		h-78.801C-39.167-14.67-38.024-18.959-36.065-18.959z M-39.44-8.267h29.566C-17.2-4.452-22.22,3.209-22.22,12.025
		c0,8.815,5.02,16.477,12.346,20.291H-39.44V-8.267z M0.644-8.141c11.117,0,20.16,9.047,20.16,20.166
		c0,11.118-9.043,20.164-20.16,20.164s-20.164-9.046-20.164-20.164C-19.521,0.906-10.474-8.141,0.644-8.141z M39.44,32.316H11.161
		c7.326-3.814,12.344-11.476,12.344-20.291c0-8.816-5.018-16.478-12.344-20.292H39.44V32.316z"/>
	<path d="M-5.562-16.174H5.563v-10.936H-5.562V-16.174z M-2.86-24.408h5.725v5.535H-2.86V-24.408z"/>
</g>
</svg>
