<?xml version="1.0" encoding="utf-8"?>
<!-- Generator: Adobe Illustrator 15.1.0, SVG Export Plug-In . SVG Version: 6.00 Build 0)  -->
<!DOCTYPE svg PUBLIC "-//W3C//DTD SVG 1.1//EN" "http://www.w3.org/Graphics/SVG/1.1/DTD/svg11.dtd">
<svg version="1.1" id="Layer_1" xmlns="http://www.w3.org/2000/svg" xmlns:xlink="http://www.w3.org/1999/xlink" x="0px" y="0px"
	 width="800px" height="600px" viewBox="0 0 800 600" enable-background="new 0 0 800 600" xml:space="preserve">
<path d="M43.633,0.587c-2.79-40.885-35.051-39.614-35.305-39.6l-21.295,0.01l-0.396,0.397c-7.208,7.245-13.893,2.649-16.432,0.337
	l-0.471-0.422h-11.421l-0.345,0.834c-1.584,3.823-2.102,7.363-2.082,10.406c-0.02,3.041,0.498,6.583,2.082,10.404l0.345,0.833
	h11.421l0.471-0.422c2.004-1.823,6.587-5.063,11.972-2.795c3.473,1.663,3.444,4.843,3.343,5.82l-0.013,0.095l-6.335,33.068
	l-17.662,0.396c-0.612,0.014-1.138,0.438-1.281,1.032c-0.145,0.594,0.129,1.211,0.668,1.504l25.742,13.985
	c0.201,0.108,0.422,0.163,0.646,0.163c0.169,0,0.339-0.031,0.499-0.095c0.373-0.149,0.659-0.455,0.784-0.837l8.267-25.346
	l5.728,13.486l-7.789,13.14c-0.301,0.506-0.237,1.147,0.155,1.587c0.262,0.294,0.631,0.45,1.007,0.45
	c0.187,0,0.376-0.038,0.554-0.12l19.645-8.864c0.574-0.259,0.892-0.877,0.77-1.494L8.516-13.79c-0.012-0.05-0.008-0.103-0.025-0.15
	l-0.01-0.062c-0.188-1.273-0.42-5.404,3.861-7.026c1.154-0.409,2.524-0.675,4.12-0.675c13.505,0,24.495,22.734,24.604,22.964
	l3.048,6.396L43.633,0.587z M-13.496,33.324l-19.861-10.79l13.681-0.307c0.636-0.015,1.176-0.47,1.296-1.096l7.091-37.02H2.555
	L-13.496,33.324z M-0.725,34.681l5.957-10.049c0.219-0.369,0.25-0.82,0.082-1.217L-1.891,6.449l7.256-22.251L5.861-13.3
	c0.001,0.009,0.001,0.007,0.002,0.016l8.183,41.3L-0.725,34.681z"/>
</svg>
