<?xml version="1.0" encoding="utf-8"?>
<!-- Generator: Adobe Illustrator 15.1.0, SVG Export Plug-In . SVG Version: 6.00 Build 0)  -->
<!DOCTYPE svg PUBLIC "-//W3C//DTD SVG 1.1//EN" "http://www.w3.org/Graphics/SVG/1.1/DTD/svg11.dtd">
<svg version="1.1" id="Layer_1" xmlns="http://www.w3.org/2000/svg" xmlns:xlink="http://www.w3.org/1999/xlink" x="0px" y="0px"
	 width="800px" height="600px" viewBox="0 0 800 600" enable-background="new 0 0 800 600" xml:space="preserve">
<g>
	<path d="M10.424-23.831l2.55-9.849c2.75-0.046,4.972-2.292,4.972-5.054c0-2.79-2.268-5.059-5.058-5.059
		c-2.789,0-5.059,2.269-5.059,5.059c0,1.868,1.021,3.5,2.531,4.375L7.634-23.831H-7.374l-2.84-10.358
		c1.43-0.896,2.385-2.479,2.385-4.286c0-2.789-2.27-5.059-5.059-5.059s-5.059,2.27-5.059,5.059c0,2.79,2.27,5.058,5.059,5.058
		c0.029,0,0.057-0.003,0.086-0.003l2.629,9.59h-21.475v67.623h63.295v-67.623H10.424z M28.948,41.093h-57.896v-62.224h20.543h0.001
		c0.002,0,0.003,0,0.003,0H8.677c0.002,0,0.002,0,0.004,0c0.001,0,0.001,0,0.003,0h20.265V41.093z"/>
	<path d="M-20.399-15.824c-0.746,0-1.35,0.604-1.35,1.351v34.627c0,0.745,0.604,1.35,1.35,1.35h40.799c0.745,0,1.35-0.604,1.35-1.35
		v-34.627c0-0.746-0.604-1.351-1.35-1.351H-20.399z M19.05,18.804h-38.1v-31.928h38.1V18.804z"/>
	<path d="M-16.033,27.269c-2.11,0-3.83,1.719-3.83,3.83c0,2.113,1.72,3.83,3.83,3.83c2.112,0,3.832-1.717,3.832-3.83
		C-12.201,28.987-13.921,27.269-16.033,27.269z"/>
	<path d="M-5.897,27.269c-2.111,0-3.83,1.719-3.83,3.83c0,2.113,1.719,3.83,3.83,3.83c2.113,0,3.832-1.717,3.832-3.83
		C-2.065,28.987-3.784,27.269-5.897,27.269z"/>
	<path d="M4.239,27.269c-2.112,0-3.83,1.719-3.83,3.83c0,2.113,1.718,3.83,3.83,3.83s3.83-1.717,3.83-3.83
		C8.069,28.987,6.352,27.269,4.239,27.269z"/>
	<path d="M15.866,25.778c-2.934,0-5.321,2.387-5.321,5.32c0,2.936,2.388,5.323,5.321,5.323c2.936,0,5.322-2.388,5.322-5.323
		C21.188,28.165,18.802,25.778,15.866,25.778z"/>
</g>
</svg>
