<?xml version="1.0" encoding="utf-8"?>
<!-- Generator: Adobe Illustrator 15.1.0, SVG Export Plug-In . SVG Version: 6.00 Build 0)  -->
<!DOCTYPE svg PUBLIC "-//W3C//DTD SVG 1.1//EN" "http://www.w3.org/Graphics/SVG/1.1/DTD/svg11.dtd">
<svg version="1.1" id="Layer_1" xmlns="http://www.w3.org/2000/svg" xmlns:xlink="http://www.w3.org/1999/xlink" x="0px" y="0px"
	 width="800px" height="600px" viewBox="0 0 800 600" enable-background="new 0 0 800 600" xml:space="preserve">
<g>
	<path d="M-14.719,8.701c-0.54,0.508-0.564,1.355-0.059,1.898c0.504,0.543,1.357,0.574,1.904,0.072
		c0.266-0.244,2.677-2.32,5.299,0.02c0.257,0.229,0.578,0.342,0.898,0.342c0.371,0,0.741-0.152,1.008-0.451
		c0.496-0.557,0.447-1.41-0.109-1.906C-9.402,5.443-13.211,7.279-14.719,8.701z"/>
	<path d="M-1.227,8.701c-0.542,0.512-0.567,1.365-0.057,1.908c0.512,0.543,1.368,0.566,1.91,0.055
		c0.104-0.098,2.589-2.385,5.294,0.027c0.257,0.229,0.578,0.342,0.898,0.342c0.37,0,0.741-0.152,1.007-0.451
		c0.496-0.557,0.448-1.41-0.109-1.906C4.093,5.443,0.281,7.279-1.227,8.701z"/>
	<circle cx="-28.771" cy="-9.088" r="1.042"/>
	<circle cx="-23.16" cy="-9.088" r="1.042"/>
	<circle cx="-17.549" cy="-9.088" r="1.042"/>
	<circle cx="-11.939" cy="-9.088" r="1.042"/>
	<path d="M-6.328-10.131c-0.576,0-1.045,0.468-1.045,1.042c0,0.577,0.469,1.043,1.045,1.043c0.574,0,1.042-0.466,1.042-1.043
		C-5.286-9.663-5.754-10.131-6.328-10.131z"/>
	<circle cx="-0.719" cy="-9.088" r="1.042"/>
	<circle cx="4.892" cy="-9.088" r="1.042"/>
	<circle cx="10.501" cy="-9.088" r="1.042"/>
	<circle cx="16.111" cy="-9.088" r="1.042"/>
	<circle cx="21.721" cy="-9.088" r="1.042"/>
	<path d="M34.928,29.806c-0.33-0.971-0.81-1.275-1.163-1.355c-0.413-0.141-2.19-0.684-5.02-0.684c-3.212,0-5.343,0.961-5.433,1.002
		l-0.443,0.205l-0.07,0.48c-0.003,0.016-0.01,0.064-0.019,0.133h-0.007c0,0.008,0.003,0.014,0.003,0.021
		c-0.093,0.66-0.455,3.332-0.455,5.182c0,0.887,0.167,1.734,0.301,2.416c0.014,0.072,0.028,0.15,0.044,0.229
		c-1.021-0.236-2.737-0.695-5.377-2.656c5.43-6.576,6.047-14.879,6.047-18.227V-2.507h5.104v-12.904h-5.137
		C22.598-29.599,10.834-40.923-3.525-40.923c-3.059,0-5.996,0.521-8.738,1.467c-0.021,0-0.043-0.005-0.064-0.004h-0.023l2.412-2.797
		c0.486-0.564,0.424-1.418-0.143-1.904c-0.564-0.487-1.417-0.424-1.904,0.141l-2.129,2.471l-0.264-3.561
		c-0.054-0.743-0.703-1.304-1.444-1.246c-0.743,0.055-1.303,0.702-1.246,1.446l0.264,3.562l-2.474-2.13
		c-0.564-0.487-1.416-0.423-1.903,0.142s-0.424,1.418,0.142,1.904l2.594,2.234l-3.643,0.156c-0.745,0.031-1.322,0.661-1.29,1.406
		c0.03,0.725,0.628,1.292,1.347,1.292c0.02,0,0.04-0.001,0.06-0.001l3.712-0.16c-6.943,4.576-11.652,12.281-12.09,21.094h-5.137
		v12.904h5.103v19.059c0,12.986,7.057,26.861,26.86,26.861c5.943,0,11.035-1.279,15.174-3.775c2.705,3.215,7.287,6.723,14.404,6.723
		c2.213,0,9.436-0.795,9.436-11.014C35.488,32.761,35.299,30.896,34.928,29.806z M-3.525-38.224
		c12.871,0,23.419,10.115,24.122,22.812h-48.243C-26.943-28.108-16.395-38.224-3.525-38.224z M-32.789-12.712h58.528v7.505h-58.528
		V-12.712z M-23.033-2.507h39.019v19.059c0,3.688-2.995,7.494-4.272,8.951c-1.768-1.414-6.822-4.748-15.236-4.748
		c-8.417,0-13.471,3.334-15.237,4.75c-1.278-1.455-4.272-5.258-4.272-8.953V-2.507z M-27.686,16.552V-2.507h2.853v19.059
		c0,5.414,5.147,10.621,5.366,10.842c0.338,0.338,0.935,0.338,1.273,0c0.048-0.049,4.949-4.838,14.668-4.838
		c9.668,0,14.625,4.791,14.672,4.838c0.176,0.176,0.406,0.264,0.636,0.264c0.23,0,0.46-0.088,0.636-0.264
		c0.22-0.221,5.367-5.428,5.367-10.842V-2.507h2.852v19.059c0,3.059-0.557,10.646-5.468,16.555
		c-4.142-3.082-9.325-4.436-17.018-4.469c-0.212-0.135-0.505-0.266-0.839-0.266c-0.411,0-1.367,0.189-1.367,1.961
		c0,0.58,0,2.354,1.336,2.354c0.411,0,0.745-0.217,0.982-0.445c2.66,0.014,7.092,0.283,11.635,5.295
		c-3.65,2.1-8.153,3.178-13.424,3.178C-26.521,40.714-27.686,20.587-27.686,16.552z M26.053,44.56
		c-6.898,0-11.17-3.648-13.538-6.711c-0.439-0.568-0.881-1.08-1.322-1.562c0.085-0.434,0.298-1.104,0.733-1.541
		c0.455-0.455,0.846-0.752,1.105-0.928c0.648,0.416,1.271,0.867,1.872,1.367c3.832,3.199,6.226,3.746,7.513,4.041
		c0.204,0.047,0.377,0.084,0.519,0.129c0.552,0.178,1.041,0.049,1.349-0.324c0.427-0.521,0.291-1.213,0.104-2.17
		c-0.125-0.639-0.267-1.359-0.267-2.07c0-1.15,0.158-2.691,0.289-3.773c0.809,0.18,2.079,0.305,4.129,0.305
		c2.554,0,3.958-0.266,4.779-0.617c0.172,0.684,0.369,2.039,0.369,4.643C33.688,43.363,28.904,44.56,26.053,44.56z"/>
	<path d="M25.328,19.486v3.195c0,0.496,0.403,0.9,0.9,0.9c0.496,0,0.899-0.404,0.899-0.9v-3.195c0-0.498-0.403-0.9-0.899-0.9
		C25.731,18.585,25.328,18.988,25.328,19.486z"/>
	<path d="M29.378,26.902c0.497,0,0.899-0.402,0.899-0.9v-11.9c0-0.498-0.402-0.9-0.899-0.9s-0.899,0.402-0.899,0.9v11.9
		C28.479,26.5,28.881,26.902,29.378,26.902z"/>
	<path d="M32.647,23.929c0.497,0,0.899-0.404,0.899-0.9v-6.307c0-0.498-0.402-0.9-0.899-0.9s-0.899,0.402-0.899,0.9v6.307
		C31.748,23.525,32.15,23.929,32.647,23.929z"/>
	<path d="M-17.588,5.349h11.61c0.497,0,0.899-0.402,0.899-0.9V1.335c0-0.498-0.402-0.9-0.899-0.9h-11.61c-0.498,0-0.9,0.402-0.9,0.9
		v3.113C-18.488,4.947-18.086,5.349-17.588,5.349z M-16.688,2.236h9.81v1.312h-9.81V2.236z"/>
	<path d="M-0.998,5.349h11.61c0.497,0,0.9-0.402,0.9-0.9V1.335c0-0.498-0.403-0.9-0.9-0.9h-11.61c-0.497,0-0.9,0.402-0.9,0.9v3.113
		C-1.898,4.947-1.495,5.349-0.998,5.349z M-0.098,2.236h9.811v1.312h-9.811V2.236z"/>
	<path d="M0.006-24.058h0.797c0,0-0.744,1.572-1.881,1.572s-1.52-1.127-1.52-2.543c0-1.415,0-4.785,0-4.785h2.232v-1.199h-2.232
		v-1.426l0.037-0.035c0.287-0.25,0.469-0.619,0.469-1.029c0-0.752-0.61-1.364-1.364-1.364h-0.046c-0.754,0-1.365,0.612-1.365,1.364
		c0,0.41,0.182,0.779,0.47,1.029l0.037,0.035v1.426h-2.232v1.199h2.232c0,0,0,3.37,0,4.785c0,1.416-0.384,2.543-1.519,2.543
		c-1.137,0-1.881-1.572-1.881-1.572h0.796c-0.911-0.806-1.344-2.531-1.344-2.531c-0.909,0.961-1.147,3.275-1.147,3.275l0.714-0.453
		c0.567,2.344,3.214,3.243,4.021,3.667c0.805,0.425,1.229,1.406,1.229,1.406h0.026c0,0,0.425-0.981,1.23-1.406
		c0.806-0.424,3.45-1.323,4.019-3.667l0.713,0.453c0,0-0.236-2.314-1.146-3.275C1.351-26.589,0.916-24.863,0.006-24.058z"/>
</g>
</svg>
