<?xml version="1.0" encoding="utf-8"?>
<!-- Generator: Adobe Illustrator 15.1.0, SVG Export Plug-In . SVG Version: 6.00 Build 0)  -->
<!DOCTYPE svg PUBLIC "-//W3C//DTD SVG 1.1//EN" "http://www.w3.org/Graphics/SVG/1.1/DTD/svg11.dtd">
<svg version="1.1" id="Layer_1" xmlns="http://www.w3.org/2000/svg" xmlns:xlink="http://www.w3.org/1999/xlink" x="0px" y="0px"
	 width="800px" height="600px" viewBox="0 0 800 600" enable-background="new 0 0 800 600" xml:space="preserve">
<path d="M33.484-35.527H13.909l-3.452-6.91c-0.229-0.457-0.696-0.748-1.208-0.748H-8.613c-0.511,0-0.979,0.291-1.207,0.748
	l-3.451,6.91h-19.576c-0.745,0-1.35,0.604-1.35,1.35v45.921c0,0.745,0.604,1.351,1.35,1.351h13.695l-2.771,15.531l-11.658,0.839
	c-0.607,0.042-1.109,0.487-1.227,1.083c-0.119,0.596,0.176,1.198,0.721,1.471l16.498,8.25c0.346,0.174,0.75,0.189,1.109,0.043
	c0.359-0.144,0.639-0.436,0.768-0.801l9.332-26.416H6.559L5.763,30.318l-10.59,1.479c-0.583,0.081-1.045,0.531-1.144,1.111
	c-0.1,0.58,0.189,1.156,0.712,1.427l16.905,8.699c0.193,0.101,0.406,0.15,0.619,0.15c0.199,0,0.402-0.045,0.586-0.136
	c0.384-0.185,0.656-0.538,0.736-0.954l5.699-29.002h14.196c0.745,0,1.351-0.605,1.351-1.351v-45.921
	C34.834-34.924,34.229-35.527,33.484-35.527z M-7.777-40.484H8.415l2.477,4.957h-21.145L-7.777-40.484z M32.133-32.828v8.02
	l-19.377,9.689H4.219v-3.752c0-0.745-0.604-1.35-1.35-1.35h-5.103c-0.745,0-1.351,0.604-1.351,1.35v3.752h-8.535l-19.379-9.689
	v-8.02H32.133z M18.176,10.393c-0.645,0-1.199,0.456-1.322,1.09l-5.568,28.331l-11.521-5.931l7.482-1.046
	c0.644-0.09,1.133-0.626,1.162-1.274l0.912-19.758c0.018-0.367-0.117-0.728-0.373-0.995c-0.254-0.265-0.605-0.417-0.975-0.417
	H-7.333c-0.574,0-1.084,0.361-1.273,0.9l-9.143,25.875l-10.729-5.365l7.796-0.561c0.615-0.045,1.123-0.5,1.232-1.109l3.24-18.152
	c0.07-0.394-0.037-0.798-0.295-1.104c-0.256-0.309-0.635-0.484-1.035-0.484h-13.957v-32.182l18.457,9.227
	c0.188,0.094,0.395,0.143,0.604,0.143h8.854v3.753c0,0.745,0.605,1.351,1.351,1.351H2.87c0.746,0,1.35-0.605,1.35-1.351v-3.753
	h8.855c0.209,0,0.416-0.049,0.604-0.143l18.455-9.227v32.182H18.176z"/>
</svg>
