<?xml version="1.0" encoding="utf-8"?>
<!-- Generator: Adobe Illustrator 15.1.0, SVG Export Plug-In . SVG Version: 6.00 Build 0)  -->
<!DOCTYPE svg PUBLIC "-//W3C//DTD SVG 1.1//EN" "http://www.w3.org/Graphics/SVG/1.1/DTD/svg11.dtd">
<svg version="1.1" id="Layer_1" xmlns="http://www.w3.org/2000/svg" xmlns:xlink="http://www.w3.org/1999/xlink" x="0px" y="0px"
	 width="800px" height="600px" viewBox="0 0 800 600" enable-background="new 0 0 800 600" xml:space="preserve">
<g>
	<path d="M46.14-12.079c-0.303-1.805-2.35-2.371-3.943-2.455C41.511-31.751,26.472-41.597,0.681-41.597
		c-25.639,0-40.658,9.727-41.507,26.758c-1.888,0.285-3.039,0.803-4.396,2.611c-1.255,1.674-1.057,2.887-0.67,3.611
		c0.806,1.506,3.06,2.133,6.914,1.922c0.134-0.008,0.269-0.02,0.4-0.031c-0.026,0.031-0.053,0.062-0.077,0.09
		c-0.473,0.545-1.188,1.369-1.003,2.52c0.182,1.113,0.863,1.547,1.255,1.707c0.363,0.148,0.74,0.18,1.126,0.129v2.557
		c-0.832-0.23-1.266-0.377-1.289-0.385c-0.416-0.143-0.871-0.074-1.225,0.178c-0.354,0.254-0.566,0.664-0.566,1.1v6.443
		c0,0.514,0.291,0.982,0.751,1.211c0.339,0.166,8.288,4.025,25.01,5.668l-1.745,14.951l-11.775,4.031
		c-0.562,0.193-0.932,0.729-0.912,1.32c0.019,0.594,0.422,1.104,0.994,1.26l18.341,5.006c0.677,0.186,1.382-0.18,1.623-0.838
		l7.78-21.232L5.513,30.04l-6.365,9.453c-0.33,0.49-0.303,1.139,0.067,1.6c0.263,0.326,0.652,0.504,1.053,0.504
		c0.167,0,0.334-0.031,0.497-0.096l16.791-6.641c0.635-0.25,0.982-0.936,0.809-1.598l-4.852-18.551
		c18.324-1.48,27.08-5.705,27.455-5.889c0.461-0.227,0.752-0.697,0.752-1.211V1.169c0-0.436-0.211-0.846-0.566-1.1
		c-0.355-0.252-0.809-0.318-1.225-0.178c-0.027,0.01-0.688,0.232-1.975,0.57v-2.467c0.602,0.062,1.215,0.076,1.85,0.004
		c0.162-0.018,0.371-0.029,0.605-0.043c1.566-0.096,3.934-0.238,4.67-1.998c0.408-0.969,0.256-1.711,0.057-2.162
		c-0.502-1.141-1.725-1.578-2.707-1.93c-0.129-0.047-0.285-0.102-0.434-0.158c0.277-0.1,0.6-0.193,0.84-0.264
		C44.134-8.931,46.552-9.632,46.14-12.079z M0.681-38.897c11.502,0,38.023,2.418,38.832,24.557
		c-3.559,0.848-16.604,3.545-38.832,3.545c-22.226,0-35.272-2.697-38.829-3.545C-37.341-36.479-10.822-38.897,0.681-38.897z
		 M0.338,2.044L-10.015-8.31c3.292,0.133,6.851,0.213,10.696,0.213c3.568,0,6.889-0.068,9.98-0.186L0.338,2.044z M-19.01-1.347
		c2.568,1.818,5.117-0.451,6.803-1.955c0.533-0.475,1.084-0.967,1.451-1.172c0.161-0.088,0.345-0.162,0.523-0.236l8.984,8.986
		c-11.293-0.096-19.996-0.994-26.143-1.957c2.2-0.725,3.865-3.365,5.23-5.535c0.545-0.865,1.06-1.686,1.426-2.072
		c0.313-0.332,0.719-0.6,0.993-0.725c-0.03,0.221-0.119,0.541-0.179,0.758C-20.186-4.302-20.678-2.528-19.01-1.347z M-38.652-9.433
		c-0.156,0.016-0.316,0.033-0.476,0.043c-2.868,0.162-4.064-0.266-4.349-0.479c0.026-0.102,0.114-0.34,0.415-0.74
		c0.876-1.168,1.359-1.389,2.771-1.582c0.121,0.084,0.255,0.148,0.401,0.191c0.441,0.127,8.974,2.518,25.864,3.492
		c0.004,0.004,0.004,0.01,0.009,0.014l1.771,1.773c-0.572,0.352-1.151,0.859-1.76,1.404c-1.491,1.328-2.688,2.303-3.497,1.734
		c-0.041-0.148,0.099-0.65,0.182-0.951c0.24-0.863,0.569-2.049-0.155-3.152c-0.417-0.639-1.055-1.027-1.793-1.092
		c-1.651-0.154-3.146,1.334-3.428,1.633c-0.549,0.58-1.106,1.465-1.75,2.49c-1.085,1.725-2.724,4.332-4.019,4.467
		c-0.144,0.012-0.553,0.057-1.244-0.658c-0.244-0.262-0.184-1.637-0.153-2.299c0.067-1.541,0.138-3.135-1.011-4.029
		c-0.681-0.529-1.582-0.631-2.684-0.301c-0.478,0.143-0.946,0.479-1.803,1.107c-0.124,0.092-0.275,0.205-0.443,0.324
		c0.069-0.16,0.125-0.332,0.16-0.516c0.069-0.359,0.28-1.457-0.456-2.262C-36.829-9.618-37.883-9.509-38.652-9.433z M-34.578-3.599
		c0.274-0.193,0.549-0.393,0.82-0.594c0.367-0.27,0.87-0.641,0.976-0.695c0.086-0.025,0.156-0.043,0.214-0.055
		c0.064,0.404,0.03,1.18,0.009,1.678c-0.067,1.504-0.143,3.209,0.91,4.299c0.263,0.271,0.533,0.496,0.807,0.693
		c-1.45-0.271-2.694-0.533-3.735-0.773V-3.599z M39.021,6.729c-2.543,1.051-11.527,4.311-27.316,5.412
		c-0.402,0.027-0.77,0.232-1.004,0.559s-0.311,0.74-0.209,1.129L15.45,32.79l-11.631,4.6l4.383-6.51
		c0.277-0.412,0.307-0.943,0.076-1.383L0.685,15.04c-0.248-0.473-0.725-0.752-1.285-0.721c-0.533,0.037-0.994,0.381-1.178,0.883
		L-10.18,38.13l-12.906-3.523l8.424-2.885c0.492-0.168,0.844-0.604,0.905-1.121l2.004-17.168c0.042-0.361-0.064-0.727-0.295-1.008
		c-0.23-0.283-0.565-0.461-0.928-0.492c-14.19-1.254-22.294-4.211-24.681-5.201v-3.75c4.405,1.207,16.928,4.004,38.337,4.004
		c21.412,0,33.934-2.797,38.34-4.004V6.729z M35.253,1.11c-5.746,1.268-16.82,3.08-33.332,3.168l7.975-7.975
		c0.379,0.096,1.018,0.377,1.641,0.652c1.262,0.559,2.902,1.285,4.34,1.285c1.018,0,1.934-0.365,2.539-1.41
		c0.305-0.527,0.33-1.092,0.35-1.504c0.004-0.066,0.006-0.146,0.012-0.219c0.156-0.021,0.475-0.023,1.047,0.117
		c0.43,0.107,1.082,0.555,1.713,0.988c1.49,1.023,3.74,2.57,5.783,0.836c0.602-0.512,0.865-1.08,1.041-1.455
		c0.051-0.109,0.119-0.258,0.139-0.285c0,0,0.051-0.033,0.207-0.062c0.666-0.131,1.725,0.336,2.658,0.752
		c0.496,0.221,0.965,0.428,1.434,0.582c0.334,0.109,0.668,0.225,1.002,0.34c0.48,0.166,0.963,0.332,1.453,0.484V1.11z M38.892-8.788
		c-0.496,2.078,1.613,2.834,2.627,3.195c0.33,0.119,0.846,0.303,1.084,0.455c-0.398,0.279-1.863,0.367-2.355,0.396
		c-0.289,0.018-0.547,0.035-0.746,0.059c-1.562,0.172-3.145-0.371-4.82-0.949c-0.35-0.119-0.697-0.24-1.043-0.354
		C33.3-6.095,32.892-6.276,32.46-6.468c-1.305-0.58-2.781-1.236-4.289-0.934c-1.539,0.312-1.99,1.279-2.258,1.855
		c-0.129,0.277-0.197,0.414-0.342,0.537c-0.4,0.34-1.096-0.035-2.506-1.004c-0.83-0.568-1.689-1.158-2.594-1.383
		c-1.709-0.42-2.977-0.193-3.771,0.678c-0.574,0.633-0.609,1.408-0.633,1.922c-0.004,0.094-0.01,0.229-0.02,0.311
		c-0.498,0.262-2.615-0.672-3.42-1.029c-0.221-0.096-0.432-0.189-0.637-0.277l2.672-2.674c15.672-0.854,24.334-2.936,26.209-3.43
		c0.166,0.055,0.344,0.078,0.525,0.062c0.727-0.062,1.568,0.072,1.963,0.242c-0.305,0.162-0.895,0.332-1.277,0.443
		C40.825-10.784,39.261-10.331,38.892-8.788z"/>
	<path d="M-28.955-18.999l-3.595-1.693c-0.45-0.215-0.987-0.02-1.198,0.43c-0.212,0.449-0.02,0.984,0.43,1.197l3.595,1.695
		c0.124,0.059,0.255,0.086,0.383,0.086c0.338,0,0.662-0.191,0.815-0.518C-28.313-18.251-28.505-18.786-28.955-18.999z"/>
	<path d="M-23.317-28.433l-2.156,3.068c-0.286,0.406-0.188,0.967,0.219,1.254c0.157,0.111,0.338,0.164,0.517,0.164
		c0.283,0,0.562-0.135,0.737-0.383l2.157-3.068c0.285-0.406,0.188-0.967-0.22-1.254C-22.469-28.937-23.03-28.837-23.317-28.433z"/>
	<path d="M-17.982-19.462c-0.301-0.395-0.865-0.475-1.261-0.17c-0.396,0.301-0.472,0.865-0.17,1.262l1.294,1.695
		c0.177,0.232,0.444,0.355,0.716,0.355c0.19,0,0.383-0.061,0.545-0.186c0.396-0.301,0.472-0.865,0.17-1.262L-17.982-19.462z"/>
	<path d="M-12.019-27.79c-0.488-0.055-0.944,0.287-1.008,0.779l-0.523,4.098c-0.062,0.492,0.285,0.943,0.778,1.008
		c0.039,0.004,0.078,0.006,0.115,0.006c0.446,0,0.834-0.332,0.893-0.785l0.523-4.098C-11.178-27.276-11.526-27.726-12.019-27.79z"/>
	<path d="M0.731-29.827c0.164,0.131,0.361,0.193,0.557,0.193c0.266,0,0.529-0.117,0.707-0.342c0.309-0.391,0.242-0.957-0.148-1.264
		l-2.731-2.158c-0.39-0.309-0.956-0.242-1.264,0.146C-2.457-32.86-2.391-32.294-2-31.987L0.731-29.827z"/>
	<path d="M-9.484-19.595c-0.311-0.387-0.876-0.449-1.266-0.141c-0.388,0.312-0.45,0.879-0.139,1.266l2.902,3.619
		c0.179,0.221,0.439,0.336,0.703,0.336c0.196,0,0.396-0.064,0.562-0.197c0.388-0.312,0.45-0.879,0.139-1.266L-9.484-19.595z"/>
	<path d="M1.868-24.81c-0.303-0.396-0.867-0.471-1.262-0.168l-3.825,2.928c-0.396,0.303-0.47,0.867-0.168,1.262
		c0.178,0.232,0.445,0.354,0.716,0.354c0.19,0,0.383-0.061,0.546-0.186L1.7-23.55C2.097-23.851,2.171-24.415,1.868-24.81z"/>
	<path d="M1.519-18.55c-0.266,0.418-0.143,0.975,0.277,1.242l4.162,2.652c0.148,0.096,0.316,0.141,0.482,0.141
		c0.297,0,0.588-0.146,0.76-0.416c0.268-0.42,0.145-0.977-0.275-1.244l-4.162-2.652C2.345-19.091,1.788-18.97,1.519-18.55z"/>
	<path d="M12.132-27.448l-2.699,6.67c-0.188,0.461,0.035,0.986,0.496,1.172c0.111,0.045,0.225,0.066,0.338,0.066
		c0.355,0,0.691-0.213,0.834-0.562l2.699-6.672c0.188-0.459-0.035-0.984-0.496-1.17C12.843-28.132,12.319-27.909,12.132-27.448z"/>
	<path d="M6.337-33.571l5.174,0.602c0.037,0.006,0.072,0.008,0.105,0.008c0.451,0,0.84-0.338,0.895-0.797
		c0.057-0.494-0.297-0.941-0.789-0.998L6.546-35.36c-0.512-0.061-0.941,0.297-0.998,0.789C5.489-34.077,5.843-33.63,6.337-33.571z"
		/>
	<path d="M26.407-20.731l7.199,3.336c0.123,0.059,0.252,0.084,0.379,0.084c0.34,0,0.666-0.193,0.816-0.521
		c0.211-0.451,0.014-0.986-0.438-1.195l-7.199-3.336c-0.453-0.211-0.986-0.012-1.195,0.438
		C25.761-21.476,25.956-20.94,26.407-20.731z"/>
	<path d="M19.716-21.056c-0.496,0-0.9,0.402-0.9,0.9v4.176c0,0.498,0.404,0.9,0.9,0.9c0.498,0,0.9-0.402,0.9-0.9v-4.176
		C20.616-20.653,20.214-21.056,19.716-21.056z"/>
	<path d="M19.136-28.556h3.506c0.498,0,0.9-0.402,0.9-0.9s-0.402-0.9-0.9-0.9h-3.506c-0.496,0-0.9,0.402-0.9,0.9
		S18.64-28.556,19.136-28.556z"/>
	<path d="M-7.862-34.688c-0.124-0.482-0.614-0.773-1.096-0.648l-7.999,2.049c-0.482,0.123-0.772,0.613-0.649,1.096
		c0.104,0.406,0.471,0.676,0.871,0.676c0.074,0,0.149-0.008,0.225-0.027l8-2.051C-8.029-33.718-7.739-34.208-7.862-34.688z"/>
</g>
</svg>
