<?xml version="1.0" encoding="utf-8"?>
<!-- Generator: Adobe Illustrator 15.1.0, SVG Export Plug-In . SVG Version: 6.00 Build 0)  -->
<!DOCTYPE svg PUBLIC "-//W3C//DTD SVG 1.1//EN" "http://www.w3.org/Graphics/SVG/1.1/DTD/svg11.dtd">
<svg version="1.1" id="Layer_1" xmlns="http://www.w3.org/2000/svg" xmlns:xlink="http://www.w3.org/1999/xlink" x="0px" y="0px"
	 width="800px" height="600px" viewBox="0 0 800 600" enable-background="new 0 0 800 600" xml:space="preserve">
<g>
	<path d="M35.188-20.544c-0.062,0-0.123,0.002-0.184,0.004c-3.135-7.695-10.646-12.799-19.01-12.799
		c-6.258,0-12.107,2.832-15.994,7.658c-3.888-4.826-9.736-7.658-15.992-7.658c-8.362,0-15.876,5.104-19.01,12.799
		c-0.061-0.002-0.122-0.004-0.184-0.004c-11.327,0-20.543,9.217-20.543,20.544s9.216,20.544,20.543,20.544
		c0.062,0,0.123-0.002,0.184-0.004c3.134,7.695,10.647,12.799,19.01,12.799c6.256,0,12.104-2.832,15.992-7.659
		c3.887,4.827,9.736,7.659,15.994,7.659c8.363,0,15.875-5.104,19.01-12.799c0.061,0.002,0.121,0.004,0.184,0.004
		c11.326,0,20.541-9.217,20.541-20.544S46.514-20.544,35.188-20.544z M35.188,17.843c-0.221,0-0.438-0.016-0.654-0.029l-0.373-0.024
		c-0.598-0.022-1.145,0.337-1.344,0.903c-2.502,7.146-9.264,11.946-16.822,11.946c-5.988,0-11.545-2.987-14.869-7.989
		C0.874,22.272,0.452,22.046,0,22.046s-0.874,0.227-1.124,0.604c-3.323,5.002-8.881,7.989-14.868,7.989
		c-7.559,0-14.319-4.803-16.823-11.948c-0.198-0.564-0.744-0.93-1.344-0.901l-0.373,0.024c-0.217,0.014-0.434,0.029-0.653,0.029
		c-9.839,0-17.843-8.004-17.843-17.843s8.004-17.844,17.843-17.844c0.22,0,0.437,0.016,0.653,0.032l0.373,0.022
		c0.6,0.026,1.146-0.338,1.344-0.901c2.504-7.146,9.265-11.948,16.823-11.948c5.987,0,11.545,2.986,14.868,7.989
		c0.5,0.752,1.748,0.752,2.249,0c3.324-5.003,8.881-7.989,14.869-7.989c7.559,0,14.32,4.802,16.822,11.948
		c0.199,0.563,0.746,0.93,1.344,0.901l0.373-0.022c0.217-0.017,0.434-0.032,0.654-0.032c9.838,0,17.842,8.005,17.842,17.844
		S45.025,17.843,35.188,17.843z"/>
	<path d="M12.051-6.817c2.473,0,4.486-2.011,4.486-4.485c0-2.472-2.014-4.484-4.486-4.484s-4.484,2.013-4.484,4.484
		C7.566-8.828,9.578-6.817,12.051-6.817z"/>
	<path d="M26.051-6.817c2.475,0,4.486-2.011,4.486-4.485c0-2.472-2.012-4.484-4.486-4.484c-2.473,0-4.484,2.013-4.484,4.484
		C21.566-8.828,23.578-6.817,26.051-6.817z"/>
	<path d="M30.377-2.556H7.727H7.275H6.826c0,6.74,5.484,12.225,12.225,12.225c6.742,0,12.227-5.484,12.227-12.225h-0.449H30.377z"/>
</g>
</svg>
