<?xml version="1.0" encoding="utf-8"?>
<!-- Generator: Adobe Illustrator 15.1.0, SVG Export Plug-In . SVG Version: 6.00 Build 0)  -->
<!DOCTYPE svg PUBLIC "-//W3C//DTD SVG 1.1//EN" "http://www.w3.org/Graphics/SVG/1.1/DTD/svg11.dtd">
<svg version="1.1" id="Layer_1" xmlns="http://www.w3.org/2000/svg" xmlns:xlink="http://www.w3.org/1999/xlink" x="0px" y="0px"
	 width="800px" height="600px" viewBox="0 0 800 600" enable-background="new 0 0 800 600" xml:space="preserve">
<g>
	<path d="M3.222,20.873c-0.704-0.619-1.502-1.322-2.654-1.418c-1.47-0.121-2.524,0.365-2.97,0.623
		c-0.452-0.27-1.541-0.785-2.988-0.621c-1.134,0.129-1.945,0.817-2.663,1.424c-0.491,0.416-0.955,0.811-1.413,0.908l-0.486,0.105
		l0.224,0.445c0.078,0.156,1.982,3.83,7.325,3.83c5.342,0,7.244-3.674,7.323-3.83l0.234-0.466l-0.516-0.087
		C4.171,21.708,3.71,21.302,3.222,20.873z"/>
	<path d="M-5.343,5.732c0-0.746-0.604-1.351-1.351-1.351h-7.049c-0.745,0-1.35,0.604-1.35,1.351c0,0.744,0.604,1.35,1.35,1.35h7.049
		C-5.948,7.082-5.343,6.476-5.343,5.732z"/>
	<path d="M8.932,4.381h-7.05c-0.745,0-1.351,0.604-1.351,1.351c0,0.744,0.605,1.35,1.351,1.35h7.05c0.745,0,1.35-0.605,1.35-1.35
		C10.282,4.986,9.677,4.381,8.932,4.381z"/>
	<path d="M50.475-5.772c-0.404-1.848-1.79-3.225-3.774-4.248L-9.553-42.639c-0.604-0.35-1.377-0.182-1.78,0.39l-37.864,53.657
		c-0.01,0.016-0.017,0.031-0.026,0.045c-1.099,1.584-1.615,3.223-1.255,4.867c1.021,4.658,8.271,6.345,15.686,6.82l12.281,10.192
		c4.755,5.825,11.971,9.489,19.888,9.489c11.879,0,21.896-8.116,24.804-19.094l8.575-12.85C40.075,7.002,51.897,0.722,50.475-5.772z
		 M-10.034-36.361l4.547,20.78c-3.149,0.738-6.144,1.553-8.937,2.401L-10.034-36.361z M-16.371-12.571
		c-2.927,0.934-5.61,1.888-8.021,2.812l12.209-24.926L-16.371-12.571z M-8.322-36.963L5.21-17.643
		c-3.089,0.463-6.077,1.025-8.942,1.659L-8.322-36.963z M-5.257-35.726l20.563,16.995c-2.757,0.181-5.461,0.449-8.097,0.803
		L-5.257-35.726z M-1.063-34.594l27.046,15.682c-2.712-0.088-5.391-0.072-8.025,0.037L-1.063-34.594z M-26.874-8.782
		c-2.806,1.135-5.13,2.177-6.899,3.014l17.728-25.121L-26.874-8.782z M-35.944-2.69c1.295-0.674,4.022-2.032,7.878-3.658
		l-3.009,6.144c-3.117,1.31-6.823,3.034-10.169,5.025L-35.944-2.69z M-27.414-1.67c-0.001,0-0.002,0-0.003,0
		c-0.361,0.139-0.752,0.289-1.156,0.447l3.014-6.152c2.577-1.027,5.528-2.119,8.809-3.189l-1.065,5.625
		C-21.169-3.914-24.396-2.821-27.414-1.67z M-14.801-11.184c3.008-0.936,6.255-1.835,9.698-2.644l1.146,5.235
		c-4.064,0.908-8.07,1.937-11.915,3.064L-14.801-11.184z M-2.199-8.977l-1.149-5.255c3.1-0.686,6.35-1.282,9.714-1.763l3.396,4.848
		C5.839-10.569,1.822-9.838-2.199-8.977z M11.763-11.426l-3.391-4.843c2.914-0.365,5.905-0.64,8.962-0.786l5.471,4.521
		c-0.404,0.024-0.805,0.047-1.215,0.075C18.447-12.237,15.147-11.885,11.763-11.426z M29.55-12.754c-1.313,0-2.68,0.031-4.084,0.085
		l-5.418-4.478c3.062-0.071,6.18-0.006,9.334,0.207l7.846,4.549C34.684-12.657,32.04-12.754,29.55-12.754z M-31.818,23.273
		c0.768,0.02,1.528,0.027,2.274,0.027c0.001,0,0.002,0,0.003,0c0.654,0,1.339-0.018,2.016-0.031c0.432,1.77,1.03,3.467,1.804,5.062
		L-31.818,23.273z M-2.625,40.121c-10.931,0-20.402-7.772-22.521-18.479l0,0c-0.292-1.477-0.439-2.984-0.439-4.481V0.525
		c6.93-2.582,14.888-4.887,23.083-6.682c7.845-1.715,15.706-2.919,22.838-3.498v22.496v4.319
		C20.335,29.82,10.036,40.121-2.625,40.121z M22.935,19.353c0.062-0.725,0.101-1.454,0.101-2.192v-3.354
		c1.294-0.445,2.931-1.033,4.764-1.743L22.935,19.353z"/>
	<path d="M-8.917,29.382c-0.676,0-1.222,0.547-1.222,1.223c0,0.673,0.546,1.219,1.222,1.219c0.672,0,1.221-0.546,1.221-1.219
		C-7.697,29.929-8.246,29.382-8.917,29.382z"/>
</g>
</svg>
