<?xml version="1.0" encoding="utf-8"?>
<!-- Generator: Adobe Illustrator 15.1.0, SVG Export Plug-In . SVG Version: 6.00 Build 0)  -->
<!DOCTYPE svg PUBLIC "-//W3C//DTD SVG 1.1//EN" "http://www.w3.org/Graphics/SVG/1.1/DTD/svg11.dtd">
<svg version="1.1" id="Layer_1" xmlns="http://www.w3.org/2000/svg" xmlns:xlink="http://www.w3.org/1999/xlink" x="0px" y="0px"
	 width="800px" height="600px" viewBox="0 0 800 600" enable-background="new 0 0 800 600" xml:space="preserve">
<g>
	<path d="M37.8-3.349c-0.65-4.205-2.643-7.48-4.098-9.871c-0.531-0.875-1.07-1.766-1.357-2.428c0.16-0.041,0.32-0.076,0.48-0.115
		c0.715-0.182,1.152-0.902,0.982-1.619l-5.652-23.91c-0.111-0.467-0.461-0.84-0.918-0.98c-7.18-2.199-14.84-3.314-22.771-3.314
		c-21.627,0-38.068,8.094-38.758,8.439c-0.43,0.215-0.713,0.641-0.744,1.119l-1.617,24.516c-0.047,0.723,0.484,1.354,1.203,1.432
		c0.037,0.004,0.207,0.021,0.475,0.047c-0.201,0.957-0.811,2.172-1.369,3.281c-0.545,1.078-1.107,2.195-1.402,3.244
		c-0.465,1.646-0.141,3.369,0.887,4.727C-36.07,2.26-35,2.881-33.994,2.881c0.66,0,1.496-0.33,2.32-0.773
		c-0.416,2.732-0.66,6.111-0.512,8.307c-0.652,0.096-1.156,0.652-1.156,1.33c0,0.346,0.047,8.533,4.129,16.844
		c3.809,7.754,11.955,17,29.141,17c32.885,0,33.266-33.504,33.266-33.844c0-0.648-0.459-1.189-1.068-1.32
		c0.07-2.15-0.176-5.383-0.564-8.25c1.156,0.605,2.51,1.016,3.791,0.656C36.837,2.411,38.47,1.001,37.8-3.349z M11.868,0.474
		L5.425-5.97C6.21-6.593,7.191-6.98,8.267-6.98c2.543,0,4.611,2.068,4.611,4.611C12.878-1.292,12.491-0.312,11.868,0.474z
		 M12.731-6.958c-1.156-1.125-2.729-1.82-4.465-1.82c-1.779,0-3.389,0.729-4.551,1.902h-7.424c-1.161-1.174-2.77-1.902-4.55-1.902
		c-1.998,0-3.785,0.92-4.963,2.359l-13.633-3.137c2.049,0.068,4.416,0.117,7.082,0.117h0.004c11.102,0,27.438-0.854,45.256-4.625
		L12.731-6.958z M-4.665,0.483l-6.445-6.445c0.787-0.627,1.77-1.018,2.852-1.018c2.543,0,4.611,2.068,4.611,4.611
		C-3.647-1.286-4.038-0.304-4.665,0.483z M-32.394-35.058c3.332-1.516,18.32-7.83,36.859-7.83c7.391,0,14.533,1,21.24,2.975
		l5.166,21.854c-19.869,4.885-38.449,5.922-50.645,5.922c-6.354,0-11.111-0.283-13.555-0.469c-0.127-0.029-0.258-0.041-0.393-0.031
		c-0.049-0.004-0.105-0.008-0.152-0.012L-32.394-35.058z M-0.073,42.888c-24.941,0-29.533-20.406-30.377-28.201l10.342,10.68
		c0.176,0.184,0.412,0.275,0.646,0.275c0.227,0,0.451-0.084,0.627-0.254c0.357-0.346,0.365-0.916,0.02-1.271L-28.84,13.762
		l16.008,5.336c0.094,0.031,0.189,0.047,0.283,0.047c0.377,0,0.729-0.238,0.854-0.615c0.158-0.473-0.098-0.982-0.568-1.139
		l-13.701-4.568c6.621-0.502,17.416-1.943,25.893-6.068c8.475,4.125,19.27,5.566,25.889,6.068L12.114,17.39
		c-0.471,0.156-0.725,0.666-0.568,1.139c0.127,0.377,0.477,0.615,0.854,0.615c0.094,0,0.189-0.016,0.285-0.047l15.924-5.309
		l-10.207,10.32c-0.35,0.354-0.348,0.922,0.006,1.273c0.176,0.172,0.404,0.26,0.633,0.26c0.232,0,0.465-0.09,0.641-0.268
		l10.625-10.742C29.478,22.384,24.923,42.888-0.073,42.888z M34.62,0.229c-0.984,0.27-2.961-1.059-3.99-2.047
		c-0.428-0.412-1.072-0.496-1.59-0.211c-0.518,0.285-0.791,0.875-0.672,1.455c0.674,3.275,1.139,8.311,1.059,10.896
		c-5.488-0.242-19.18-1.34-28.889-6.281c-0.385-0.195-0.84-0.195-1.225,0c-9.658,4.916-23.285,6.027-28.822,6.277
		c-0.102-2.201,0.17-7.809,1.119-10.752c0.182-0.562-0.025-1.18-0.512-1.52c-0.484-0.34-1.135-0.324-1.604,0.041
		c-1.346,1.049-3.018,2.047-3.473,2.092c-0.104-0.016-0.496-0.219-0.838-0.746c-0.25-0.385-0.623-1.18-0.332-2.211
		c0.223-0.799,0.703-1.752,1.213-2.762c0.578-1.145,1.156-2.312,1.477-3.459l18.27,4.201c-0.309,0.75-0.48,1.568-0.48,2.428
		c0,3.535,2.875,6.41,6.41,6.41c3.535,0,6.41-2.875,6.41-6.41c0-0.969-0.223-1.885-0.607-2.709h4.92
		C2.079-4.255,1.857-3.339,1.857-2.37c0,3.535,2.875,6.41,6.41,6.41c3.535,0,6.412-2.875,6.412-6.41
		c0-1.145-0.307-2.219-0.834-3.148l16.074-8.953c0.357,0.807,0.881,1.672,1.477,2.652c1.412,2.32,3.168,5.207,3.736,8.881
		C35.298-1.854,35.454-0.005,34.62,0.229z"/>
	<path d="M2.888,19.245h-5.77c-0.744,0-1.35,0.604-1.35,1.35c0,0.744,0.605,1.35,1.35,1.35h5.77c0.746,0,1.35-0.605,1.35-1.35
		C4.237,19.849,3.634,19.245,2.888,19.245z"/>
	<path d="M2.888,13.761h-5.77c-0.744,0-1.35,0.604-1.35,1.35c0,0.744,0.605,1.35,1.35,1.35h5.77c0.746,0,1.35-0.605,1.35-1.35
		C4.237,14.364,3.634,13.761,2.888,13.761z"/>
</g>
</svg>
