<?xml version="1.0" encoding="utf-8"?>
<!-- Generator: Adobe Illustrator 15.1.0, SVG Export Plug-In . SVG Version: 6.00 Build 0)  -->
<!DOCTYPE svg PUBLIC "-//W3C//DTD SVG 1.1//EN" "http://www.w3.org/Graphics/SVG/1.1/DTD/svg11.dtd">
<svg version="1.1" id="Layer_1" xmlns="http://www.w3.org/2000/svg" xmlns:xlink="http://www.w3.org/1999/xlink" x="0px" y="0px"
	 width="800px" height="600px" viewBox="0 0 800 600" enable-background="new 0 0 800 600" xml:space="preserve">
<g>
	<path d="M39.75,33.447c-0.176-0.725-0.905-1.17-1.631-0.994l-18.522,4.488L7.893-11.334c-0.176-0.724-0.906-1.169-1.631-0.993
		s-1.169,0.905-0.994,1.629l12.341,50.901l21.147-5.127C39.48,34.9,39.926,34.171,39.75,33.447z"/>
	<path d="M17.433,14.828L17.433,14.828l1.927,7.949l0,0l2.525,10.412l13.152-3.188l-2.949-12.164v0.002l-1.08-4.449h0.002
		L26.646-4.604l0,0l0,0l-0.211-0.874l-0.875,0.212c-0.002,0-0.002,0-0.002,0s-0.002,0.002-0.003,0.002L13.283-2.29L17.433,14.828z
		 M15.457-0.964l8.795-2.133c-0.871,2.151-2.447,6.516-5.574,15.418L15.457-0.964z M29.656,20.281l-6.707,9.662l-1.841-7.59
		L29.656,20.281z M24.637,30.669l6.455-9.303l1.771,7.309L24.637,30.669z M30.338,18.261l-8.916,2.164l-0.737,0.178l-1.078-4.449
		l9.653-2.34L30.338,18.261z M28.24,12.208l-8.322,2.016c1.848-5.256,4.287-12.105,5.635-15.704l3.283,13.543L28.24,12.208z"/>
	<path d="M19.245,41.474c-0.661,0.16-1.22,0.57-1.573,1.15c-0.354,0.58-0.461,1.264-0.301,1.922
		c0.277,1.146,1.294,1.947,2.472,1.947c0.201,0,0.403-0.023,0.601-0.072c0.66-0.16,1.22-0.568,1.574-1.148
		c0.354-0.58,0.46-1.264,0.301-1.924C21.992,42.007,20.597,41.148,19.245,41.474z"/>
	<path d="M5.963-13.56c1.365-0.33,2.206-1.709,1.875-3.072c-0.324-1.342-1.723-2.201-3.074-1.874
		c-0.66,0.16-1.219,0.569-1.572,1.149s-0.461,1.264-0.301,1.924c0.277,1.146,1.293,1.947,2.473,1.947
		C5.564-13.485,5.766-13.511,5.963-13.56z"/>
	<path d="M-1.716-16.687c-2.433,1.895-4.71,2.58-6.586,1.984c-1.651-0.525-2.971-2.059-3.621-4.208
		c-0.388-1.284-0.63-2.401-0.842-3.386c-0.724-3.357-1.452-5.168-4.517-5.984c2.566-1.855,4.137-4.848,4.137-8.105v-2.658
		c0.127,0.039,0.26,0.066,0.4,0.066h4.59c0.746,0,1.35-0.604,1.35-1.35c0-0.746-0.604-1.35-1.35-1.35h-4.59
		c-0.141,0-0.273,0.027-0.4,0.066v-4.883h-19.953l-0.066,10.108c0,3.307,1.594,6.273,4.135,8.106
		c-5.703,1.411-6.391,5.622-6.391,13.555v36.595l-4.334,18.965c-0.162,0.707,0.266,1.416,0.967,1.604l13.414,3.584
		c0.115,0.033,0.232,0.047,0.349,0.047c0.435,0,0.852-0.211,1.108-0.578c0.324-0.469,0.321-1.088-0.008-1.553l-5.467-7.707
		l6.112-17.051l3.462,24.451c0.094,0.668,0.664,1.16,1.336,1.16h13.723c0.584,0,1.1-0.373,1.283-0.928
		c0.182-0.555-0.014-1.164-0.483-1.508l-7.443-5.479l-1.275-46.237c-0.021-0.745-0.638-1.325-1.388-1.312
		c-0.744,0.021-1.332,0.641-1.311,1.387l1.292,46.897c0.013,0.416,0.214,0.803,0.55,1.049l4.663,3.432h-8.438l-4.062-28.695
		c-0.004-0.025-0.012-0.047-0.017-0.07c-0.009-0.045-0.021-0.09-0.034-0.137c-0.013-0.041-0.027-0.082-0.045-0.123
		c-0.016-0.039-0.033-0.074-0.053-0.113c-0.021-0.041-0.045-0.08-0.07-0.119c-0.021-0.033-0.047-0.064-0.071-0.096
		c-0.03-0.037-0.061-0.072-0.093-0.105c-0.029-0.027-0.058-0.053-0.088-0.08c-0.037-0.031-0.076-0.061-0.117-0.088
		c-0.031-0.02-0.061-0.039-0.094-0.057c-0.048-0.027-0.098-0.049-0.148-0.07c-0.018-0.008-0.033-0.018-0.051-0.025
		c-0.014-0.006-0.027-0.006-0.042-0.01c-0.053-0.018-0.107-0.031-0.163-0.041c-0.035-0.008-0.07-0.012-0.105-0.016
		c-0.048-0.006-0.096-0.008-0.145-0.008c-0.045,0-0.09,0.002-0.134,0.006c-0.019,0.002-0.036,0-0.056,0.004
		c-0.024,0.004-0.047,0.012-0.068,0.016c-0.047,0.008-0.092,0.02-0.137,0.033c-0.041,0.014-0.083,0.027-0.123,0.045
		c-0.039,0.018-0.078,0.035-0.115,0.055c-0.041,0.021-0.078,0.043-0.114,0.068c-0.036,0.023-0.07,0.049-0.104,0.076
		c-0.033,0.027-0.064,0.055-0.096,0.086s-0.061,0.064-0.088,0.098c-0.028,0.033-0.055,0.068-0.08,0.104
		c-0.021,0.035-0.045,0.07-0.064,0.109c-0.024,0.041-0.045,0.086-0.062,0.131c-0.01,0.021-0.021,0.039-0.029,0.061l-8.193,22.855
		c-0.148,0.414-0.086,0.877,0.17,1.236l3.709,5.229l-8.541-2.283l4.079-17.844c0-0.004,0-0.01,0.002-0.014
		c0.009-0.043,0.011-0.088,0.016-0.133c0.005-0.047,0.015-0.096,0.015-0.143c0-0.004,0.002-0.006,0.002-0.012v-36.748
		c0-9.538,0.746-11.407,9.317-11.407c7.048,0,7.192,0.674,7.997,4.406c0.224,1.035,0.477,2.207,0.897,3.598
		c0.911,3.015,2.875,5.199,5.387,5.998c1.928,0.613,5.063,0.689,9.063-2.426c0.588-0.459,0.693-1.309,0.235-1.895
		C-0.279-17.04-1.128-17.146-1.716-16.687z M-30.415-43.794h14.571v7.408c0,2.938-1.749,5.58-4.457,6.73
		c-1.414,0.603-3.023,0.74-4.533,0.385c-3.314-0.779-5.631-3.705-5.631-7.107L-30.415-43.794z"/>
</g>
</svg>
