<?xml version="1.0" encoding="utf-8"?>
<!-- Generator: Adobe Illustrator 15.1.0, SVG Export Plug-In . SVG Version: 6.00 Build 0)  -->
<!DOCTYPE svg PUBLIC "-//W3C//DTD SVG 1.1//EN" "http://www.w3.org/Graphics/SVG/1.1/DTD/svg11.dtd">
<svg version="1.1" id="Layer_1" xmlns="http://www.w3.org/2000/svg" xmlns:xlink="http://www.w3.org/1999/xlink" x="0px" y="0px"
	 width="800px" height="600px" viewBox="0 0 800 600" enable-background="new 0 0 800 600" xml:space="preserve">
<g>
	<path d="M0-26.98c-10.021,0-18.176,8.154-18.176,18.176C-18.176,1.219-10.021,9.371,0,9.371c10.023,0,18.176-8.152,18.176-18.176
		C18.176-18.826,10.023-26.98,0-26.98z M0,6.67c-8.533,0-15.477-6.941-15.477-15.475S-8.533-24.281,0-24.281
		s15.476,6.943,15.476,15.477S8.533,6.67,0,6.67z"/>
	<path d="M37.543-15.57c-0.16-0.498-0.594-0.859-1.111-0.926l-4.945-0.635l-3.346-8.074l2.963-4.072
		c0.298-0.408,0.342-0.949,0.115-1.4c-0.127-0.254-3.191-6.256-9.455-9.461c-0.465-0.236-1.026-0.184-1.439,0.135l-3.947,3.047
		l-8.075-3.344l-0.786-4.975c-0.078-0.498-0.428-0.912-0.906-1.07c-0.121-0.039-3.001-0.982-6.889-0.982
		c-2.297,0-4.479,0.33-6.486,0.98c-0.498,0.158-0.858,0.594-0.926,1.111l-0.636,4.945l-8.073,3.346l-4.071-2.963
		c-0.407-0.297-0.948-0.34-1.399-0.113c-0.254,0.125-6.259,3.188-9.463,9.453c-0.236,0.465-0.185,1.025,0.135,1.439l3.047,3.945
		l-3.344,8.076l-4.975,0.785c-0.498,0.078-0.911,0.43-1.071,0.908c-0.089,0.27-2.167,6.682-0.003,13.375
		c0.161,0.498,0.594,0.855,1.112,0.922l4.946,0.639l3.344,8.074l-2.963,4.072c-0.297,0.408-0.34,0.947-0.113,1.398
		c0.127,0.254,3.191,6.258,9.454,9.461c0.465,0.238,1.026,0.186,1.439-0.133l3.947-3.049l2.751,1.139
		c-0.225,2.518-1.023,9.881-1.6,15.064l-11.695,4.303c-0.557,0.205-0.914,0.748-0.882,1.34c0.032,0.594,0.446,1.094,1.021,1.236
		l18.45,4.59c0.681,0.17,1.378-0.209,1.604-0.873L0.567,24.74l6.054,10.914l-6.149,9.598c-0.319,0.496-0.276,1.145,0.104,1.598
		c0.262,0.311,0.644,0.479,1.031,0.479c0.178,0,0.355-0.033,0.526-0.105l16.634-7.02c0.634-0.268,0.965-0.969,0.77-1.629
		l-5.53-18.693l2.301-0.611l4.163,3.029c0.409,0.297,0.949,0.342,1.4,0.115c0.254-0.127,6.258-3.191,9.461-9.455
		c0.238-0.465,0.186-1.025-0.134-1.439L28.15,7.572l3.345-8.076l4.974-0.783c0.5-0.078,0.912-0.43,1.072-0.906
		C37.63-2.465,39.711-8.875,37.543-15.57z M35.189-3.818l-4.862,0.766c-0.464,0.074-0.858,0.385-1.037,0.818l-3.933,9.496
		c-0.186,0.447-0.117,0.959,0.178,1.342l2.988,3.869c-2.23,3.85-5.697,6.238-7.166,7.131l-3.98-2.896
		c-0.33-0.238-0.748-0.316-1.143-0.213l-4.262,1.135c-0.354,0.094-0.652,0.324-0.831,0.643s-0.221,0.695-0.116,1.045l5.58,18.869
		L5.094,43.043l4.234-6.609c0.269-0.418,0.285-0.949,0.045-1.383l-7.92-14.283c-0.259-0.465-0.77-0.736-1.301-0.688
		c-0.531,0.047-0.986,0.402-1.158,0.908L-8.885,44.1l-12.982-3.23l8.356-3.072c0.479-0.176,0.819-0.611,0.876-1.119
		c1.869-16.773,1.797-17.09,1.732-17.371c-0.098-0.426-0.396-0.777-0.798-0.945l-4.366-1.809c-0.447-0.186-0.959-0.117-1.342,0.178
		l-3.871,2.988c-3.848-2.23-6.238-5.697-7.13-7.166l2.896-3.98c0.276-0.379,0.336-0.877,0.155-1.311l-3.933-9.496
		c-0.186-0.447-0.596-0.762-1.076-0.822l-4.848-0.625c-1.145-4.299-0.383-8.441,0.025-10.109l4.861-0.768
		c0.465-0.072,0.856-0.381,1.037-0.816l3.933-9.496c0.186-0.447,0.118-0.959-0.179-1.342l-2.987-3.869
		c2.231-3.85,5.698-6.238,7.169-7.131l3.978,2.895c0.38,0.277,0.877,0.336,1.312,0.156l9.496-3.934
		c0.445-0.184,0.76-0.594,0.822-1.074l0.623-4.85c1.514-0.402,3.141-0.607,4.846-0.607c2.316,0,4.248,0.383,5.264,0.633l0.769,4.861
		c0.073,0.467,0.384,0.857,0.817,1.037l9.496,3.934c0.446,0.186,0.957,0.117,1.341-0.18l3.87-2.988
		c3.849,2.232,6.239,5.697,7.131,7.168l-2.896,3.979c-0.276,0.383-0.336,0.877-0.155,1.312l3.933,9.496
		c0.185,0.447,0.597,0.76,1.075,0.822l4.849,0.623C36.359-9.629,35.598-5.488,35.189-3.818z"/>
</g>
</svg>
