<?xml version="1.0" encoding="utf-8"?>
<!-- Generator: Adobe Illustrator 15.1.0, SVG Export Plug-In . SVG Version: 6.00 Build 0)  -->
<!DOCTYPE svg PUBLIC "-//W3C//DTD SVG 1.1//EN" "http://www.w3.org/Graphics/SVG/1.1/DTD/svg11.dtd">
<svg version="1.1" id="Layer_1" xmlns="http://www.w3.org/2000/svg" xmlns:xlink="http://www.w3.org/1999/xlink" x="0px" y="0px"
	 width="800px" height="600px" viewBox="0 0 800 600" enable-background="new 0 0 800 600" xml:space="preserve">
<g>
	<circle cx="0.488" cy="-24.917" r="2.362"/>
	<circle cx="0.488" cy="-13.217" r="2.363"/>
	<path d="M0.488-3.879c-1.303,0-2.363,1.061-2.363,2.361c0,1.303,1.061,2.363,2.363,2.363S2.85-0.215,2.85-1.518
		C2.85-2.818,1.791-3.879,0.488-3.879z"/>
	<circle cx="0.488" cy="10.183" r="2.362"/>
	<path d="M25.999-41.381H14.5v-3.484c0-0.018-0.006-0.035-0.007-0.051c-0.003-0.086-0.014-0.166-0.032-0.248
		c-0.006-0.023-0.009-0.047-0.014-0.07c-0.03-0.102-0.068-0.195-0.12-0.287c-0.011-0.02-0.026-0.039-0.038-0.059
		c-0.045-0.07-0.094-0.135-0.15-0.197c-0.021-0.021-0.041-0.045-0.064-0.066c-0.063-0.059-0.131-0.111-0.205-0.158
		c-0.014-0.008-0.024-0.021-0.039-0.029c-0.004-0.004-0.01-0.004-0.014-0.008c-0.085-0.047-0.176-0.09-0.273-0.117
		c-0.012-0.004-0.023-0.008-0.035-0.01c-0.002-0.002-0.004-0.002-0.007-0.002c-13.161-3.994-25.562-0.15-26.083,0.016
		c-0.094,0.029-0.182,0.07-0.265,0.117c-0.002,0.002-0.005,0.002-0.007,0.004c-0.01,0.006-0.016,0.014-0.025,0.02
		c-0.081,0.051-0.155,0.109-0.223,0.172c-0.021,0.021-0.043,0.043-0.062,0.064c-0.056,0.061-0.104,0.125-0.147,0.193
		c-0.014,0.023-0.03,0.043-0.043,0.066c-0.05,0.09-0.091,0.188-0.119,0.287c-0.004,0.018-0.006,0.035-0.01,0.053
		c-0.02,0.086-0.032,0.176-0.035,0.266c0,0.016-0.006,0.029-0.006,0.045v3.484h-11.5c-0.745,0-1.35,0.605-1.35,1.35v59.445
		c0,0.744,0.604,1.35,1.35,1.35h10.334L-15.879,34.5l-10.176,0.436c-0.61,0.025-1.126,0.459-1.261,1.053
		c-0.134,0.596,0.149,1.205,0.688,1.49l16.801,8.852c0.381,0.199,0.836,0.207,1.223,0.018c0.387-0.191,0.659-0.555,0.734-0.979
		l4.349-24.605h9.694L6.68,36.941l-9.124,3.254c-0.549,0.195-0.91,0.721-0.896,1.303c0.014,0.584,0.4,1.09,0.957,1.262l16.949,5.158
		c0.129,0.039,0.262,0.059,0.394,0.059c0.28,0,0.556-0.086,0.788-0.254c0.342-0.246,0.55-0.637,0.561-1.059l0.723-25.9h8.968
		c0.745,0,1.351-0.605,1.351-1.35v-59.445C27.349-40.775,26.744-41.381,25.999-41.381z M-10.825-42.553l6.546,3.697
		c0.001,0,0.001,0,0.001,0l2.27,1.281l-2.451,3.352l-6.365-6.367V-42.553z M2.986-37.574l2.268-1.281h0.002l6.543-3.697v1.963
		l-6.364,6.367L2.986-37.574z M9.56-44.389l-5.635,3.182H3.923l-3.436,1.943l-3.436-1.943c-0.002,0-0.002,0-0.002,0l-5.572-3.148
		C-4.658-45.107,2.205-45.926,9.56-44.389z M24.648,18.064h-8.931c-0.731,0-1.329,0.58-1.349,1.311l-0.71,25.443L2.312,41.365
		l6.201-2.211c0.553-0.199,0.914-0.729,0.895-1.314L8.832,19.371c-0.022-0.729-0.619-1.307-1.348-1.307H-4.655
		c-0.653,0-1.214,0.469-1.328,1.113l-4.223,23.9l-10.742-5.66l6.369-0.273c0.678-0.027,1.229-0.555,1.287-1.232l1.418-16.383
		c0.033-0.375-0.094-0.75-0.35-1.027c-0.255-0.279-0.616-0.438-0.995-0.438h-10.456V-38.68h10.941l7.479,7.48
		c0.067,0.066,0.141,0.125,0.218,0.176c0.026,0.016,0.055,0.027,0.081,0.043c0.054,0.029,0.108,0.059,0.166,0.082
		c0.032,0.014,0.067,0.021,0.101,0.031c0.055,0.016,0.109,0.031,0.168,0.043c0.037,0.004,0.073,0.006,0.11,0.01
		c0.036,0.004,0.073,0.012,0.11,0.012c0.035,0,0.07-0.002,0.104-0.004c0.395-0.031,0.754-0.232,0.986-0.551l3.697-5.057l3.696,5.057
		c0.233,0.318,0.593,0.52,0.986,0.551c0.035,0.002,0.07,0.004,0.104,0.004c0.037,0,0.072-0.008,0.108-0.012
		c0.039-0.004,0.077-0.006,0.115-0.01c0.057-0.012,0.109-0.027,0.163-0.043c0.035-0.01,0.07-0.018,0.104-0.031
		c0.057-0.023,0.111-0.053,0.166-0.082c0.027-0.016,0.055-0.027,0.08-0.043c0.076-0.051,0.15-0.109,0.217-0.176l7.48-7.48h10.939
		V18.064z"/>
	<path d="M9.025-24.949v9.588c0,0.154,0.08,0.299,0.211,0.381l5.102,3.197c0.074,0.045,0.156,0.068,0.238,0.068
		c0.084,0,0.168-0.023,0.24-0.068l5.103-3.197c0.132-0.082,0.211-0.227,0.211-0.381v-9.588c0-0.248-0.2-0.449-0.45-0.449H9.475
		C9.226-25.398,9.025-25.197,9.025-24.949z"/>
</g>
</svg>
