<?xml version="1.0" encoding="utf-8"?>
<!-- Generator: Adobe Illustrator 15.1.0, SVG Export Plug-In . SVG Version: 6.00 Build 0)  -->
<!DOCTYPE svg PUBLIC "-//W3C//DTD SVG 1.1//EN" "http://www.w3.org/Graphics/SVG/1.1/DTD/svg11.dtd">
<svg version="1.1" id="Layer_1" xmlns="http://www.w3.org/2000/svg" xmlns:xlink="http://www.w3.org/1999/xlink" x="0px" y="0px"
	 width="800px" height="600px" viewBox="0 0 800 600" enable-background="new 0 0 800 600" xml:space="preserve">
<g>
	<path d="M-6.794,10.331c2.01,0,3.643-1.633,3.643-3.641S-4.784,3.05-6.794,3.05c-2.008,0-3.641,1.633-3.641,3.641
		S-8.802,10.331-6.794,10.331z"/>
	<path d="M5.497,10.331c2.008,0,3.641-1.633,3.641-3.641S7.505,3.05,5.497,3.05c-2.01,0-3.643,1.633-3.643,3.641
		S3.487,10.331,5.497,10.331z"/>
	<path d="M17.786,8.948c1.941,0,3.521-1.578,3.521-3.521c0-1.941-1.58-3.521-3.521-3.521c-1.943,0-3.523,1.58-3.523,3.521
		C14.263,7.37,15.843,8.948,17.786,8.948z"/>
	<path d="M-19.082,8.948c1.942,0,3.522-1.578,3.522-3.521c0-1.941-1.58-3.521-3.522-3.521s-3.523,1.58-3.523,3.521
		C-22.605,7.37-21.024,8.948-19.082,8.948z"/>
	<path d="M54.741,14.53c0-1.496-0.016-6.023-24.42-8.77C27.868-5.913,19.202-14.95,8.14-18.146l2.141-8.264
		c0.05,0.002,0.098,0.016,0.148,0.016c2.303,0,4.178-1.873,4.178-4.178s-1.875-4.18-4.178-4.18c-2.305,0-4.18,1.875-4.18,4.18
		c0,1.621,0.938,3.014,2.291,3.705l-2.142,8.266c-2.296-0.523-4.681-0.799-7.126-0.799c-1.891,0-3.744,0.166-5.548,0.48
		l-2.142-7.805c1.285-0.713,2.168-2.068,2.168-3.641c0-2.303-1.875-4.178-4.18-4.178c-2.303,0-4.179,1.875-4.179,4.178
		c0,2.305,1.876,4.18,4.179,4.18c0.098,0,0.189-0.021,0.286-0.029l2.099,7.658c-11.87,2.775-21.259,12.18-23.771,24.492
		c-22.911,2.773-22.927,7.146-22.927,8.594c0,0.775,0.342,1.516,0.955,2.227c3.668,6.639,21.98,17.994,53.027,17.994
		c30.805,0,52.762-9.541,55.035-18.67C54.571,15.579,54.741,15.063,54.741,14.53z M-0.728-16.7
		c14.129,0,26.115,10.051,28.584,23.926l0.039,0.227c0.219,1.289,0.242,2.635,0.244,4.051c-8.494,2.277-17.804,3.43-27.689,3.432
		c-14.676,0-26.48-2.582-30.047-3.453c0-1.354,0.013-2.641,0.217-3.869l0.018-0.107C-27.011-6.526-14.981-16.7-0.728-16.7z
		 M-32.605,9.114c-0.05,0.914-0.048,1.828-0.047,2.721l0.039,2.004l1.087,0.303c0.562,0.158,13.966,3.85,31.977,3.85
		c10.598,0,20.564-1.297,29.625-3.85l1.083-0.307l0.038-1.797c0-1.021,0.002-2.062-0.065-3.107
		c16.699,1.992,20.474,4.904,20.554,5.598c-0.059,0.555-2.727,3.111-14.676,5.49C26.666,22.077,13.522,23.212,0,23.212
		c-13.521,0-26.664-1.135-37.009-3.193c-11.949-2.379-14.616-4.936-14.676-5.486C-51.61,13.874-48.106,11.103-32.605,9.114z"/>
</g>
</svg>
