<?xml version="1.0" encoding="utf-8"?>
<!-- Generator: Adobe Illustrator 15.1.0, SVG Export Plug-In . SVG Version: 6.00 Build 0)  -->
<!DOCTYPE svg PUBLIC "-//W3C//DTD SVG 1.1//EN" "http://www.w3.org/Graphics/SVG/1.1/DTD/svg11.dtd">
<svg version="1.1" id="Layer_1" xmlns="http://www.w3.org/2000/svg" xmlns:xlink="http://www.w3.org/1999/xlink" x="0px" y="0px"
	 width="800px" height="600px" viewBox="0 0 800 600" enable-background="new 0 0 800 600" xml:space="preserve">
<g>
	<path d="M-0.001-33.62c-14.089,0-25.552,11.462-25.552,25.554V32.27c0,0.547,0.33,1.039,0.834,1.246
		c0.504,0.209,1.086,0.096,1.471-0.291l7.114-7.113l7.111,7.113c0.254,0.252,0.597,0.395,0.955,0.395
		c0.357,0,0.701-0.143,0.954-0.395l7.112-7.113l7.114,7.113c0.527,0.527,1.381,0.527,1.908,0l7.113-7.113l7.113,7.113
		c0.258,0.258,0.604,0.395,0.955,0.395c0.174,0,0.35-0.033,0.516-0.104c0.506-0.207,0.834-0.699,0.834-1.246V-8.066
		C25.553-22.158,14.09-33.62-0.001-33.62z M22.853,29.011l-5.764-5.765c-0.526-0.527-1.382-0.527-1.909,0l-7.111,7.115l-7.115-7.115
		c-0.263-0.264-0.607-0.395-0.954-0.395c-0.345,0-0.69,0.131-0.954,0.395l-7.112,7.115l-7.112-7.115
		c-0.253-0.252-0.596-0.395-0.954-0.395c-0.359,0-0.702,0.143-0.955,0.395l-5.764,5.765V-8.066
		c0-12.602,10.252-22.854,22.852-22.854c12.603,0,22.854,10.252,22.854,22.854V29.011z"/>
	<path d="M-3.358-10.697c2.378,0,4.313-1.934,4.313-4.311S-0.98-19.32-3.358-19.32c-2.377,0-4.312,1.936-4.312,4.312
		S-5.735-10.697-3.358-10.697z"/>
	<path d="M10.041-10.697c2.379,0,4.312-1.934,4.312-4.311s-1.934-4.312-4.312-4.312c-2.377,0-4.311,1.936-4.311,4.312
		S7.664-10.697,10.041-10.697z"/>
	<path d="M14.162-6.638H-7.479h-0.45h-0.45c0,6.462,5.258,11.72,11.722,11.72c6.462,0,11.72-5.258,11.72-11.72h-0.451H14.162z"/>
</g>
</svg>
