<?xml version="1.0" encoding="utf-8"?>
<!-- Generator: Adobe Illustrator 15.1.0, SVG Export Plug-In . SVG Version: 6.00 Build 0)  -->
<!DOCTYPE svg PUBLIC "-//W3C//DTD SVG 1.1//EN" "http://www.w3.org/Graphics/SVG/1.1/DTD/svg11.dtd">
<svg version="1.1" id="Layer_1" xmlns="http://www.w3.org/2000/svg" xmlns:xlink="http://www.w3.org/1999/xlink" x="0px" y="0px"
	 width="800px" height="600px" viewBox="0 0 800 600" enable-background="new 0 0 800 600" xml:space="preserve">
<g>
	<path d="M20.061-13.846c-3.033,0-5.576,2.143-6.197,4.992H3.699c-0.9-0.984-1.891-1.887-2.951-2.691v-13.47h6.641
		c1.176,0,2.131-0.956,2.131-2.132v-10.645c0-1.173-0.955-2.129-2.131-2.129h-40.047c-1.176,0-2.131,0.956-2.131,2.129v10.645
		c0,1.176,0.955,2.132,2.131,2.132h6.746v13.385c-1.1,0.825-2.123,1.755-3.057,2.776h-10.477c-0.621-2.85-3.164-4.992-6.199-4.992
		c-3.496,0-6.34,2.846-6.34,6.342v26.628c0,3.498,2.844,6.344,6.34,6.344c3.035,0,5.58-2.142,6.201-4.994h9.975
		c4.223,4.944,10.322,7.767,16.834,7.767s12.611-2.822,16.834-7.767h9.664c0.621,2.853,3.164,4.994,6.197,4.994
		c3.498,0,6.344-2.846,6.344-6.344V-7.504C26.404-11,23.559-13.846,20.061-13.846z M23.705,19.124c0,2.009-1.635,3.644-3.645,3.644
		c-2.008,0-3.641-1.635-3.641-3.644c0-0.745-0.605-1.351-1.352-1.351H3.564c-0.408,0-0.795,0.186-1.051,0.503
		c-3.719,4.616-9.24,7.264-15.148,7.264s-11.43-2.647-15.148-7.264c-0.256-0.317-0.643-0.503-1.051-0.503H-40.65
		c-0.744,0-1.35,0.605-1.35,1.351c0,2.009-1.635,3.644-3.645,3.644c-2.006,0-3.641-1.635-3.641-3.644V-7.504
		c0-2.008,1.635-3.642,3.641-3.642c2.01,0,3.645,1.634,3.645,3.642c0,0.746,0.605,1.351,1.35,1.351h12.287
		c0.393,0,0.766-0.171,1.021-0.468c1.053-1.219,2.25-2.301,3.555-3.215c0.359-0.254,0.574-0.666,0.574-1.105v-15.424
		c0-0.745-0.604-1.35-1.35-1.35h-7.525v-9.504H6.818v9.504h-7.42c-0.746,0-1.35,0.604-1.35,1.35v15.256
		c-0.09,0.508,0.119,1.029,0.549,1.334c1.277,0.906,2.447,1.967,3.475,3.155c0.256,0.296,0.629,0.467,1.021,0.467h11.975
		c0.746,0,1.352-0.604,1.352-1.351c0-2.008,1.633-3.642,3.641-3.642c2.01,0,3.645,1.634,3.645,3.642V19.124z"/>
	<path d="M51.916,28.265c-1.18-15.216-20.762-19.429-20.658-18.099c0.104,1.334,5.924,4.266,6.275,8.783
		c0.408,5.275-3.6,6.561-3.135,12.551c0.551,7.107,5.375,8.683,9.205,8.387C48.027,39.543,52.598,37.055,51.916,28.265z"/>
</g>
</svg>
