<?xml version="1.0" encoding="utf-8"?>
<!-- Generator: Adobe Illustrator 15.1.0, SVG Export Plug-In . SVG Version: 6.00 Build 0)  -->
<!DOCTYPE svg PUBLIC "-//W3C//DTD SVG 1.1//EN" "http://www.w3.org/Graphics/SVG/1.1/DTD/svg11.dtd">
<svg version="1.1" id="Layer_1" xmlns="http://www.w3.org/2000/svg" xmlns:xlink="http://www.w3.org/1999/xlink" x="0px" y="0px"
	 width="800px" height="600px" viewBox="0 0 800 600" enable-background="new 0 0 800 600" xml:space="preserve">
<g>
	<path d="M32.595-9.91l-2.803-34.442c-0.059-0.7-0.645-1.239-1.348-1.239h-5.102c-0.672,0-1.244,0.496-1.336,1.161l-4.578,32.523
		L2.554-19.918c-0.418-0.225-0.924-0.215-1.332,0.029c-0.408,0.243-0.657,0.684-0.657,1.158v6.672l-14.592-7.859
		c-0.419-0.225-0.925-0.215-1.333,0.029c-0.407,0.243-0.656,0.684-0.656,1.158v6.672l-14.592-7.859
		c-0.418-0.225-0.925-0.215-1.332,0.029c-0.408,0.243-0.658,0.684-0.658,1.158v34.954c0,0.744,0.605,1.35,1.35,1.35h12.537
		l-1.453,14.213l-10.686,0.609c-0.605,0.035-1.111,0.465-1.242,1.055s0.145,1.195,0.678,1.482l16.424,8.848
		c0.371,0.201,0.814,0.217,1.197,0.043c0.384-0.174,0.665-0.516,0.76-0.928l5.861-25.322H8.198L7.3,35.227
		c-11.165,2.982-11.217,3.121-11.514,3.908c-0.154,0.408-0.1,0.875,0.141,1.236c0.381,0.568,0.438,0.656,18.158,5.178
		c0.111,0.029,0.224,0.043,0.334,0.043c0.266,0,0.527-0.078,0.753-0.229c0.317-0.215,0.53-0.553,0.585-0.934l3.783-26.857h11.709
		c0.745,0,1.35-0.605,1.35-1.35V-9.799C32.599-9.836,32.597-9.873,32.595-9.91z M29.899,14.873H18.366
		c-0.672,0-1.243,0.494-1.336,1.162l-3.738,26.525C9.6,41.613,5.01,40.424,1.742,39.555c2.093-0.594,4.718-1.311,7.205-1.973
		c0.565-0.152,0.97-0.65,1.001-1.236l1.02-20.055c0.019-0.369-0.115-0.73-0.369-0.998c-0.256-0.268-0.609-0.42-0.98-0.42H-8.245
		c-0.63,0-1.175,0.434-1.315,1.045l-5.706,24.646l-10.664-5.746l7.068-0.404c0.662-0.037,1.198-0.551,1.266-1.209l1.724-16.846
		c0.038-0.379-0.086-0.758-0.341-1.041c-0.257-0.285-0.621-0.445-1.002-0.445h-12.683v-31.342l14.591,7.859
		c0.418,0.225,0.924,0.212,1.333-0.031c0.407-0.244,0.657-0.684,0.657-1.158v-6.67L1.274-8.61C1.69-8.385,2.199-8.398,2.606-8.641
		c0.408-0.244,0.658-0.684,0.658-1.158v-6.67L17.856-8.61c0.389,0.209,0.854,0.214,1.25,0.016c0.393-0.201,0.664-0.578,0.725-1.017
		l4.686-33.28H27.2l2.699,33.146V14.873z"/>
	<path d="M-15.042,4.004h-8.774c-0.745,0-1.351,0.605-1.351,1.35c0,0.746,0.605,1.35,1.351,1.35h8.774
		c0.746,0,1.351-0.604,1.351-1.35C-13.691,4.609-14.296,4.004-15.042,4.004z"/>
	<path d="M1.608,4.004h-8.775c-0.744,0-1.35,0.605-1.35,1.35c0,0.746,0.605,1.35,1.35,1.35h8.775c0.746,0,1.35-0.604,1.35-1.35
		C2.958,4.609,2.354,4.004,1.608,4.004z"/>
	<path d="M18.259,4.004H9.483c-0.745,0-1.35,0.605-1.35,1.35c0,0.746,0.604,1.35,1.35,1.35h8.775c0.745,0,1.35-0.604,1.35-1.35
		C19.608,4.609,19.004,4.004,18.259,4.004z"/>
</g>
</svg>
