<?xml version="1.0" encoding="utf-8"?>
<!-- Generator: Adobe Illustrator 15.1.0, SVG Export Plug-In . SVG Version: 6.00 Build 0)  -->
<!DOCTYPE svg PUBLIC "-//W3C//DTD SVG 1.1//EN" "http://www.w3.org/Graphics/SVG/1.1/DTD/svg11.dtd">
<svg version="1.1" id="Layer_1" xmlns="http://www.w3.org/2000/svg" xmlns:xlink="http://www.w3.org/1999/xlink" x="0px" y="0px"
	 width="800px" height="600px" viewBox="0 0 800 600" enable-background="new 0 0 800 600" xml:space="preserve">
<g>
	<path d="M-0.025,35.119c-2.418,0.057-4.632-1.303-5.512-0.76c-0.731,0.449,0.112,4.33,5.512,4.273
		c5.4,0.057,6.244-3.824,5.513-4.273C4.607,33.816,2.394,35.176-0.025,35.119z"/>
	<path d="M0.232-3.659c0.745,0,1.35-0.604,1.35-1.351v-12.254c0-0.746-0.604-1.35-1.35-1.35s-1.35,0.604-1.35,1.35V-5.01
		C-1.118-4.264-0.513-3.659,0.232-3.659z"/>
	<path d="M12.678-3.659c0.745,0,1.351-0.604,1.351-1.351v-12.254c0-0.746-0.605-1.35-1.351-1.35s-1.351,0.604-1.351,1.35V-5.01
		C11.328-4.264,11.933-3.659,12.678-3.659z"/>
	<path d="M-12.053-3.659c0.745,0,1.35-0.604,1.35-1.351v-12.254c0-0.746-0.604-1.35-1.35-1.35c-0.746,0-1.35,0.604-1.35,1.35V-5.01
		C-13.403-4.264-12.799-3.659-12.053-3.659z"/>
	<circle cx="10.621" cy="26.9" r="0.955"/>
	<circle cx="13.96" cy="26.9" r="0.955"/>
	<circle cx="12.291" cy="29.8" r="0.956"/>
	<circle cx="-14.013" cy="26.9" r="0.955"/>
	<circle cx="-10.673" cy="26.9" r="0.955"/>
	<circle cx="-12.343" cy="29.8" r="0.956"/>
	<path d="M11.932,21.682c-1.44-0.154-3.307-1.557-6.049-1.418c-2.742,0.143-2.926,2.055-2.085,2.6
		c0.771,0.498,1.332-0.24,2.607-0.381c1.272-0.141,3.568,0.012,5.113,0.148C12.912,22.752,12.923,21.789,11.932,21.682z"/>
	<path d="M-4.025,22.863c0.841-0.545,0.657-2.457-2.085-2.6c-2.742-0.139-4.609,1.264-6.048,1.418
		c-0.992,0.107-0.979,1.07,0.413,0.949c1.545-0.137,3.841-0.289,5.113-0.148C-5.358,22.623-4.797,23.361-4.025,22.863z"/>
	<path d="M31.53,36.889c-0.503,0.232-0.978,0-0.978,0c0.978,0,0.883-1.375,0.883-1.375c-0.202,0.588-1.582,2.072-3.676-0.93
		c-1.336-1.914-3.15-2.664-4.293-2.955c0.002-0.049,0.015-0.096,0.015-0.145c0-1.287-0.957-2.342-2.196-2.518
		c0.389-2.887,2.119-16.451,1.019-21.082h4.44v-8.377h-4.258v-17.934c5.444-2.706,8.92-8.037,8.92-13.822
		c0-8.637-7.555-15.664-16.841-15.664c-2.638,0-5.245,0.586-7.587,1.687c-4.232-1.987-9.455-1.982-13.683,0.015
		c-2.349-1.109-4.969-1.701-7.62-1.701c-9.286,0-16.84,7.027-16.84,15.664c0,5.74,3.449,11.064,8.845,13.783v17.973h-4.262v8.377
		h4.55c-1.303,5.279,0.534,8.527,0.699,15.389v4.283c-0.011,0.176-0.032,0.684,0.005,1.416c-1.22,0.191-2.155,1.238-2.155,2.512
		c0,0.049,0.012,0.096,0.015,0.145c-1.142,0.291-2.957,1.041-4.293,2.955c-2.094,3.002-3.472,1.518-3.676,0.93
		c0,0-0.093,1.375,0.884,1.375c0,0-0.476,0.232-0.977,0c0,0,0.373,1.162,1.814,0.836c0,0-0.371,0.621-1.187,0.768
		c0,0,9.207,2.656,10.833-3.814c1.152,2.863,3.32,5.992,7.393,8.197c8.604,4.662,9.55,5.037,12.647,5.037s4.043-0.375,12.646-5.037
		c4.118-2.23,6.289-5.404,7.432-8.291c1.561,6.588,10.852,3.908,10.852,3.908c-0.814-0.146-1.186-0.768-1.186-0.768
		C31.156,38.051,31.53,36.889,31.53,36.889z M-19.694-19.283c0.023-0.537-0.275-1.06-0.796-1.291
		c-4.844-2.159-7.975-6.74-7.975-11.674c0-7.148,6.344-12.964,14.141-12.964c1.574,0,3.134,0.246,4.611,0.712
		c-1.286,1.018-2.392,2.227-3.254,3.585c-0.4,0.628-0.214,1.464,0.415,1.863c0.224,0.144,0.475,0.211,0.723,0.211
		c0.446,0,0.883-0.221,1.14-0.626c1.083-1.702,2.635-3.129,4.489-4.127c0.002-0.001,0.004-0.003,0.006-0.005
		c0.062-0.033,0.121-0.075,0.177-0.119c0.014-0.011,0.031-0.019,0.044-0.03c0.023-0.02,0.042-0.044,0.063-0.062
		c0.017-0.018,0.034-0.035,0.05-0.053c3.652-1.814,8.244-1.829,11.916-0.05c0.024,0.03,0.055,0.056,0.082,0.085
		c0.027,0.025,0.051,0.056,0.08,0.08c0.008,0.008,0.018,0.012,0.025,0.018c0.062,0.049,0.127,0.096,0.196,0.133
		c0.002,0.001,0.003,0.003,0.005,0.004c1.709,0.92,3.174,2.217,4.237,3.75c0.263,0.378,0.683,0.58,1.11,0.58
		c0.266,0,0.533-0.078,0.769-0.24c0.612-0.426,0.765-1.266,0.34-1.88c-0.812-1.169-1.828-2.206-2.968-3.107
		c1.483-0.472,3.051-0.721,4.634-0.721c7.798,0,14.142,5.815,14.142,12.964c0,4.988-3.178,9.588-8.094,11.725
		c-0.002,0-0.006,0.002-0.008,0.004c-0.002,0.001-0.004,0.001-0.006,0.003c-0.01,0.003-0.016,0.009-0.024,0.013
		c-0.071,0.033-0.142,0.07-0.205,0.115c-0.029,0.02-0.054,0.045-0.081,0.066c-0.041,0.032-0.082,0.064-0.117,0.102
		c-0.029,0.028-0.051,0.061-0.076,0.091c-0.029,0.037-0.062,0.073-0.088,0.112c-0.021,0.031-0.036,0.066-0.054,0.1
		c-0.023,0.043-0.049,0.085-0.067,0.132c-0.016,0.038-0.023,0.076-0.035,0.115c-0.014,0.044-0.03,0.088-0.039,0.134
		c-0.012,0.061-0.016,0.123-0.019,0.184c-0.001,0.025-0.008,0.049-0.008,0.074v0.011c0,0.002,0,0.003,0,0.005v18.771H-19.62v-18.369
		C-19.62-19.01-19.65-19.148-19.694-19.283z M-23.882,2.209h47.925v2.975h-47.925V2.209z M11.331,40.5
		c-8.697,4.713-9.052,4.713-11.36,4.713s-2.663,0-11.361-4.713c-7.764-4.205-7.271-12.451-7.246-12.797l0.001-8.152
		c4.945-6.803,5.199-11.646,5.199-11.646c1.259,2.52,0.28,5.062,0.28,5.062c2.98-3.078,3.334-5.064,3.337-5.082h0.002
		c0.022,0.02,6.199,5.467,13.502,8.861c0,0-5.537-5.947-5.223-8.318c0,0,2.957,5.434,10.672,8.336
		c7.087,2.664,9.16,8.566,9.45,11.666C18.548,30.578,17.865,36.961,11.331,40.5z"/>
</g>
</svg>
