<?xml version="1.0" encoding="utf-8"?>
<!-- Generator: Adobe Illustrator 15.1.0, SVG Export Plug-In . SVG Version: 6.00 Build 0)  -->
<!DOCTYPE svg PUBLIC "-//W3C//DTD SVG 1.1//EN" "http://www.w3.org/Graphics/SVG/1.1/DTD/svg11.dtd">
<svg version="1.1" id="Layer_1" xmlns="http://www.w3.org/2000/svg" xmlns:xlink="http://www.w3.org/1999/xlink" x="0px" y="0px"
	 width="800px" height="600px" viewBox="0 0 800 600" enable-background="new 0 0 800 600" xml:space="preserve">
<path d="M45.169,23.812c0-0.018,0-0.031,0-0.031h-0.004c-0.008-0.164-0.043-0.328-0.113-0.486L25.235-20.843
	c-0.191-0.424-0.586-0.701-1.039-0.77v-0.027h-0.193h-0.008H1.089V-36.86h-2.7v15.221h-23.11l0,0c-0.003,0-0.005,0-0.009,0
	c-0.535,0.004-1.018,0.322-1.23,0.814l-19.099,44.137c-0.066,0.152-0.098,0.312-0.105,0.469h-0.005c0,0.012,0.002,0.023,0.002,0.035
	c-0.001,0.035,0.003,0.07,0.005,0.105c0.149,13.154,20.834,12.939,20.834,12.939c20.009,0,20.742-12.135,20.769-13.023
	c0-0.008,0.001-0.016,0.001-0.025c0-0.018,0-0.031,0-0.031h-0.004c-0.008-0.164-0.043-0.328-0.114-0.486L-22.635-18.94h44.583
	L3.669,23.312c-0.066,0.152-0.098,0.312-0.105,0.469H3.56c0,0.012,0,0.023,0,0.035c0,0.033,0.004,0.066,0.006,0.102
	C3.712,37.075,24.399,36.86,24.399,36.86c20.01,0,20.742-12.135,20.768-13.023C45.167,23.829,45.169,23.821,45.169,23.812z
	 M-42.32,23.78l17.622-40.723L-6.418,23.78H-42.32z M6.409,23.78l17.617-40.723L42.31,23.78H6.409z"/>
</svg>
