<?xml version="1.0" encoding="utf-8"?>
<!-- Generator: Adobe Illustrator 15.1.0, SVG Export Plug-In . SVG Version: 6.00 Build 0)  -->
<!DOCTYPE svg PUBLIC "-//W3C//DTD SVG 1.1//EN" "http://www.w3.org/Graphics/SVG/1.1/DTD/svg11.dtd">
<svg version="1.1" id="Layer_1" xmlns="http://www.w3.org/2000/svg" xmlns:xlink="http://www.w3.org/1999/xlink" x="0px" y="0px"
	 width="800px" height="600px" viewBox="0 0 800 600" enable-background="new 0 0 800 600" xml:space="preserve">
<g>
	<path d="M30.424-23.52c-1.518-2.229-3.92-3.562-6.418-3.562c-1.318,0-2.576,0.383-3.641,1.109l-5.791,3.951
		c-0.119-1.385-0.195-2.291-0.197-2.308c-0.004-0.065-0.014-0.133-0.021-0.198l-1.072-6.782l-2.111-15.038
		c-0.479-3.387-3.268-5.941-6.488-5.941c-0.281,0-0.568,0.021-0.85,0.061c-1.844,0.258-3.33,1.316-4.232,2.835
		c-1.179-1.946-3.239-3.226-5.519-3.226c-0.285,0-0.572,0.02-0.855,0.06c-2.831,0.401-4.959,2.708-5.409,5.54
		c-1.114-0.899-2.547-1.438-4.087-1.438c-0.312,0-0.628,0.021-0.938,0.066c-3.089,0.438-5.373,2.92-5.565,5.806
		c-0.779-0.445-1.679-0.687-2.661-0.687c-0.29,0-0.587,0.021-0.885,0.063c-3.517,0.493-5.995,3.646-5.521,7.028l1.787,12.689
		c0.036,0.262,0.094,0.486,0.142,0.652c0.007,0.035,0.015,0.07,0.022,0.105c0.022,0.092,2.229,9.309,5.61,21.365l0.379,9.979
		c0.064,1.664-0.161,3.564-0.378,5.402c-0.45,3.814-0.875,7.418,1.188,9.74c0.724,0.814,2.069,1.786,4.368,1.786
		c0.347,0,0.715-0.022,1.093-0.065c0.312-0.035,0.788-0.1,1.353-0.18l-0.668,16.131l-10.365,2.702
		c-1.224,0.318-2.062,1.444-2.018,2.707c0.045,1.265,0.961,2.327,2.205,2.56l17.06,3.176c0.167,0.031,0.333,0.047,0.496,0.047
		c1.271,0,2.404-0.902,2.65-2.197l5.204-27.393c0.786-0.129,1.179-0.197,2.009-0.344l9.959,14.767L5.014,48.327
		c-0.543,1.128-0.238,2.484,0.736,3.271c0.492,0.4,1.096,0.602,1.697,0.602c0.584,0,1.168-0.191,1.654-0.568l13.623-10.58
		c1-0.775,1.326-2.143,0.785-3.287l-8.486-17.939c0.836-0.223,1.254-0.375,1.525-0.494c4.66-2.023,6.492-5.71,5.029-10.112
		c-0.58-1.745-1.723-5.376-2.828-8.888c-0.473-1.502-0.934-2.971-1.338-4.246c0.561-0.922,1.846-2.637,4.414-4.409
		c0.037-0.023,0.074-0.048,0.111-0.073l0.867-0.596l6.246-4.258c1.578-1.08,2.6-2.848,2.807-4.852
		C32.049-19.968,31.54-21.892,30.424-23.52z M27.53-15.481l-6.252,4.262l-0.867,0.596c-0.004,0.002-0.008,0.002-0.01,0.004
		c-4.764,3.25-5.895,6.47-5.895,6.475c1.322,4.15,3.598,11.477,4.51,14.215c1.186,3.568-0.736,5.566-3.541,6.785
		c-0.588,0.256-2.162,0.639-4.33,1.086l9.926,20.979L7.448,49.499l5.916-12.271L1.557,19.72c-3.089,0.547-2.472,0.444-5.566,0.947
		l-5.559,29.25l-17.06-3.176l12.3-3.207l0.886-21.381c-1.587,0.233-3.699,0.55-4.494,0.641c-0.28,0.032-0.541,0.047-0.784,0.047
		c-5.52,0-2.239-8.023-2.48-14.331c-0.392-10.298-0.392-10.298-0.392-10.298c-3.454-12.297-5.669-21.571-5.669-21.571
		c-0.003-0.019,0-0.027-0.003-0.045c-0.043-0.153-0.093-0.302-0.114-0.462l-1.787-12.687c-0.267-1.91,1.175-3.693,3.225-3.98
		c0.176-0.024,0.345-0.037,0.508-0.037c1.723,0,2.654,1.361,2.897,3.106l0.579,4.171l0.883,4.895c0.157,0.905,0.29,1.64,0.402,2.228
		l0.501,2.762c0.1,0.564,0.619,0.955,1.522,0.955c0.195,0,0.409-0.018,0.64-0.057c0.636-0.107,1.049-0.764,0.926-1.446
		l-1.905-10.194l-1.065-7.582c-0.268-1.912,1.175-3.693,3.223-3.982c0.189-0.027,0.377-0.04,0.562-0.04
		c1.82,0,3.391,1.245,3.635,2.981l0.617,4.393c0,0.031-0.02,0.064-0.014,0.1l1.372,9.954c0.053,0.371,0.333,0.663,0.722,0.845
		c0.019,0.031,0.042,0.084,0.062,0.112c0.281,0.075,0.38,0.122,0.402,0.151c0.099-0.017,0.298-0.039,0.693-0.055
		c0.047-0.021,0.089-0.061,0.132-0.086c0.867-0.172,1.49-0.787,1.402-1.439l-1.123-8.121c-0.166-1.248-0.285-2.118-0.285-2.118
		l0.001,0.001l-0.874-6.213c-0.32-2.271,1.079-4.344,3.13-4.634c0.161-0.022,0.32-0.034,0.479-0.034c1.862,0,3.518,1.529,3.81,3.621
		c0,0,0.377,3.15,0.771,6.803c0.001,0.025-0.014,0.047-0.01,0.069l0.481,4.548c0.006,0.076,0.011,0.154,0.02,0.229
		c0.011,0.105,0.024,0.223,0.039,0.353l0.515,4.862c0.064,0.629,0.739,1.074,1.551,1.074c0.055,0,0.107-0.003,0.162-0.006
		c0.014,0,0.025,0.008,0.039,0.008c0,0,0.004-0.002,0.006-0.002c0.006,0,0.008-0.001,0.012-0.004c0.006,0,0.01,0.003,0.016,0.003
		c0.002,0,0.002,0,0.004-0.001c0.021,0,0.039-0.012,0.059-0.014c0.68-0.09,1.064-0.295,1.25-0.719
		c0.146-0.211,0.242-0.443,0.217-0.691L1.93-39.866l-0.529-5.108c-0.316-2.271,0.756-4.292,2.809-4.58
		c0.16-0.022,0.318-0.033,0.475-0.033c1.865,0,3.52,1.526,3.814,3.618l2.115,15.06l1.074,6.804c0,0,0.266,3.226,0.617,6.904
		l9.584-6.539c0.635-0.434,1.367-0.641,2.117-0.641c1.533,0,3.148,0.857,4.191,2.389C29.758-19.716,29.456-16.8,27.53-15.481z"/>
	<path d="M-14.239-9.906c-0.291-0.686-1.082-1.007-1.771-0.716c-0.687,0.291-1.006,1.084-0.715,1.771l6.017,14.192
		c0.218,0.515,0.718,0.822,1.244,0.822c0.176,0,0.354-0.033,0.526-0.106c0.687-0.291,1.006-1.084,0.715-1.771L-14.239-9.906z"/>
	<path d="M6.784-14.521c-0.734-0.071-1.402,0.465-1.48,1.206L3.737,2.021C3.661,2.763,4.2,3.425,4.942,3.501
		c0.047,0.004,0.094,0.007,0.139,0.007c0.684,0,1.27-0.518,1.342-1.213L7.991-13.04C8.065-13.782,7.526-14.444,6.784-14.521z"/>
	<path d="M-3.748-14.374c-0.127-0.733-0.822-1.229-1.561-1.098c-0.735,0.127-1.228,0.826-1.099,1.561l2.896,16.656
		c0.114,0.657,0.685,1.119,1.328,1.119c0.077,0,0.155-0.006,0.233-0.02c0.734-0.128,1.227-0.826,1.099-1.562L-3.748-14.374z"/>
	<circle cx="-4.657" cy="8.938" r="2.123"/>
	<circle cx="1.497" cy="8.09" r="2.123"/>
</g>
</svg>
