<?xml version="1.0" encoding="utf-8"?>
<!-- Generator: Adobe Illustrator 15.1.0, SVG Export Plug-In . SVG Version: 6.00 Build 0)  -->
<!DOCTYPE svg PUBLIC "-//W3C//DTD SVG 1.1//EN" "http://www.w3.org/Graphics/SVG/1.1/DTD/svg11.dtd">
<svg version="1.1" id="Layer_1" xmlns="http://www.w3.org/2000/svg" xmlns:xlink="http://www.w3.org/1999/xlink" x="0px" y="0px"
	 width="800px" height="600px" viewBox="0 0 800 600" enable-background="new 0 0 800 600" xml:space="preserve">
<g>
	<circle cx="-0.147" cy="6.671" r="6.301"/>
	<path d="M-38.786-31.89l5.366,5.365c0,0,31.121-31.732,66.378-0.152l5.828-5.52C38.787-32.196,2.146-68.53-38.786-31.89z"/>
	<path d="M27.75-21.465c0,0-26.062-25.295-55.499,0l5.52,5.52c0,0,19.459-20.925,44.459,0L27.75-21.465z"/>
	<path d="M-11.806-4.909c0,0,10.36-10.188,23.612,0l5.211-5.517c0,0-16.051-15.098-34.035,0.304L-11.806-4.909z"/>
	<path d="M-4.637,17.878l-6.398-1.131c-0.605-0.141-1.219,0.179-1.449,0.75l-6.672,18.693l-8.529-1.979
		c-0.556-0.128-1.125,0.131-1.396,0.633c-0.266,0.505-0.16,1.123,0.255,1.512l12.437,11.562c0.163,0.15,0.36,0.254,0.571,0.302
		c0.165,0.038,0.337,0.044,0.508,0.015c0.389-0.07,0.723-0.322,0.9-0.676l10.613-27.893c0.171-0.348,0.178-0.752,0.013-1.1
		C-3.948,18.222-4.261,17.966-4.637,17.878z"/>
	<path d="M15.47,13.884c-0.1-0.354-0.348-0.643-0.68-0.795c-0.33-0.154-0.715-0.154-1.047-0.004l-4.318,1.953
		c-0.611,0.277-2.416,2.506-2.162,3.131l10.732,18.334l-7.436,6.238c-0.424,0.359-0.564,0.955-0.344,1.465s0.75,0.812,1.303,0.746
		l15.756-1.895c0.125-0.016,0.25-0.051,0.367-0.102c0.213-0.099,0.396-0.254,0.529-0.45c0.205-0.308,0.262-0.69,0.16-1.042
		L15.47,13.884z"/>
</g>
</svg>
