<?xml version="1.0" encoding="utf-8"?>
<!-- Generator: Adobe Illustrator 15.1.0, SVG Export Plug-In . SVG Version: 6.00 Build 0)  -->
<!DOCTYPE svg PUBLIC "-//W3C//DTD SVG 1.1//EN" "http://www.w3.org/Graphics/SVG/1.1/DTD/svg11.dtd">
<svg version="1.1" id="Layer_1" xmlns="http://www.w3.org/2000/svg" xmlns:xlink="http://www.w3.org/1999/xlink" x="0px" y="0px"
	 width="800px" height="600px" viewBox="0 0 800 600" enable-background="new 0 0 800 600" xml:space="preserve">
<path d="M57.573-0.031l-3.385-0.805v-32.957l0.182-0.764l-0.237-0.447c-0.228-0.428-0.743-0.953-1.933-1.029l-74.139-4.58
	c-1.202-0.072-3.021,0.184-4.141,0.576l-30.935,10.902c-1.459,0.516-1.665,1.334-1.581,1.93c0.085,0.598,0.509,1.328,2.053,1.418
	l33.264,1.984c-6.572,7.43-9.191,23.047-9.311,23.785l-0.162,0.988l0.898,0.441c2.753,1.352,5.838,2.598,9.187,3.713l-3.052,19.633
	l-18.812,2.477l25.883,12.213l7.01-31.324c5.279,1.188,9.385,1.926,13.314,2.396L3.241,29.33l-15.064,6.053l26.37,5.242
	l-1.019-29.863C22.063,6.555,26.942,2.527,28.04-1.221c0.43-1.471,0.143-2.49-0.065-2.963c-2.06-9.178-4.516-14.205-6.558-16.955
	l10.064,0.6c1.287,0.076,3.141-0.398,4.228-1.074l15.78-9.818v31.205l-3.4,4.438c-0.453,0.592-0.34,1.439,0.252,1.893
	c0.244,0.188,0.533,0.277,0.818,0.277c0.406,0,0.808-0.18,1.072-0.529l2.021-2.637l1.006,3.674c0.164,0.6,0.709,0.994,1.301,0.994
	c0.118,0,0.239-0.016,0.357-0.047c0.719-0.197,1.143-0.941,0.947-1.66l-1.123-4.104l2.207,0.523
	c0.105,0.023,0.211,0.037,0.313,0.037c0.612,0,1.165-0.42,1.313-1.039C58.747,0.869,58.298,0.141,57.573-0.031z M34.282-23.906
	c-0.586,0.367-1.734,0.676-2.504,0.676l-18.824-1.117l4.289,2.783c1.121,0.73,5.025,4.189,8.132,18.123l-0.072,0.098l0.2,0.246
	c0.018,0.041,1.422,4.416-13.939,11.814L10.77,9.098l0.962,28.217l-14.13-2.811l8.494-3.412L4.182,8.082L3.073,7.961
	c-4.479-0.482-9.095-1.312-15.43-2.77l-1.324-0.305l-6.865,30.68l-14.523-6.854l11.709-1.541l3.716-23.91l-1.103-0.35
	c-3.271-1.045-6.293-2.213-8.998-3.482c0.77-3.984,4.021-18.84,10.514-23.275l3.26-2.227l-35.59-2.121l26.379-9.297
	c0.774-0.271,2.218-0.48,3.079-0.428l71.776,4.434L34.282-23.906z"/>
</svg>
