<?xml version="1.0" encoding="utf-8"?>
<!-- Generator: Adobe Illustrator 15.1.0, SVG Export Plug-In . SVG Version: 6.00 Build 0)  -->
<!DOCTYPE svg PUBLIC "-//W3C//DTD SVG 1.1//EN" "http://www.w3.org/Graphics/SVG/1.1/DTD/svg11.dtd">
<svg version="1.1" id="Layer_1" xmlns="http://www.w3.org/2000/svg" xmlns:xlink="http://www.w3.org/1999/xlink" x="0px" y="0px"
	 width="800px" height="600px" viewBox="0 0 800 600" enable-background="new 0 0 800 600" xml:space="preserve">
<g>
	<path d="M13.135-34.589c-1.754,0-3.182,1.425-3.182,3.18c0,0.002,0,0.005,0,0.009c0.002,0.117,0.002,2.758,0.002,6.899
		c-0.982,0.866-3.641,2.99-6.148,2.99c-1.316,0-1.936-0.62-2.795-1.479c-1.013-1.012-2.271-2.27-4.706-2.27
		c-2.312,0-4.553,1.172-6.146,2.271v-8.42c0-1.784-1.451-3.235-3.235-3.235s-3.236,1.451-3.236,3.235
		c0,0.745,0.604,1.351,1.35,1.351s1.351-0.605,1.351-1.351c0-0.296,0.24-0.536,0.536-0.536c0.295,0,0.536,0.24,0.536,0.536v63.738
		c0,6.945,5.65,12.597,12.596,12.597c6.948,0,12.599-5.651,12.599-12.597v-63.022c0-0.213,0-0.465-0.027-0.716h0.027
		c0-0.265,0.215-0.479,0.48-0.479c0.264,0,0.479,0.215,0.479,0.479c0,0.745,0.605,1.351,1.35,1.351c0.746,0,1.35-0.605,1.35-1.351
		C16.312-33.165,14.887-34.589,13.135-34.589z M0.056,42.225c-5.456,0-9.896-4.44-9.896-9.896v-51.899
		c0.98-0.867,3.64-2.99,6.146-2.99c1.316,0,1.938,0.621,2.795,1.479c1.012,1.013,2.271,2.271,4.706,2.271
		c2.314,0,4.553-1.174,6.148-2.273c0,17.922,0,52.94,0,53.413C9.955,37.785,5.514,42.225,0.056,42.225z"/>
	<circle cx="-2.013" cy="-33.639" r="1.488"/>
	<circle cx="-1.463" cy="2" r="1.353"/>
	<circle cx="4.963" cy="-15.04" r="1.316"/>
	<path d="M1.211,30.615c-0.881,0-1.593,0.714-1.593,1.594c0,0.881,0.712,1.596,1.593,1.596c0.883,0,1.596-0.715,1.596-1.596
		C2.807,31.329,2.094,30.615,1.211,30.615z"/>
	<circle cx="3.936" cy="10.862" r="1.276"/>
	<circle cx="-2.816" cy="-42.853" r="2.073"/>
	<circle cx="2.965" cy="-38.644" r="1.922"/>
</g>
</svg>
