<?xml version="1.0" encoding="utf-8"?>
<!-- Generator: Adobe Illustrator 15.1.0, SVG Export Plug-In . SVG Version: 6.00 Build 0)  -->
<!DOCTYPE svg PUBLIC "-//W3C//DTD SVG 1.1//EN" "http://www.w3.org/Graphics/SVG/1.1/DTD/svg11.dtd">
<svg version="1.1" id="Layer_1" xmlns="http://www.w3.org/2000/svg" xmlns:xlink="http://www.w3.org/1999/xlink" x="0px" y="0px"
	 width="800px" height="600px" viewBox="0 0 800 600" enable-background="new 0 0 800 600" xml:space="preserve">
<g>
	<path d="M0.001-38.774c-14.812,0-26.863,12.051-26.863,26.862c0,12.528,8.506,23.28,20.687,26.147
		c0.726,0.172,1.453-0.279,1.624-1.006c0.17-0.724-0.279-1.451-1.006-1.622c-10.953-2.579-18.604-12.25-18.604-23.52
		c0-13.322,10.84-24.163,24.163-24.163s24.161,10.841,24.161,24.163c0,11.735-8.373,21.739-19.907,23.786
		c-0.735,0.131-1.224,0.832-1.093,1.566c0.115,0.654,0.686,1.115,1.326,1.115c0.08,0,0.158-0.008,0.238-0.021
		c12.826-2.277,22.136-13.4,22.136-26.446C26.862-26.724,14.812-38.774,0.001-38.774z"/>
	<path d="M12.684-1.205c0.706-0.239,1.083-1.007,0.844-1.712c-0.24-0.707-1.008-1.085-1.713-0.844L0.841-0.03v-7.348l14.385-4.795
		c0.706-0.234,1.089-1,0.853-1.706c-0.236-0.708-0.998-1.09-1.707-0.854l-13.53,4.509v-7.39l10.177-3.758
		c0.699-0.258,1.059-1.034,0.799-1.734c-0.258-0.699-1.033-1.058-1.734-0.799l-9.241,3.412v-6.582c0-0.745-0.604-1.35-1.35-1.35
		s-1.351,0.604-1.351,1.35v6.62l-9.945-3.458c-0.705-0.246-1.474,0.127-1.719,0.832c-0.245,0.703,0.128,1.473,0.832,1.717
		l10.832,3.768v7.372l-13.529-4.509c-0.709-0.237-1.474,0.146-1.709,0.854c-0.235,0.706,0.147,1.472,0.854,1.706l14.384,4.795v7.348
		l-10.974-3.73c-0.707-0.241-1.473,0.137-1.712,0.844c-0.241,0.705,0.137,1.473,0.843,1.712l11.843,4.026v34.604
		c0,0.746,0.605,1.35,1.351,1.35s1.35-0.604,1.35-1.35V2.821L12.684-1.205z"/>
</g>
</svg>
