<?xml version="1.0" encoding="utf-8"?>
<!-- Generator: Adobe Illustrator 15.1.0, SVG Export Plug-In . SVG Version: 6.00 Build 0)  -->
<!DOCTYPE svg PUBLIC "-//W3C//DTD SVG 1.1//EN" "http://www.w3.org/Graphics/SVG/1.1/DTD/svg11.dtd">
<svg version="1.1" id="Layer_1" xmlns="http://www.w3.org/2000/svg" xmlns:xlink="http://www.w3.org/1999/xlink" x="0px" y="0px"
	 width="800px" height="600px" viewBox="0 0 800 600" enable-background="new 0 0 800 600" xml:space="preserve">
<g>
	<circle cx="-2.168" cy="-29.862" r="3.981"/>
	<path d="M7.795-35.257c1.844,0,3.33-1.494,3.33-3.33c0-1.84-1.486-3.33-3.33-3.33c-1.834,0-3.326,1.49-3.326,3.33
		C4.469-36.751,5.961-35.257,7.795-35.257z"/>
	<path d="M-1.627-44.837c1.371,0,2.479-1.111,2.479-2.479c0-1.366-1.107-2.476-2.479-2.476c-1.365,0-2.477,1.109-2.477,2.476
		C-4.104-45.949-2.992-44.837-1.627-44.837z"/>
	<path d="M30.861-16.69c0.414-0.374,0.557-0.965,0.355-1.486c-0.201-0.521-0.701-0.866-1.26-0.866h-59.914
		c-0.559,0-1.059,0.344-1.26,0.865s-0.059,1.111,0.355,1.486l29.33,26.521v37.26h-18.311c-0.746,0-1.35,0.605-1.35,1.35
		c0,0.746,0.604,1.352,1.35,1.352h39.324c0.744,0,1.35-0.605,1.35-1.352c0-0.744-0.605-1.35-1.35-1.35H1.168V10.097L30.861-16.69z
		 M26.445-16.341L15.186-6.185h-30.402l-11.234-10.156H26.445z"/>
</g>
</svg>
