<?xml version="1.0" encoding="utf-8"?>
<!-- Generator: Adobe Illustrator 15.1.0, SVG Export Plug-In . SVG Version: 6.00 Build 0)  -->
<!DOCTYPE svg PUBLIC "-//W3C//DTD SVG 1.1//EN" "http://www.w3.org/Graphics/SVG/1.1/DTD/svg11.dtd">
<svg version="1.1" id="Layer_1" xmlns="http://www.w3.org/2000/svg" xmlns:xlink="http://www.w3.org/1999/xlink" x="0px" y="0px"
	 width="800px" height="600px" viewBox="0 0 800 600" enable-background="new 0 0 800 600" xml:space="preserve">
<g>
	<path d="M22.833,8.119h-13.7c-0.583,0-1.121,0.318-1.4,0.83L0.67,21.842C0.45,21.809,0.231,21.775,0,21.775
		c-0.229,0-0.449,0.033-0.67,0.066L-7.732,8.949c-0.279-0.512-0.816-0.83-1.4-0.83h-13.699c-8.488,0-10.732,10.006-10.732,15.297
		v36.533c0,0.883,0.716,1.598,1.598,1.598H0h31.967c0.883,0,1.598-0.715,1.598-1.598V23.416
		C33.564,18.125,31.321,8.119,22.833,8.119z M29.79,18.816l-7.238,7.238l-4.252-4.252l5.226-10.453
		C27.364,11.762,29.049,15.582,29.79,18.816z M-30.37,23.416c0-0.039,0.011-1.305,0.271-3l6.594,6.592l-6.864,6.863V23.416z
		 M-30.37,41.223l6.864,6.863l-6.864,6.863V41.223z M-30.37,39.312v-3.533l7.819-7.816l9.583,9.584l-9.583,9.586L-30.37,39.312z
		 M-14.907,28.586c1.317,2.635,3.134,4.109,5.399,4.385c0.248,0.031,0.494,0.045,0.74,0.045c0.119,0,0.237-0.018,0.355-0.025
		l-3.602,3.602l-9.583-9.584l3.935-3.934L-14.907,28.586z M17.664,23.074l3.933,3.934l-9.583,9.584L8.411,32.99
		c0.12,0.008,0.238,0.025,0.357,0.025c0.247,0,0.494-0.014,0.74-0.045c2.266-0.275,4.084-1.75,5.4-4.385L17.664,23.074z
		 M5.969,32.457l5.09,5.09l-7.84,7.84c-0.451-0.471-1.002-0.838-1.621-1.076V30.4c0.164-0.061,0.316-0.141,0.469-0.221
		C3.187,31.053,4.531,31.916,5.969,32.457z M-2.066,30.18c0.154,0.08,0.307,0.158,0.469,0.221v13.91
		c-0.618,0.24-1.17,0.605-1.621,1.076l-7.84-7.84l5.09-5.09C-4.53,31.916-3.186,31.053-2.066,30.18z M-12.013,38.502l8.016,8.016
		c-0.291,0.592-0.469,1.25-0.469,1.953c0,0.727,0.191,1.406,0.502,2.014l-7.617,7.617l-10.015-10.016L-12.013,38.502z
		 M-3.174,51.604c0.44,0.449,0.981,0.795,1.577,1.025v5.723h-8.326L-3.174,51.604z M4.469,48.471c0-0.703-0.18-1.361-0.471-1.955
		l8.015-8.014l9.585,9.584L11.583,58.102l-7.617-7.617C4.277,49.877,4.469,49.197,4.469,48.471z M12.967,37.547l9.584-9.584
		l7.818,7.816v3.533l-7.817,7.82L12.967,37.547z M30.37,41.223v13.727l-6.863-6.863L30.37,41.223z M30.37,23.416v10.455
		l-6.863-6.863l6.59-6.588C30.357,22.115,30.37,23.377,30.37,23.416z M10.08,11.312h10.446l-8.033,16.066
		c-0.898,1.797-1.98,2.748-3.309,2.912c-1.672,0.205-3.605-0.832-5.211-2.045c0.306-0.605,0.496-1.279,0.496-2.004
		c0-1.07-0.396-2.043-1.025-2.812L10.08,11.312z M-3.441,23.432c-0.631,0.77-1.025,1.74-1.025,2.811
		c0,0.725,0.189,1.398,0.498,2.006c-1.604,1.211-3.535,2.244-5.213,2.043c-1.328-0.162-2.412-1.115-3.312-2.914l-8.031-16.064
		h10.444L-3.441,23.432z M-23.525,11.35l5.227,10.453l-4.252,4.252l-7.244-7.244C-29.058,15.576-27.376,11.76-23.525,11.35z
		 M-30.37,56.857l7.819-7.816l9.311,9.311h-17.13V56.857z M1.598,52.629c0.598-0.23,1.137-0.576,1.578-1.025l6.748,6.748H1.598
		V52.629z M13.241,58.352l9.312-9.311l7.817,7.816v1.494H13.241z"/>
	<path d="M30.153-25.27c3.016-3.789,4.822-8.578,4.822-13.785c0-12.23-9.951-22.184-22.184-22.184c-4.61,0-8.895,1.414-12.447,3.832
		c-1.286-2.457-3.855-4.141-6.817-4.141c-3.292,0-6.099,2.082-7.195,4.992c-0.874-0.127-1.76-0.213-2.669-0.213
		c-10.275,0-18.638,8.361-18.638,18.637c0,5.723,2.597,10.842,6.665,14.266c-1.374,1.883-2.195,4.191-2.195,6.697
		c0,6.281,5.112,11.393,11.395,11.393c0.119,0,0.234-0.016,0.353-0.018C-15.882,1.77-8.56,7.162,0,7.162
		c9.963,0,18.251-7.303,19.801-16.834c1.386,0.807,2.99,1.277,4.707,1.277c5.177,0,9.39-4.213,9.39-9.389
		C33.898-20.842,32.422-23.555,30.153-25.27z M0,4.461c-7.203,0-13.395-4.412-16.021-10.674c4.783-1.354,8.303-5.746,8.303-10.955
		c0-1.439-0.279-2.812-0.768-4.082c1.717-0.803,3.288-1.857,4.674-3.119c4.066,4.594,10.002,7.496,16.604,7.496
		c0.801,0,1.588-0.045,2.366-0.127c0.165,1.98,0.942,3.789,2.149,5.23C16.717-2.723,9.192,4.461,0,4.461z"/>
	<path d="M0.216-6.553c-0.528,0.182-2.162-0.176-2.86-0.564c1.885-1.402,3.043-4.322,3.094-4.451
		c0.182-0.463-0.047-0.982-0.51-1.166c-0.462-0.18-0.984,0.049-1.166,0.51c-0.298,0.756-1.35,2.906-2.618,3.752
		C-4.757-7.863-4.792-7.059-4.521-6.51c0.544,1.1,2.799,1.789,4.342,1.789c0.381,0,0.721-0.041,0.979-0.129
		C1.27-5.012,1.52-5.523,1.359-5.994C1.198-6.463,0.686-6.713,0.216-6.553z"/>
</g>
</svg>
