<?xml version="1.0" encoding="utf-8"?>
<!-- Generator: Adobe Illustrator 15.1.0, SVG Export Plug-In . SVG Version: 6.00 Build 0)  -->
<!DOCTYPE svg PUBLIC "-//W3C//DTD SVG 1.1//EN" "http://www.w3.org/Graphics/SVG/1.1/DTD/svg11.dtd">
<svg version="1.1" id="Layer_1" xmlns="http://www.w3.org/2000/svg" xmlns:xlink="http://www.w3.org/1999/xlink" x="0px" y="0px"
	 width="800px" height="600px" viewBox="0 0 800 600" enable-background="new 0 0 800 600" xml:space="preserve">
<g>
	<path d="M22.94,3.381H6.885c-0.547,0-1.041,0.33-1.248,0.838L0,17.932L-5.634,4.219c-0.209-0.508-0.701-0.838-1.25-0.838h-16.057
		c-8.324,0-10.525,9.889-10.525,15.115v36.703c0,0.748,0.605,1.35,1.35,1.35h64.232c0.746,0,1.351-0.602,1.351-1.35V18.496
		C33.466,13.27,31.266,3.381,22.94,3.381z M-30.766,18.496c0-0.123,0.112-12.414,7.825-12.414h15.152l6.539,15.916
		c0.21,0.506,0.702,0.836,1.25,0.836c0.547,0,1.041-0.33,1.248-0.836L7.79,6.082h15.15c0.258,0,0.504,0.016,0.744,0.041
		l-40.687,40.16V32.26c0-0.744-0.604-1.35-1.351-1.35c-0.744,0-1.35,0.605-1.35,1.35v21.59h-11.063V18.496z M30.766,53.85H19.703
		V32.26c0-0.744-0.604-1.35-1.351-1.35c-0.744,0-1.35,0.605-1.35,1.35v21.59h-34.005v-1.822c0.441-0.074,0.864-0.275,1.208-0.611
		L27.772,8.41c2.935,3.57,2.994,9.996,2.994,10.086V53.85z"/>
	<path d="M-23.802-30.65h47.605l0.397-0.621c1.617-2.518,6.802-10.998,5.614-14.424c-0.269-0.775-0.833-1.348-1.587-1.607
		c-1.55-0.537-4.313-1.23-7.239-1.967c-3.709-0.93-7.913-1.984-9.504-2.709c-0.624-0.281-1.382-0.646-2.206-1.039
		C5.098-55.02,1.76-56.549,0-56.549s-5.098,1.529-9.277,3.531c-0.825,0.393-1.582,0.758-2.206,1.039
		c-1.593,0.725-5.796,1.779-9.505,2.711c-2.926,0.734-5.688,1.428-7.24,1.965c-0.754,0.262-1.318,0.832-1.587,1.607
		c-1.185,3.424,3.998,11.906,5.614,14.424L-23.802-30.65z"/>
	<path d="M24.255-27.611c-0.144-0.607-0.688-1.039-1.315-1.039h-45.881c-0.625,0-1.17,0.432-1.313,1.041s0.15,1.238,0.71,1.518
		c0.146,0.072,1.57,0.771,4.041,1.611c-0.691,2.072-1.05,4.238-1.05,6.473c0,11.307,9.198,20.504,20.504,20.504
		s20.503-9.197,20.503-20.504c0-2.221-0.354-4.377-1.039-6.443c2.523-0.852,3.98-1.566,4.131-1.641
		C24.104-26.371,24.399-27,24.255-27.611z M17.754-18.008c0,9.816-7.986,17.803-17.804,17.803c-9.816,0-17.804-7.986-17.804-17.803
		c0-1.959,0.316-3.855,0.928-5.67c4.102,1.166,9.92,2.316,16.926,2.316c6.955,0,12.738-1.133,16.835-2.289
		C17.442-21.844,17.754-19.953,17.754-18.008z"/>
	<path d="M-9.735-16.646c-0.542,0.512-0.567,1.367-0.056,1.908c0.512,0.543,1.366,0.568,1.908,0.057
		c0.227-0.213,2.275-2.025,4.576,0.025c0.258,0.229,0.578,0.342,0.898,0.342c0.371,0,0.74-0.152,1.008-0.451
		c0.496-0.557,0.447-1.408-0.109-1.906C-4.841-19.645-8.347-17.955-9.735-16.646z"/>
	<path d="M3.335-14.682c0.226-0.213,2.275-2.025,4.575,0.025c0.258,0.229,0.578,0.342,0.898,0.342c0.371,0,0.741-0.152,1.008-0.451
		c0.496-0.557,0.447-1.408-0.109-1.906c-3.332-2.973-6.838-1.283-8.225,0.025c-0.543,0.512-0.568,1.367-0.057,1.908
		C1.938-14.195,2.792-14.17,3.335-14.682z"/>
</g>
</svg>
