<?xml version="1.0" encoding="utf-8"?>
<!-- Generator: Adobe Illustrator 15.1.0, SVG Export Plug-In . SVG Version: 6.00 Build 0)  -->
<!DOCTYPE svg PUBLIC "-//W3C//DTD SVG 1.1//EN" "http://www.w3.org/Graphics/SVG/1.1/DTD/svg11.dtd">
<svg version="1.1" id="Layer_1" xmlns="http://www.w3.org/2000/svg" xmlns:xlink="http://www.w3.org/1999/xlink" x="0px" y="0px"
	 width="800px" height="600px" viewBox="0 0 800 600" enable-background="new 0 0 800 600" xml:space="preserve">
<path d="M20.982-0.982c-2.072,0-3.92,0.982-5.102,2.506C14.699,0,12.85-0.982,10.777-0.982S6.857,0,5.676,1.523
	C4.494,0,2.646-0.982,0.573-0.982c-1.399,0-2.695,0.448-3.754,1.205v-8.236c6.702-2.574,11.462-9.059,11.462-16.664
	c0-9.863-7.995-17.857-17.858-17.857c-9.862,0-17.857,7.994-17.857,17.857c0,7.564,4.708,14.016,11.35,16.617l0.001,44.711
	c0,0.512,0.289,0.979,0.746,1.207c0.382,0.19,9.497,4.678,21.77,4.678c0,0,0,0,0.002,0c7.232,0,14.047-1.572,20.256-4.678
	c0.457-0.229,0.746-0.695,0.746-1.207V5.469C27.436,1.91,24.539-0.982,20.982-0.982z M24.734,35.807
	c-5.629,2.676-11.781,4.029-18.301,4.029H6.432c-9.673,0-17.443-3.02-19.815-4.054l-0.001-30.313l0.001-12.705l0,0v-7.705
	c0-0.246,0.026-0.486,0.072-0.721c0.047-0.232,0.116-0.457,0.202-0.672l0,0c0.049-0.121,0.112-0.231,0.173-0.346
	c-0.061,0.112-0.124,0.225-0.173,0.346c0.691-0.393,1.195-0.992,1.5-1.781c-0.136,0.084-0.261,0.182-0.385,0.282
	c0.124-0.101,0.249-0.198,0.385-0.282l0,0c0.227-0.143,0.474-0.254,0.729-0.349c0.115-0.04,0.232-0.079,0.353-0.108
	c0.079-0.021,0.16-0.039,0.241-0.055c0.214-0.037,0.43-0.065,0.654-0.065c0.242,0,0.478,0.026,0.707,0.07
	c0.227,0.046,0.445,0.11,0.656,0.193l0,0c1.076,0.423,1.9,1.329,2.227,2.45c0.04,0.141,0.072,0.285,0.1,0.43
	c0.031,0.191,0.062,0.383,0.062,0.581c0,0.017,0,0.032,0,0.044v7.715v12.66c0,0.029,0.001,0.062,0.002,0.094
	c0.041,0.707,0.629,1.27,1.348,1.27h0.001c0.745,0,1.349-0.604,1.35-1.348c0.002-2.068,1.686-3.75,3.753-3.75
	s3.749,1.682,3.751,3.75C4.326,6.211,4.93,6.814,5.676,6.814c0.744,0,1.35-0.604,1.35-1.348c0.002-2.068,1.686-3.75,3.752-3.75
	c2.068,0,3.752,1.682,3.754,3.75c0,0.744,0.604,1.348,1.35,1.348s1.35-0.604,1.35-1.348c0.002-2.068,1.684-3.75,3.752-3.75
	s3.752,1.684,3.752,3.752V35.807z M-12.128-17.723c-0.106,0.098-0.206,0.199-0.301,0.305
	C-12.334-17.525-12.234-17.625-12.128-17.723z M-12.577-17.236c-0.082,0.104-0.161,0.211-0.232,0.322
	C-12.738-17.027-12.659-17.131-12.577-17.236z M-4.839-33.375l2.807,10.411v-10.411h2.436v17.395h-2.809l-3.403-12.598v8.451
	c-0.722-0.533-1.555-0.923-2.46-1.117v-12.131H-4.839z M-19.558-20.154v-9.047c0-2.782,1.467-4.373,4.15-4.373
	s4.149,1.591,4.149,4.373v8.023c-1.044,0.273-1.983,0.799-2.752,1.512c0.01-0.102,0.019-0.203,0.019-0.314v-9.395
	c0-1.242-0.546-1.713-1.416-1.713c-0.869,0-1.417,0.471-1.417,1.713v9.395c0,1.242,0.548,1.713,1.417,1.713
	c0.094,0,0.183-0.008,0.269-0.02c-0.449,0.737-0.754,1.568-0.878,2.458C-18.304-16.061-19.558-17.596-19.558-20.154z"/>
</svg>
