<?xml version="1.0" encoding="utf-8"?>
<!-- Generator: Adobe Illustrator 15.1.0, SVG Export Plug-In . SVG Version: 6.00 Build 0)  -->
<!DOCTYPE svg PUBLIC "-//W3C//DTD SVG 1.1//EN" "http://www.w3.org/Graphics/SVG/1.1/DTD/svg11.dtd">
<svg version="1.1" id="svg2" xmlns:svg="http://www.w3.org/2000/svg"
	 xmlns="http://www.w3.org/2000/svg" xmlns:xlink="http://www.w3.org/1999/xlink" x="0px" y="0px" width="900px" height="900px"
	 viewBox="0 0 900 900" enable-background="new 0 0 900 900" xml:space="preserve">
<path id="path1" fill="#E94483" d="M1.987,3.019l1.341-2.004V0.722h-0.65L1.448-3.157L1.165-3.141l-0.04,3.836H0.899V-3.42h1.209
	l0.025-1.554H0.288L0.301-3.42h0.2v4.115H0.249v-3.918l0,0l-3.266,3.945h-1.035l-0.093,0.093l1.434,2.284h2.336v1.168h1.222
	l-0.61-0.73l0.013-0.531h0.757v1.222l1.115,0.04c0,0,0.027-0.73-0.544-0.717L1.549,3.019H1.987z M1.616-1.083l0.531,1.62v0.173
	H1.616V-1.083z M-2.327,2.554L-3.23,1.253h0.836l0.318-0.637h-0.318l2.164-2.708h0.133l-0.066,2.775L-1.85,0.775l-0.146,0.452
	l1.248,0.08l0.026,0.518l0.312,0.026l0.086,0.425l0.85-0.027L0.46,1.691L0.022,1.519l0.504-0.252h0.305l0.306,0.172l0.013,0.212
	L0.925,1.665l-0.16,0.16V2.05l0.093,0.226h0.624l0.08-0.611l0.292,0.12L2.08,1.466L1.801,1.253l0.784-0.026v0.106l-0.85,1.222
	H-2.327z"/>
</svg>
