<?xml version="1.0" encoding="utf-8"?>
<!-- Generator: Adobe Illustrator 15.1.0, SVG Export Plug-In . SVG Version: 6.00 Build 0)  -->
<!DOCTYPE svg PUBLIC "-//W3C//DTD SVG 1.1//EN" "http://www.w3.org/Graphics/SVG/1.1/DTD/svg11.dtd">
<svg version="1.1" id="svg2" xmlns:svg="http://www.w3.org/2000/svg"
	 xmlns="http://www.w3.org/2000/svg" xmlns:xlink="http://www.w3.org/1999/xlink" x="0px" y="0px" width="900px" height="900px"
	 viewBox="0 0 900 900" enable-background="new 0 0 900 900" xml:space="preserve">
<path id="path4" fill="#0087CE" d="M4.799-3.209c-0.116-0.383-2.597-0.19-2.873-0.444C1.65-3.909,0.859-6.335,0.429-6.35
	c-0.43-0.015-1.127,2.47-1.385,2.68c-0.257,0.21-2.896,0.001-3.01,0.448c-0.114,0.447,2.051,2,2.104,2.288
	c0.053,0.287-0.771,2.739-0.485,2.971c0.173,0.14,0.981-0.201,1.737-0.679l0.005,1.323c0,0-1.069,0.455-1.056,0.962h1.641v-2.65
	c0.228-0.133,0.402-0.221,0.48-0.22c0.078,0,0.253,0.094,0.48,0.235L0.932,3.644h1.644C2.562,3.029,1.573,2.735,1.573,2.735
	L1.588,1.43c0.729,0.483,1.443,0.753,1.628,0.595c0.317-0.271-0.534-2.431-0.415-2.933C2.92-1.41,4.915-2.826,4.799-3.209z
	 M2.536,1.158C2.291,1.355,0.967,0.294,0.482,0.31s-1.861,0.955-2.09,0.848C-1.835,1.051-1.22-1.074-1.22-1.074l-0.014-0.201
	c0,0-2.005-1.282-1.857-1.657c0.147-0.375,2.146,0.037,2.432-0.174c0.286-0.21,0.795-2.081,1.069-2.084
	c0.274-0.004,0.973,1.907,1.136,2.058c0.163,0.151,2.27-0.021,2.365,0.2C4.007-2.71,2.23-1.686,2.162-1.328
	C2.093-0.97,2.78,0.96,2.536,1.158z"/>
<ellipse fill="#0087CE" cx="0.482" cy="-0.556" rx="0.438" ry="0.365"/>
<path fill="#0087CE" d="M-1.156-2.375c0,0,0.218,0.167,0.404,0.167s0.364-0.158,0.364-0.158s0.073-0.065,0.143-0.004
	c0.09,0.079,0,0.163,0,0.163S-0.462-1.97-0.748-1.97c-0.377,0-0.532-0.184-0.532-0.184s-0.077-0.062-0.037-0.163
	C-1.278-2.418-1.156-2.375-1.156-2.375z"/>
<path fill="#0087CE" d="M2.134-2.375c0,0-0.218,0.167-0.404,0.167S1.366-2.366,1.366-2.366S1.293-2.431,1.224-2.37
	c-0.091,0.079,0,0.163,0,0.163S1.44-1.97,1.726-1.97c0.377,0,0.533-0.184,0.533-0.184s0.076-0.062,0.037-0.163
	C2.256-2.418,2.134-2.375,2.134-2.375z"/>
</svg>
