<?xml version="1.0" encoding="utf-8"?>
<!-- Generator: Adobe Illustrator 15.1.0, SVG Export Plug-In . SVG Version: 6.00 Build 0)  -->
<!DOCTYPE svg PUBLIC "-//W3C//DTD SVG 1.1//EN" "http://www.w3.org/Graphics/SVG/1.1/DTD/svg11.dtd">
<svg version="1.1" id="Layer_1" xmlns="http://www.w3.org/2000/svg" xmlns:xlink="http://www.w3.org/1999/xlink" x="0px" y="0px"
	 width="100px" height="100px" viewBox="0 0 100 100" enable-background="new 0 0 100 100" xml:space="preserve">
<g>
	<path fill="#010202" d="M51.767-27.791c-4.128-3.392-10.839-2.065-17.33-0.783c-3.079,0.608-6.25,1.229-8.969,1.303
		C21.503-39.106,10.318-47.662-2.834-47.662c-9.152,0-16.875,4.512-18.706,5.669h-15.312c-0.001,0-0.003,0-0.004,0
		c-4.696,0.008-6.349,8.926-6.902,16.592c-2.08-0.476-5.572-0.858-8.235,0.975c-2.233,1.537-3.365,4.211-3.365,7.945
		c0,12.839,12.97,12.839,18.508,12.839c1.063,0,2.288-0.131,3.674-0.342c-3.993,9.777-7.139,22.922-1.44,33.115
		c4.128,7.385,12.285,12.109,24.257,14.051c0.119,0.693,0.408,1.525,1.059,2.305c1.209,1.443,3.215,2.176,5.962,2.176h0.279
		c2.747,0,4.753-0.732,5.961-2.176c0.651-0.779,0.94-1.611,1.059-2.305c11.989-1.945,20.188-6.676,24.383-14.074
		c5.752-10.143,2.801-23.205-1.028-32.922c0.513,0.059,1.017,0.123,1.551,0.166c0.514,0.041,1.142,0.111,1.859,0.191
		c1.958,0.217,4.556,0.506,7.333,0.506c4.544,0,9.569-0.773,13.059-3.896c2.812-2.518,4.239-6.208,4.239-10.969
		C55.358-22.542,54.184-25.806,51.767-27.791z M19.834-8.179c-5.517-1.182-11.77-2.52-22.669-2.52
		c-10.925,0-19.52,1.646-25.794,2.85c-1.583,0.305-3.008,0.576-4.282,0.785c1.799-0.752,3.574-1.639,5.427-2.566
		c6.106-3.054,13.027-6.518,24.483-6.518c11.726,0,18.06,3.35,24.185,6.588c1.725,0.912,3.423,1.811,5.203,2.613
		C24.153-7.261,22.035-7.708,19.834-8.179z M-4.334-44.593l-0.001,26.469c-6.25,0.145-11.154,1.281-15.321,2.794
		C-19.317-31.259-12.938-43.329-4.334-44.593z M-1.335-18.117l0.001-26.479c8.726,1.228,14.983,13.143,15.323,29.418
		C9.921-16.743,5.056-17.938-1.335-18.117z M-52.358-16.481c0-2.685,0.693-4.524,2.06-5.47c1.817-1.256,4.703-0.855,6.37-0.408
		c-0.069,1.712-0.092,3.276-0.092,4.543c0,0.828,0.671,1.5,1.5,1.5c0.828,0,1.5-0.672,1.5-1.5c0.002-11.083,1.99-21.177,4.17-21.177
		c0.194,0,0.498,0.049,0.901,0.466c2.872,2.975,3.529,15.813,3.269,23.207c-0.029,0.827,0.618,1.522,1.446,1.552
		c0.018,0.001,0.036,0.001,0.054,0.001c0.804,0,1.47-0.638,1.498-1.447c0.067-1.899,0.496-17.354-2.968-23.778h11.556
		c0.3,0,0.594-0.091,0.843-0.259c0.052-0.036,3.502-2.331,8.484-3.921c-5.957,5.182-9.79,15.648-9.898,28.62
		c-2.425,0.994-4.618,2.087-6.712,3.135c-4.663,2.332-8.807,4.402-14.095,4.51C-47.875-7.552-52.358-9.687-52.358-16.481z
		 M23.888-4.285c2.317,5.525,4.472,12.416,4.662,19.131c-0.008,0-0.015-0.004-0.023-0.004c-0.322,0-0.583,0.262-0.583,0.584
		s0.261,0.582,0.583,0.582c0.015,0,0.028-0.008,0.043-0.008c-0.006,0.955-0.066,1.902-0.163,2.842
		c-0.224,0.08-0.387,0.291-0.387,0.543c0,0.209,0.116,0.383,0.28,0.486c-0.052,0.363-0.131,0.721-0.198,1.08
		c-0.106-0.137-0.265-0.229-0.451-0.229c-0.322,0-0.583,0.262-0.583,0.584s0.261,0.582,0.583,0.582c0.11,0,0.208-0.039,0.296-0.092
		c-0.22,0.984-0.522,1.943-0.873,2.889c-0.318,0.004-0.574,0.262-0.574,0.58c0,0.17,0.075,0.32,0.191,0.426
		c-0.163,0.379-0.359,0.746-0.547,1.115c-0.085-0.049-0.179-0.084-0.285-0.084c-0.322,0-0.583,0.26-0.583,0.582
		c0,0.232,0.138,0.43,0.334,0.523c-0.185,0.314-0.375,0.627-0.577,0.932c-0.096-0.068-0.207-0.117-0.333-0.117
		c-0.322,0-0.583,0.262-0.583,0.584c0,0.195,0.103,0.359,0.25,0.465c-0.258,0.344-0.529,0.678-0.811,1.006
		c-0.027-0.004-0.052-0.016-0.08-0.016c-0.322,0-0.583,0.262-0.583,0.584c0,0.051,0.017,0.096,0.029,0.145
		c-1.229,1.301-2.657,2.477-4.286,3.521c-0.102-0.17-0.28-0.289-0.493-0.289c-0.322,0-0.583,0.26-0.583,0.582
		c0,0.113,0.04,0.213,0.095,0.301c-0.878,0.514-1.809,0.992-2.792,1.436c-0.078-0.23-0.289-0.398-0.545-0.398
		c-0.322,0-0.583,0.262-0.583,0.584c0,0.102,0.033,0.193,0.08,0.277c-1.015,0.416-2.086,0.795-3.204,1.145
		c-0.106-0.148-0.27-0.25-0.465-0.25c-0.312,0-0.562,0.246-0.577,0.555c-0.5,0.143-1.006,0.281-1.526,0.41
		c0.006-0.033,0.02-0.062,0.02-0.098c0-0.322-0.261-0.584-0.583-0.584s-0.583,0.262-0.583,0.584c0,0.129,0.051,0.244,0.123,0.342
		C5.52,39.87,3.95,40.165,2.294,40.401l-1.537,0.221l0.273,1.529c0.001,0.008,0.1,0.779-0.428,1.41
		c-0.604,0.721-1.869,1.102-3.661,1.102h-0.279c-1.77,0-3.028-0.373-3.64-1.076c-0.554-0.637-0.451-1.428-0.45-1.436l0.273-1.529
		l-1.537-0.221c-1.646-0.234-3.206-0.527-4.699-0.867c0.075-0.098,0.127-0.215,0.127-0.348c0-0.322-0.261-0.584-0.583-0.584
		s-0.583,0.262-0.583,0.584c0,0.037,0.015,0.07,0.021,0.105c-0.519-0.129-1.025-0.266-1.525-0.408
		c-0.011-0.312-0.264-0.564-0.579-0.564c-0.198,0-0.365,0.105-0.47,0.256c-1.019-0.316-1.995-0.664-2.927-1.039
		c0.094-0.104,0.155-0.238,0.155-0.389c0-0.322-0.261-0.584-0.583-0.584c-0.309,0-0.555,0.242-0.575,0.545
		c-1.103-0.484-2.14-1.012-3.111-1.58c0.056-0.09,0.096-0.189,0.096-0.303c0-0.322-0.261-0.582-0.583-0.582
		c-0.212,0-0.39,0.119-0.491,0.287c-1.545-0.998-2.904-2.115-4.081-3.348c0.062-0.092,0.107-0.197,0.107-0.316
		c0-0.322-0.261-0.584-0.583-0.584c-0.099,0-0.188,0.031-0.27,0.074c-0.271-0.316-0.532-0.639-0.78-0.969
		c0.268-0.053,0.473-0.277,0.473-0.561c0-0.322-0.261-0.584-0.583-0.584c-0.217,0-0.398,0.123-0.499,0.299
		c-0.25-0.373-0.483-0.758-0.706-1.15c0.165-0.102,0.281-0.277,0.281-0.486c0-0.322-0.261-0.582-0.583-0.582
		c-0.077,0-0.149,0.016-0.217,0.043c-0.18-0.365-0.366-0.727-0.522-1.1c0.1-0.104,0.163-0.244,0.163-0.4
		c0-0.301-0.23-0.539-0.522-0.57c-0.553-1.535-0.945-3.121-1.163-4.752c0.262-0.057,0.462-0.279,0.462-0.559
		c0-0.318-0.255-0.574-0.572-0.58c-0.084-0.936-0.132-1.879-0.126-2.83c0.239-0.074,0.415-0.287,0.415-0.549
		c0-0.252-0.16-0.461-0.383-0.543c0.263-6.771,2.534-13.729,4.953-19.309c0.024-0.055,0.037-0.111,0.054-0.168
		c0.524-0.1,1.06-0.201,1.619-0.309c6.157-1.182,14.589-2.797,25.229-2.797c10.582,0,16.67,1.303,22.042,2.453
		c1.575,0.336,3.106,0.664,4.676,0.943C23.885-4.296,23.886-4.291,23.888-4.285z M49.119-9.082
		c-2.745,2.455-6.937,3.105-10.875,3.125c-6.782-0.441-11.352-2.848-16.125-5.371c-1.911-1.01-3.904-2.063-6.121-3.031
		c-0.11-13.019-3.925-23.529-9.856-28.755c10.401,3.702,17.869,13.642,17.869,25.297c0,0.828,0.671,1.5,1.5,1.5
		c0.828,0,1.5-0.672,1.5-1.5c0-2.227-0.253-4.395-0.718-6.483c2.771-0.157,5.79-0.751,8.725-1.331
		c5.807-1.147,11.811-2.335,14.844,0.157c1.68,1.381,2.496,3.885,2.496,7.657C52.358-13.89,51.299-11.033,49.119-9.082z"/>
	<circle fill="#010202" cx="-32.508" cy="15.425" r="0.583"/>
	<circle fill="#010202" cx="-29.842" cy="15.425" r="0.583"/>
	<circle fill="#010202" cx="-27.176" cy="15.425" r="0.583"/>
	<circle fill="#010202" cx="-24.51" cy="15.425" r="0.583"/>
	<circle fill="#010202" cx="-21.844" cy="15.425" r="0.583"/>
	<circle fill="#010202" cx="18.146" cy="15.425" r="0.583"/>
	<circle fill="#010202" cx="20.812" cy="15.425" r="0.583"/>
	<circle fill="#010202" cx="23.479" cy="15.425" r="0.583"/>
	<circle fill="#010202" cx="26.145" cy="15.425" r="0.583"/>
	<circle fill="#010202" cx="-33.667" cy="17.346" r="0.583"/>
	<circle fill="#010202" cx="-31.001" cy="17.347" r="0.583"/>
	<circle fill="#010202" cx="-28.335" cy="17.347" r="0.583"/>
	<circle fill="#010202" cx="-25.669" cy="17.347" r="0.583"/>
	<circle fill="#010202" cx="-23.003" cy="17.347" r="0.583"/>
	<circle fill="#010202" cx="-20.337" cy="17.347" r="0.583"/>
	<circle fill="#010202" cx="16.987" cy="17.347" r="0.583"/>
	<circle fill="#010202" cx="19.653" cy="17.347" r="0.583"/>
	<circle fill="#010202" cx="22.319" cy="17.347" r="0.583"/>
	<circle fill="#010202" cx="24.985" cy="17.347" r="0.583"/>
	<circle fill="#010202" cx="27.651" cy="17.347" r="0.583"/>
	<circle fill="#010202" cx="-32.508" cy="19.386" r="0.583"/>
	<circle fill="#010202" cx="-29.842" cy="19.386" r="0.583"/>
	<circle fill="#010202" cx="-27.176" cy="19.386" r="0.583"/>
	<circle fill="#010202" cx="-24.51" cy="19.386" r="0.583"/>
	<circle fill="#010202" cx="-21.844" cy="19.386" r="0.583"/>
	<circle fill="#010202" cx="-19.178" cy="19.386" r="0.583"/>
	<circle fill="#010202" cx="15.48" cy="19.386" r="0.583"/>
	<circle fill="#010202" cx="15.553" cy="15.425" r="0.583"/>
	<circle fill="#010202" cx="14.394" cy="17.347" r="0.583"/>
	<circle fill="#010202" cx="12.887" cy="19.386" r="0.583"/>
	<circle fill="#010202" cx="18.146" cy="19.386" r="0.583"/>
	<circle fill="#010202" cx="20.812" cy="19.386" r="0.583"/>
	<circle fill="#010202" cx="23.479" cy="19.386" r="0.583"/>
	<circle fill="#010202" cx="26.145" cy="19.386" r="0.583"/>
	<circle fill="#010202" cx="-33.667" cy="21.306" r="0.583"/>
	<circle fill="#010202" cx="-31.001" cy="21.306" r="0.583"/>
	<circle fill="#010202" cx="-28.335" cy="21.306" r="0.583"/>
	<circle fill="#010202" cx="-25.669" cy="21.306" r="0.583"/>
	<circle fill="#010202" cx="-23.003" cy="21.306" r="0.583"/>
	<circle fill="#010202" cx="-20.337" cy="21.306" r="0.583"/>
	<circle fill="#010202" cx="-17.671" cy="21.306" r="0.583"/>
	<circle fill="#010202" cx="-15.005" cy="21.306" r="0.583"/>
	<circle fill="#010202" cx="-12.339" cy="21.306" r="0.583"/>
	<circle fill="#010202" cx="-9.673" cy="21.306" r="0.583"/>
	<circle fill="#010202" cx="-7.007" cy="21.306" r="0.583"/>
	<circle fill="#010202" cx="0.991" cy="21.306" r="0.583"/>
	<circle fill="#010202" cx="3.657" cy="21.306" r="0.583"/>
	<circle fill="#010202" cx="6.323" cy="21.306" r="0.583"/>
	<circle fill="#010202" cx="8.989" cy="21.307" r="0.583"/>
	<circle fill="#010202" cx="11.655" cy="21.306" r="0.583"/>
	<circle fill="#010202" cx="14.321" cy="21.306" r="0.583"/>
	<circle fill="#010202" cx="16.987" cy="21.306" r="0.583"/>
	<circle fill="#010202" cx="19.653" cy="21.306" r="0.583"/>
	<circle fill="#010202" cx="22.319" cy="21.306" r="0.583"/>
	<circle fill="#010202" cx="24.985" cy="21.306" r="0.583"/>
	<circle fill="#010202" cx="-32.508" cy="23.345" r="0.583"/>
	<circle fill="#010202" cx="-29.842" cy="23.345" r="0.583"/>
	<circle fill="#010202" cx="-27.176" cy="23.345" r="0.583"/>
	<circle fill="#010202" cx="-24.51" cy="23.345" r="0.583"/>
	<circle fill="#010202" cx="-21.844" cy="23.345" r="0.583"/>
	<circle fill="#010202" cx="-19.178" cy="23.345" r="0.583"/>
	<circle fill="#010202" cx="-16.512" cy="23.345" r="0.583"/>
	<circle fill="#010202" cx="-13.846" cy="23.345" r="0.583"/>
	<circle fill="#010202" cx="-11.18" cy="23.345" r="0.583"/>
	<circle fill="#010202" cx="-8.514" cy="23.345" r="0.583"/>
	<circle fill="#010202" cx="-5.848" cy="23.345" r="0.583"/>
	<circle fill="#010202" cx="-3.182" cy="23.345" r="0.583"/>
	<circle fill="#010202" cx="-0.516" cy="23.345" r="0.583"/>
	<circle fill="#010202" cx="2.15" cy="23.345" r="0.583"/>
	<circle fill="#010202" cx="4.816" cy="23.345" r="0.583"/>
	<circle fill="#010202" cx="7.482" cy="23.345" r="0.583"/>
	<circle fill="#010202" cx="10.148" cy="23.345" r="0.583"/>
	<circle fill="#010202" cx="12.814" cy="23.345" r="0.583"/>
	<circle fill="#010202" cx="15.48" cy="23.345" r="0.583"/>
	<circle fill="#010202" cx="18.146" cy="23.345" r="0.583"/>
	<circle fill="#010202" cx="20.812" cy="23.345" r="0.583"/>
	<circle fill="#010202" cx="23.479" cy="23.345" r="0.583"/>
	<circle fill="#010202" cx="26.145" cy="23.345" r="0.583"/>
	<circle fill="#010202" cx="-31.001" cy="25.267" r="0.583"/>
	<circle fill="#010202" cx="-28.335" cy="25.267" r="0.583"/>
	<circle fill="#010202" cx="-25.669" cy="25.267" r="0.583"/>
	<circle fill="#010202" cx="-23.003" cy="25.267" r="0.583"/>
	<circle fill="#010202" cx="-20.337" cy="25.267" r="0.583"/>
	<circle fill="#010202" cx="-17.671" cy="25.267" r="0.583"/>
	<circle fill="#010202" cx="-15.005" cy="25.267" r="0.583"/>
	<circle fill="#010202" cx="-12.339" cy="25.267" r="0.583"/>
	<circle fill="#010202" cx="-9.673" cy="25.267" r="0.583"/>
	<circle fill="#010202" cx="-7.007" cy="25.267" r="0.583"/>
	<circle fill="#010202" cx="-4.341" cy="25.266" r="0.583"/>
	<circle fill="#010202" cx="-1.675" cy="25.267" r="0.583"/>
	<circle fill="#010202" cx="0.991" cy="25.267" r="0.583"/>
	<circle fill="#010202" cx="3.657" cy="25.267" r="0.583"/>
	<circle fill="#010202" cx="6.323" cy="25.267" r="0.583"/>
	<circle fill="#010202" cx="8.989" cy="25.267" r="0.583"/>
	<circle fill="#010202" cx="11.655" cy="25.267" r="0.583"/>
	<circle fill="#010202" cx="14.321" cy="25.267" r="0.583"/>
	<circle fill="#010202" cx="16.987" cy="25.267" r="0.583"/>
	<circle fill="#010202" cx="19.653" cy="25.267" r="0.583"/>
	<circle fill="#010202" cx="22.319" cy="25.267" r="0.583"/>
	<circle fill="#010202" cx="24.985" cy="25.267" r="0.583"/>
	<circle fill="#010202" cx="-29.842" cy="27.306" r="0.583"/>
	<circle fill="#010202" cx="-27.176" cy="27.306" r="0.583"/>
	<circle fill="#010202" cx="-24.51" cy="27.306" r="0.583"/>
	<circle fill="#010202" cx="-21.844" cy="27.306" r="0.583"/>
	<circle fill="#010202" cx="-19.178" cy="27.306" r="0.583"/>
	<circle fill="#010202" cx="-16.512" cy="27.306" r="0.583"/>
	<circle fill="#010202" cx="10.148" cy="27.306" r="0.583"/>
	<circle fill="#010202" cx="12.814" cy="27.306" r="0.583"/>
	<circle fill="#010202" cx="15.48" cy="27.306" r="0.583"/>
	<circle fill="#010202" cx="18.146" cy="27.306" r="0.583"/>
	<circle fill="#010202" cx="20.812" cy="27.306" r="0.583"/>
	<circle fill="#010202" cx="23.479" cy="27.306" r="0.583"/>
	<circle fill="#010202" cx="-28.335" cy="29.226" r="0.583"/>
	<circle fill="#010202" cx="-25.669" cy="29.226" r="0.583"/>
	<circle fill="#010202" cx="-23.003" cy="29.226" r="0.583"/>
	<circle fill="#010202" cx="-20.337" cy="29.226" r="0.583"/>
	<circle fill="#010202" cx="-17.671" cy="29.226" r="0.583"/>
	<circle fill="#010202" cx="-15.005" cy="29.226" r="0.583"/>
	<circle fill="#010202" cx="8.989" cy="29.226" r="0.583"/>
	<circle fill="#010202" cx="11.655" cy="29.226" r="0.583"/>
	<circle fill="#010202" cx="14.321" cy="29.226" r="0.583"/>
	<circle fill="#010202" cx="16.987" cy="29.226" r="0.583"/>
	<circle fill="#010202" cx="19.653" cy="29.226" r="0.583"/>
	<circle fill="#010202" cx="22.319" cy="29.226" r="0.583"/>
	<circle fill="#010202" cx="-27.176" cy="31.265" r="0.583"/>
	<circle fill="#010202" cx="-24.51" cy="31.265" r="0.583"/>
	<circle fill="#010202" cx="-21.844" cy="31.265" r="0.583"/>
	<circle fill="#010202" cx="-19.178" cy="31.265" r="0.583"/>
	<circle fill="#010202" cx="-16.512" cy="31.265" r="0.583"/>
	<circle fill="#010202" cx="-13.846" cy="31.265" r="0.583"/>
	<circle fill="#010202" cx="7.482" cy="31.265" r="0.583"/>
	<circle fill="#010202" cx="10.148" cy="31.265" r="0.583"/>
	<circle fill="#010202" cx="12.814" cy="31.265" r="0.583"/>
	<circle fill="#010202" cx="15.48" cy="31.265" r="0.583"/>
	<circle fill="#010202" cx="18.146" cy="31.265" r="0.583"/>
	<circle fill="#010202" cx="20.812" cy="31.265" r="0.583"/>
	<circle fill="#010202" cx="-25.669" cy="33.187" r="0.583"/>
	<circle fill="#010202" cx="-23.003" cy="33.187" r="0.583"/>
	<circle fill="#010202" cx="-20.337" cy="33.187" r="0.583"/>
	<circle fill="#010202" cx="-17.671" cy="33.187" r="0.583"/>
	<circle fill="#010202" cx="-15.005" cy="33.187" r="0.583"/>
	<circle fill="#010202" cx="-12.339" cy="33.187" r="0.583"/>
	<circle fill="#010202" cx="-9.673" cy="33.187" r="0.583"/>
	<circle fill="#010202" cx="-7.007" cy="33.187" r="0.583"/>
	<circle fill="#010202" cx="-4.341" cy="33.187" r="0.583"/>
	<circle fill="#010202" cx="-1.675" cy="33.187" r="0.583"/>
	<circle fill="#010202" cx="0.991" cy="33.187" r="0.583"/>
	<circle fill="#010202" cx="3.657" cy="33.187" r="0.583"/>
	<circle fill="#010202" cx="6.323" cy="33.186" r="0.583"/>
	<circle fill="#010202" cx="8.989" cy="33.186" r="0.583"/>
	<circle fill="#010202" cx="11.655" cy="33.187" r="0.583"/>
	<circle fill="#010202" cx="14.321" cy="33.187" r="0.583"/>
	<circle fill="#010202" cx="16.987" cy="33.187" r="0.583"/>
	<circle fill="#010202" cx="19.653" cy="33.187" r="0.583"/>
	<circle fill="#010202" cx="-21.844" cy="35.226" r="0.583"/>
	<circle fill="#010202" cx="-19.178" cy="35.226" r="0.583"/>
	<circle fill="#010202" cx="-16.512" cy="35.226" r="0.583"/>
	<circle fill="#010202" cx="-13.846" cy="35.226" r="0.583"/>
	<circle fill="#010202" cx="-11.18" cy="35.226" r="0.583"/>
	<circle fill="#010202" cx="-8.514" cy="35.226" r="0.583"/>
	<circle fill="#010202" cx="-5.848" cy="35.226" r="0.583"/>
	<circle fill="#010202" cx="-3.182" cy="35.226" r="0.583"/>
	<circle fill="#010202" cx="-0.516" cy="35.226" r="0.583"/>
	<circle fill="#010202" cx="2.15" cy="35.226" r="0.583"/>
	<circle fill="#010202" cx="4.816" cy="35.226" r="0.583"/>
	<circle fill="#010202" cx="7.482" cy="35.226" r="0.583"/>
	<circle fill="#010202" cx="10.148" cy="35.226" r="0.583"/>
	<circle fill="#010202" cx="12.814" cy="35.226" r="0.583"/>
	<circle fill="#010202" cx="15.48" cy="35.226" r="0.583"/>
	<circle fill="#010202" cx="-17.671" cy="37.146" r="0.583"/>
	<circle fill="#010202" cx="-15.005" cy="37.146" r="0.583"/>
	<circle fill="#010202" cx="-12.339" cy="37.146" r="0.583"/>
	<circle fill="#010202" cx="-9.673" cy="37.146" r="0.583"/>
	<circle fill="#010202" cx="-7.007" cy="37.146" r="0.583"/>
	<circle fill="#010202" cx="-4.341" cy="37.147" r="0.583"/>
	<circle fill="#010202" cx="-1.675" cy="37.146" r="0.583"/>
	<circle fill="#010202" cx="0.991" cy="37.146" r="0.583"/>
	<circle fill="#010202" cx="3.657" cy="37.146" r="0.583"/>
	<circle fill="#010202" cx="6.323" cy="37.146" r="0.583"/>
	<circle fill="#010202" cx="8.989" cy="37.146" r="0.583"/>
	<circle fill="#010202" cx="11.655" cy="37.146" r="0.583"/>
	<circle fill="#010202" cx="-11.18" cy="39.185" r="0.583"/>
	<circle fill="#010202" cx="-8.514" cy="39.185" r="0.583"/>
	<circle fill="#010202" cx="-5.848" cy="39.185" r="0.583"/>
	<circle fill="#010202" cx="-3.182" cy="39.185" r="0.583"/>
	<circle fill="#010202" cx="-0.516" cy="39.185" r="0.583"/>
	<circle fill="#010202" cx="2.15" cy="39.185" r="0.583"/>
	<circle fill="#010202" cx="4.816" cy="39.185" r="0.583"/>
	<circle fill="#010202" cx="-4.341" cy="41.107" r="0.583"/>
	<circle fill="#010202" cx="-1.675" cy="41.107" r="0.583"/>
	<circle fill="#010202" cx="-5.848" cy="43.146" r="0.583"/>
	<circle fill="#010202" cx="-3.182" cy="43.146" r="0.583"/>
	<circle fill="#010202" cx="-0.516" cy="43.146" r="0.583"/>
	<path fill="#010202" d="M-5.053,3.184c-4.027-3.592-8.26-1.553-9.936,0.027c-0.6,0.566-0.626,1.506-0.065,2.109
		c0.561,0.604,1.509,0.637,2.116,0.08c0.295-0.271,2.974-2.578,5.888,0.021c0.286,0.254,0.643,0.381,0.998,0.381
		c0.413,0,0.824-0.17,1.12-0.502C-4.381,4.682-4.435,3.735-5.053,3.184z"/>
	<path fill="#010202" d="M0.929,5.393c0.116-0.109,2.878-2.65,5.883,0.029c0.286,0.254,0.643,0.381,0.998,0.381
		c0.413,0,0.824-0.17,1.12-0.502C9.48,4.682,9.426,3.735,8.808,3.182C4.778-0.408,0.545,1.631-1.13,3.211
		C-1.732,3.78-1.76,4.729-1.192,5.333C-0.623,5.934,0.326,5.961,0.929,5.393z"/>
</g>
</svg>
