<?xml version="1.0" encoding="utf-8"?>
<!-- Generator: Adobe Illustrator 15.1.0, SVG Export Plug-In . SVG Version: 6.00 Build 0)  -->
<!DOCTYPE svg PUBLIC "-//W3C//DTD SVG 1.1//EN" "http://www.w3.org/Graphics/SVG/1.1/DTD/svg11.dtd">
<svg version="1.1" id="Layer_1" xmlns="http://www.w3.org/2000/svg" xmlns:xlink="http://www.w3.org/1999/xlink" x="0px" y="0px"
	 width="100px" height="100px" viewBox="0 0 100 100" enable-background="new 0 0 100 100" xml:space="preserve">
<g>
	<path fill="#010202" d="M-0.028,39.021c-2.688,0.062-5.146-1.447-6.125-0.846c-0.812,0.5,0.125,4.812,6.125,4.75
		c6,0.062,6.938-4.25,6.125-4.75C5.119,37.574,2.66,39.083-0.028,39.021z"/>
	<path fill="#010202" d="M0.257-4.067c0.828,0,1.5-0.672,1.5-1.5v-13.616c0-0.828-0.672-1.5-1.5-1.5s-1.5,0.672-1.5,1.5v13.616
		C-1.243-4.739-0.571-4.067,0.257-4.067z"/>
	<path fill="#010202" d="M14.086-4.067c0.828,0,1.5-0.672,1.5-1.5v-13.616c0-0.828-0.672-1.5-1.5-1.5s-1.5,0.672-1.5,1.5v13.616
		C12.586-4.739,13.258-4.067,14.086-4.067z"/>
	<path fill="#010202" d="M-13.393-4.067c0.828,0,1.5-0.672,1.5-1.5v-13.616c0-0.828-0.672-1.5-1.5-1.5s-1.5,0.672-1.5,1.5v13.616
		C-14.893-4.739-14.221-4.067-13.393-4.067z"/>
	<circle fill="#010202" cx="11.801" cy="29.889" r="1.062"/>
	<circle fill="#010202" cx="15.512" cy="29.889" r="1.062"/>
	<circle fill="#010202" cx="13.656" cy="33.11" r="1.062"/>
	<circle fill="#010202" cx="-15.571" cy="29.889" r="1.062"/>
	<circle fill="#010202" cx="-11.86" cy="29.889" r="1.062"/>
	<circle fill="#010202" cx="-13.715" cy="33.11" r="1.062"/>
	<path fill="#010202" d="M13.258,24.089c-1.6-0.17-3.674-1.729-6.721-1.574c-3.047,0.158-3.252,2.283-2.316,2.887
		c0.857,0.555,1.48-0.266,2.896-0.422c1.414-0.156,3.965,0.014,5.682,0.164C14.346,25.279,14.359,24.208,13.258,24.089z"/>
	<path fill="#010202" d="M-4.473,25.402c0.935-0.604,0.73-2.729-2.316-2.887c-3.047-0.154-5.121,1.404-6.721,1.574
		c-1.102,0.119-1.088,1.189,0.459,1.055c1.717-0.15,4.268-0.32,5.682-0.164C-5.954,25.136-5.331,25.957-4.473,25.402z"/>
	<path fill="#010202" d="M35.033,40.986c-0.559,0.26-1.086,0-1.086,0c1.086,0,0.98-1.527,0.98-1.527
		c-0.225,0.654-1.758,2.303-4.084-1.033c-1.484-2.127-3.502-2.959-4.771-3.283c0.003-0.055,0.017-0.105,0.017-0.16
		c0-1.43-1.063-2.602-2.44-2.797c0.433-3.209,2.354-18.279,1.132-23.426h4.934v-9.307h-4.73v-19.926
		c6.049-3.007,9.91-8.931,9.91-15.357c0-9.598-8.394-17.405-18.711-17.405c-2.931,0-5.828,0.651-8.43,1.874
		C3.051-53.57-2.752-53.564-7.45-51.346c-2.61-1.232-5.521-1.891-8.466-1.891c-10.318,0-18.712,7.808-18.712,17.405
		c0,6.378,3.832,12.293,9.828,15.313v19.97h-4.735v9.307h5.056c-1.448,5.867,0.593,9.477,0.776,17.1v4.758
		c-0.012,0.197-0.036,0.76,0.006,1.574c-1.356,0.213-2.395,1.377-2.395,2.791c0,0.055,0.013,0.105,0.016,0.16
		c-1.269,0.324-3.285,1.156-4.77,3.283c-2.326,3.336-3.857,1.688-4.084,1.033c0,0-0.104,1.527,0.982,1.527c0,0-0.529,0.26-1.086,0
		c0,0,0.414,1.291,2.016,0.93c0,0-0.412,0.689-1.318,0.854c0,0,10.23,2.951,12.036-4.238c1.28,3.18,3.689,6.656,8.214,9.107
		c9.561,5.18,10.611,5.598,14.053,5.598c3.442,0,4.493-0.418,14.052-5.598c4.575-2.479,6.987-6.006,8.257-9.213
		c1.733,7.32,12.059,4.344,12.059,4.344c-0.906-0.164-1.318-0.854-1.318-0.854C34.617,42.277,35.033,40.986,35.033,40.986z
		 M-21.883-21.426c0.026-0.598-0.306-1.178-0.885-1.436c-5.382-2.398-8.86-7.489-8.86-12.97c0-7.943,7.048-14.405,15.712-14.405
		c1.749,0,3.482,0.273,5.123,0.792c-1.429,1.13-2.657,2.474-3.616,3.982c-0.445,0.698-0.238,1.626,0.461,2.07
		c0.249,0.159,0.528,0.234,0.803,0.234c0.496,0,0.981-0.245,1.267-0.695c1.203-1.892,2.928-3.477,4.987-4.585
		c0.002-0.002,0.005-0.004,0.007-0.006c0.069-0.037,0.134-0.084,0.197-0.133c0.016-0.012,0.034-0.021,0.049-0.033
		c0.025-0.021,0.046-0.049,0.07-0.07c0.019-0.02,0.038-0.038,0.056-0.058c4.058-2.016,9.159-2.032,13.239-0.056
		c0.027,0.033,0.061,0.062,0.092,0.094c0.029,0.029,0.057,0.062,0.088,0.09c0.01,0.008,0.021,0.013,0.029,0.02
		c0.068,0.055,0.141,0.105,0.217,0.147c0.003,0.001,0.004,0.003,0.007,0.004c1.898,1.022,3.526,2.464,4.708,4.167
		c0.291,0.42,0.758,0.645,1.233,0.645c0.295,0,0.593-0.087,0.854-0.268c0.681-0.473,0.85-1.406,0.378-2.088
		c-0.902-1.299-2.031-2.451-3.299-3.453c1.649-0.523,3.392-0.801,5.15-0.801c8.663,0,15.711,6.462,15.711,14.405
		c0,5.542-3.529,10.652-8.992,13.026c-0.002,0.001-0.006,0.003-0.009,0.004c-0.002,0.002-0.005,0.002-0.007,0.004
		c-0.01,0.004-0.018,0.01-0.026,0.015c-0.079,0.036-0.157,0.077-0.228,0.128c-0.033,0.021-0.061,0.049-0.09,0.073
		c-0.045,0.036-0.092,0.071-0.131,0.112c-0.031,0.032-0.057,0.068-0.084,0.102c-0.033,0.041-0.068,0.081-0.098,0.125
		c-0.023,0.035-0.041,0.074-0.061,0.11c-0.025,0.048-0.054,0.095-0.074,0.146c-0.018,0.042-0.027,0.085-0.039,0.128
		c-0.016,0.049-0.033,0.098-0.044,0.148c-0.013,0.067-0.017,0.137-0.021,0.205c-0.002,0.027-0.008,0.054-0.008,0.082v0.012
		c0,0.002,0,0.004,0,0.006v20.857H-21.8v-20.41C-21.8-21.122-21.833-21.277-21.883-21.426z M-26.536,2.453h53.25v3.307h-53.25V2.453
		z M12.59,45c-9.664,5.236-10.059,5.236-12.624,5.236s-2.959,0-12.624-5.236c-8.626-4.672-8.078-13.834-8.051-14.219l0.002-9.059
		c5.495-7.559,5.777-12.941,5.777-12.941c1.398,2.801,0.312,5.625,0.312,5.625c3.312-3.42,3.704-5.627,3.708-5.646h0.003
		c0.024,0.021,6.888,6.074,15.003,9.846c0,0-6.153-6.607-5.803-9.242c0,0,3.286,6.037,11.858,9.262
		c7.874,2.961,10.178,9.52,10.5,12.963C20.608,33.974,19.85,41.068,12.59,45z"/>
</g>
</svg>
