<?xml version="1.0" encoding="utf-8"?>
<!-- Generator: Adobe Illustrator 15.1.0, SVG Export Plug-In . SVG Version: 6.00 Build 0)  -->
<!DOCTYPE svg PUBLIC "-//W3C//DTD SVG 1.1//EN" "http://www.w3.org/Graphics/SVG/1.1/DTD/svg11.dtd">
<svg version="1.1" id="Layer_1" xmlns="http://www.w3.org/2000/svg" xmlns:xlink="http://www.w3.org/1999/xlink" x="0px" y="0px"
	 width="100px" height="100px" viewBox="0 0 100 100" enable-background="new 0 0 100 100" xml:space="preserve">
<g>
	<path fill="#010202" d="M-8.92,6.877c-2.637-0.07-4.644,1.863-4.863,2.082c-0.583,0.584-0.582,1.525-0.002,2.113
		c0.292,0.295,0.678,0.443,1.064,0.443c0.381,0,0.761-0.143,1.053-0.43c0.355-0.348,1.528-1.24,2.695-1.209
		c0.681,0.02,1.307,0.35,1.914,1.014c0.561,0.609,1.508,0.65,2.119,0.092c0.611-0.561,0.652-1.51,0.092-2.119
		C-6.008,7.596-7.416,6.91-8.92,6.877z"/>
	<path fill="#010202" d="M8.92,6.877C7.416,6.91,6.008,7.598,4.848,8.863c-0.56,0.611-0.518,1.559,0.092,2.119
		C5.551,11.541,6.5,11.5,7.06,10.891c0.606-0.664,1.233-0.994,1.913-1.014c1.168-0.021,2.34,0.861,2.695,1.209
		c0.293,0.289,0.674,0.434,1.055,0.434c0.385,0,0.768-0.146,1.061-0.439c0.586-0.586,0.586-1.535,0-2.121
		C13.564,8.74,11.564,6.822,8.92,6.877z"/>
	<path fill="#010202" d="M13.02,28.088c-3.475,0-5.377-0.883-7.219-1.738C4.163,25.59,2.469,24.805,0,24.805
		c-2.471,0-4.164,0.785-5.803,1.547c-1.84,0.854-3.744,1.736-7.217,1.736c-0.828,0-1.5,0.672-1.5,1.5s0.672,1.5,1.5,1.5
		c1.429,0,2.641-0.139,3.709-0.352c1.564,1.166,4.983,3.293,9.094,3.293c2.656,0,5.598-0.912,8.507-3.527
		c1.296,0.344,2.823,0.586,4.729,0.586c0.828,0,1.5-0.672,1.5-1.5S13.848,28.088,13.02,28.088z M-6.82,30.043
		c0.854-0.312,1.6-0.654,2.281-0.971c1.525-0.709,2.73-1.268,4.539-1.268c1.807,0,3.012,0.559,4.537,1.268
		c0.477,0.221,0.984,0.455,1.537,0.684C0.941,33.668-4.104,31.711-6.82,30.043z"/>
	<path fill="#010202" d="M24.883-23.769l-8.445-8.447c-1.543-1.541-4.457-2.748-6.635-2.748H7.964
		c0.001-0.069,0.007-0.141,0.007-0.21c0-4.609-1.963-6.993-3.693-9.097c-1.615-1.963-3.012-3.657-3.012-7.192
		c0-0.829-0.672-1.5-1.5-1.5s-1.5,0.672-1.5,1.5c0.002,3.535-1.395,5.23-3.01,7.192c-1.73,2.104-3.693,4.487-3.693,9.097
		c0,0.069,0.007,0.141,0.008,0.21h-1.367c-2.181,0-5.096,1.207-6.637,2.749l-8.449,8.448c-1.542,1.544-2.75,4.459-2.75,6.637v45.728
		c0,1.961,0.488,4.967,1.111,6.842l4.467,13.4c0.773,2.311,3.287,4.123,5.723,4.123h32.664c2.44,0,4.953-1.812,5.723-4.125
		l4.467-13.398c0.623-1.865,1.111-4.871,1.111-6.842V-17.13C27.633-19.31,26.426-22.226,24.883-23.769z M0.021,19.092
		c-0.008,0-0.014-0.004-0.021-0.004c-0.039,0-0.078,0.002-0.117,0.002s-0.078-0.002-0.117-0.002c-0.007,0-0.013,0.004-0.02,0.004
		c-7.202,0.045-14.092,1.949-15.918,2.496l-8.461-5.48V5.133c3.631-1.26,15.74-5.836,25.613-13.769
		C3.371-5.949,12.002,2.791,24.633,4.656v11.301l-8.693,5.631C14.115,21.041,7.225,19.137,0.021,19.092z M-24.633-17.13
		c0-0.619,0.176-1.373,0.451-2.11c2.804-0.572,12.319-2.776,19.56-7.583c0.686,0.417,1.392,0.713,2.069,0.918
		c0.697,0.416,1.482,0.653,2.32,0.653c0.799,0,1.554-0.228,2.233-0.624c0.007-0.002,0.015-0.004,0.021-0.006
		c-7.496,8.113-21.607,14.58-26.654,16.726V-17.13z M11.911-21.297c1.56,1.144,5.104,3.254,10.04,3.254
		c0.81,0,1.658-0.062,2.54-0.188c0.089,0.39,0.142,0.766,0.142,1.102v6.26c-7.811-0.081-13.973-3.949-15.997-5.394
		C9.879-17.856,10.992-19.529,11.911-21.297z M7.357-14.713c2.107,1.543,8.674,5.776,17.275,5.851V1.615
		C13.41-0.227,5.469-8.16,3.276-10.58C4.725-11.877,6.094-13.257,7.357-14.713z M22.762-21.648c0.373,0.373,0.729,0.902,1.027,1.492
		c-5.799,0.683-9.793-2.027-11.003-2.987c0.903-2.096,1.536-4.31,1.845-6.638L22.762-21.648z M11.785-31.562
		C10.521-12.418-17-0.896-24.633,1.934v-8.916C-19.129-9.24,4.006-19.384,8.184-31.964h1.619
		C10.387-31.964,11.09-31.808,11.785-31.562z M-2.428-42.364c0.748-0.907,1.537-1.868,2.195-3.036
		c0.656,1.168,1.446,2.128,2.193,3.035c1.615,1.963,3.01,3.657,3.01,7.19c0,0.479-0.033,0.96-0.107,1.51
		c-0.004,0.021,0,0.04-0.002,0.06c-0.622-2.777-2.667-4.823-5.094-4.823c-2.465,0-4.482,2-5.096,4.795c0-0.011,0.001-0.021,0-0.031
		c-0.074-0.55-0.109-1.03-0.109-1.51C-5.438-38.708-4.043-40.402-2.428-42.364z M-14.312-30.094c0.996-0.996,3.105-1.87,4.516-1.87
		h1.424c0.428,1.634,1.189,2.879,2.101,3.822c-5.681,3.598-12.804,5.643-16.524,6.537c0.012-0.013,0.023-0.029,0.035-0.042
		L-14.312-30.094z M23.676,34.49l-4.468,13.4c-0.36,1.084-1.731,2.072-2.876,2.072h-32.664c-1.143,0-2.514-0.988-2.877-2.074
		l-4.467-13.396c-0.518-1.562-0.957-4.262-0.957-5.895V18.49l7.766,5.029c0.164,0.105,0.354,0.16,0.543,0.16
		c0.104,0,0.207-0.016,0.307-0.047c0.078-0.025,7.943-2.518,15.9-2.543c7.957,0.025,15.825,2.518,15.904,2.543
		c0.1,0.031,0.203,0.047,0.305,0.047c0.191,0,0.381-0.055,0.545-0.16l7.996-5.18v10.258C24.633,30.238,24.195,32.938,23.676,34.49z"
		/>
</g>
</svg>
