<?xml version="1.0" encoding="utf-8"?>
<!-- Generator: Adobe Illustrator 15.1.0, SVG Export Plug-In . SVG Version: 6.00 Build 0)  -->
<!DOCTYPE svg PUBLIC "-//W3C//DTD SVG 1.1//EN" "http://www.w3.org/Graphics/SVG/1.1/DTD/svg11.dtd">
<svg version="1.1" id="Layer_1" xmlns="http://www.w3.org/2000/svg" xmlns:xlink="http://www.w3.org/1999/xlink" x="0px" y="0px"
	 width="800px" height="600px" viewBox="0 0 800 600" enable-background="new 0 0 800 600" xml:space="preserve">
<g>
	<path d="M45.96,14.245h-59.287c-4.375,0-7.805,4.637-7.805,10.557c0,5.818,3.502,10.555,7.805,10.555H45.96
		c4.303,0,7.803-4.736,7.803-10.555C53.763,18.981,50.263,14.245,45.96,14.245z M45.96,32.657h-59.287
		c-2.766,0-5.104-3.598-5.104-7.855c0-4.26,2.338-7.857,5.104-7.857H45.96c2.766,0,5.102,3.598,5.102,7.857
		C51.062,29.06,48.726,32.657,45.96,32.657z"/>
	<path d="M-8.228,19.97c-2.312,0-4.191,2.162-4.191,4.832c0,2.666,1.879,4.83,4.191,4.83c2.318,0,4.195-2.164,4.195-4.83
		C-4.032,22.132-5.909,19.97-8.228,19.97z"/>
	<ellipse cx="8.45" cy="24.801" rx="4.193" ry="4.831"/>
	<ellipse cx="25.124" cy="24.801" rx="4.191" ry="4.831"/>
	<ellipse cx="41.798" cy="24.801" rx="4.193" ry="4.831"/>
	<path d="M-17.858,9.802h68.352c0.744,0,1.35-0.605,1.35-1.35v-17.33c0-0.043-0.008-0.082-0.012-0.123
		c0.004-0.041,0.012-0.08,0.012-0.123v-24.883c0-0.746-0.605-1.35-1.35-1.35H23.687c-0.57,0-1.078,0.357-1.271,0.893l-8.701,24.234
		H3.021v-7.152c0-1.441-1.172-2.615-2.615-2.615H-2.21c-1.441,0-2.615,1.174-2.615,2.615v7.152h-9.1
		c-0.631,0-1.178,0.438-1.318,1.053l-3.932,17.33c-0.09,0.4,0.006,0.818,0.262,1.141C-18.657,9.614-18.269,9.802-17.858,9.802z
		 M24.636-32.657h24.508v22.428H16.583L24.636-32.657z M-2.126-17.298h2.447v7.068h-2.447V-17.298z M-12.847-7.528h61.99V7.101
		h-65.311L-12.847-7.528z"/>
	<path d="M-20.956-3.86c-0.258-0.312-0.641-0.494-1.045-0.494h-12.648V-18.11c0-0.084-0.006-0.166-0.016-0.248
		c0.086-1.309-0.361-2.527-1.24-3.363l-0.291-0.277c-0.133-0.145-0.273-0.273-0.375-0.359l-8.771-8.363
		c-1.135-1.08-2.607-1.727-3.943-1.727c-1.113,0-2.111,0.43-2.887,1.242c-0.922,0.969-1.48,2.186-1.576,3.428
		c-0.102,1.326,0.354,2.574,1.309,3.48l8.672,7.289v37.426l-7.545,6.172c-0.027,0.023-0.053,0.045-0.078,0.068
		c-0.893,0.85-1.346,2.1-1.244,3.426c0.094,1.242,0.654,2.459,1.576,3.426c0.789,0.828,1.869,1.777,3.234,1.777c0,0,0,0,0.002,0
		c0.859,0,1.66-0.367,2.449-1.117l8.504-8.111c0.293-0.229,0.568-0.488,0.818-0.779l0.113-0.109
		c0.812-0.775,1.252-1.865,1.246-3.082l0.006-0.037c0.02-0.162,0.037-0.322,0.037-0.49V4.095h11.502
		c0.645,0,1.199-0.453,1.324-1.086l1.146-5.75C-20.599-3.138-20.7-3.548-20.956-3.86z M-37.349,21.56
		c0,0.049-0.01,0.096-0.016,0.143l-0.021,0.176c-0.006,0.057-0.008,0.115-0.006,0.172c0.008,0.346-0.057,0.826-0.412,1.168
		l-0.166,0.158c-0.035,0.033-0.068,0.068-0.1,0.107c-0.15,0.18-0.316,0.338-0.492,0.469c-0.043,0.031-0.082,0.066-0.119,0.102
		l-8.557,8.16c-0.244,0.232-0.463,0.371-0.586,0.371c-0.092,0-0.451-0.066-1.281-0.939c-0.486-0.51-0.793-1.154-0.84-1.77
		c-0.023-0.295,0-0.842,0.387-1.234l7.994-6.539c0.314-0.258,0.496-0.641,0.496-1.045v-38.695c0-0.398-0.176-0.777-0.482-1.033
		l-9.094-7.639c-0.414-0.395-0.436-0.961-0.414-1.262c0.049-0.615,0.354-1.262,0.84-1.771c0.264-0.277,0.559-0.404,0.932-0.404
		c0.639,0,1.455,0.385,2.08,0.98l8.826,8.412c0.078,0.068,0.154,0.135,0.223,0.211c0.021,0.023,0.043,0.047,0.066,0.068l0.322,0.307
		c0.422,0.404,0.434,0.99,0.404,1.303c-0.008,0.074-0.01,0.148-0.004,0.225c0.004,0.064,0.012,0.127,0.02,0.131V21.56z
		 M-24.255,1.396h-10.395v-3.049h11.004L-24.255,1.396z"/>
</g>
</svg>
