<?xml version="1.0" encoding="utf-8"?>
<!-- Generator: Adobe Illustrator 15.1.0, SVG Export Plug-In . SVG Version: 6.00 Build 0)  -->
<!DOCTYPE svg PUBLIC "-//W3C//DTD SVG 1.1//EN" "http://www.w3.org/Graphics/SVG/1.1/DTD/svg11.dtd">
<svg version="1.1" id="Layer_1" xmlns="http://www.w3.org/2000/svg" xmlns:xlink="http://www.w3.org/1999/xlink" x="0px" y="0px"
	 width="800px" height="600px" viewBox="0 0 800 600" enable-background="new 0 0 800 600" xml:space="preserve">
<g>
	<path d="M11.469,29.486l-1.77,1.504H-0.542l-1.767-1.504c-0.568-0.483-1.418-0.415-1.902,0.152
		c-0.482,0.566-0.416,1.419,0.151,1.902l2.145,1.828c0.245,0.207,0.556,0.322,0.876,0.322h11.236c0.32,0,0.631-0.115,0.875-0.322
		l2.146-1.828c0.568-0.483,0.637-1.334,0.153-1.902C12.889,29.071,12.036,29.002,11.469,29.486z"/>
	<path d="M34.896-9.335l-14.346-37.67c-0.229-0.602-0.85-0.958-1.483-0.851l-35.718,5.953c-0.012,0.002-0.021,0.009-0.031,0.011
		c-0.137,0.026-0.268,0.07-0.389,0.138c-0.018,0.008-0.033,0.021-0.051,0.031c-0.119,0.072-0.229,0.156-0.322,0.262
		c-0.004,0.004-0.006,0.007-0.008,0.011c-0.086,0.101-0.154,0.218-0.211,0.345c-0.008,0.02-0.019,0.038-0.025,0.06
		c-0.006,0.013-0.014,0.024-0.019,0.038L-27.785-11.5c-0.24,0.705,0.136,1.474,0.841,1.714c0.146,0.049,0.292,0.072,0.437,0.072
		c0.562,0,1.086-0.354,1.277-0.914l7.193-21.059l-0.892,30.801c-0.03,0.111-0.053,0.229-0.053,0.35v31.05
		c0,0.211,0.05,0.417,0.142,0.604l8.004,16.008c0.229,0.457,0.696,0.748,1.207,0.748h32.341c0.447,0,0.866-0.222,1.117-0.593
		l10.879-16.009c0.153-0.223,0.233-0.488,0.233-0.759V-8.553C35.002-8.812,34.992-9.083,34.896-9.335z M24.932,3.475
		c-0.021-0.001-0.041-0.007-0.061-0.007H8.734c-0.383,0-0.742,0.167-0.997,0.45H4.641c-0.255-0.283-0.614-0.45-0.998-0.45h-16.135
		c-0.381,0-0.744,0.162-1,0.443c-0.004,0.002-0.004,0.005-0.006,0.007h-2.783V0.621l48.523-7.882v6.484L24.932,3.475z M23.381,6.168
		l-0.851,8.664h-10.2l-1.915-8.664H23.381z M1.963,6.168l-1.914,8.664h-10.201l-0.851-8.664H1.963z M31.783-9.922L-16.191-2.13
		l1.08-37.292l33.533-5.59L31.783-9.922z M21.998,45.174H-8.793l-7.488-14.979V5.718h2.521l1.04,10.598
		c0.068,0.691,0.648,1.217,1.344,1.217h12.51c0.633,0,1.182-0.439,1.316-1.059L4.826,5.718h2.725l2.377,10.756
		c0.136,0.619,0.685,1.059,1.318,1.059h12.508c0.695,0,1.275-0.525,1.344-1.217l1.117-11.365c0.003-0.047-0.002-0.094-0.002-0.14
		l6.029-3.507v28.795L21.998,45.174z"/>
	<path d="M-27.932-7.766c-0.436-0.238-0.983-0.08-1.223,0.354l-4.389,7.952c-0.239,0.435-0.081,0.983,0.354,1.222
		c0.139,0.076,0.287,0.113,0.434,0.113c0.318,0,0.626-0.17,0.789-0.467l4.388-7.95C-27.338-6.979-27.496-7.525-27.932-7.766z"/>
	<path d="M-24.967-7.442c-0.483-0.113-0.967,0.189-1.08,0.674l-1.369,5.94c-0.111,0.485,0.19,0.968,0.674,1.079
		c0.068,0.016,0.137,0.023,0.203,0.023c0.41,0,0.781-0.281,0.876-0.698l1.371-5.94C-24.18-6.848-24.482-7.332-24.967-7.442z"/>
	<path d="M-30.267-8.567c0.31-0.389,0.243-0.955-0.147-1.265c-0.39-0.308-0.955-0.241-1.264,0.147l-3.106,3.931
		c-0.31,0.391-0.243,0.956,0.147,1.265c0.166,0.131,0.362,0.194,0.557,0.194c0.266,0,0.529-0.118,0.707-0.343L-30.267-8.567z"/>
</g>
</svg>
