<?xml version="1.0" encoding="utf-8"?>
<!-- Generator: Adobe Illustrator 15.1.0, SVG Export Plug-In . SVG Version: 6.00 Build 0)  -->
<!DOCTYPE svg PUBLIC "-//W3C//DTD SVG 1.1//EN" "http://www.w3.org/Graphics/SVG/1.1/DTD/svg11.dtd">
<svg version="1.1" id="Layer_1" xmlns="http://www.w3.org/2000/svg" xmlns:xlink="http://www.w3.org/1999/xlink" x="0px" y="0px"
	 width="800px" height="600px" viewBox="0 0 800 600" enable-background="new 0 0 800 600" xml:space="preserve">
<g>
	<path d="M56.265-31.042c-0.189-0.57-0.728-0.945-1.332-0.922c-0.6,0.021-1.111,0.439-1.257,1.02
		c-4.78,19.113-23.414,19.387-24.204,19.389h-19.06v-3.549c1.577-0.211,2.896-0.811,2.896-1.785c0-2.467-8.357-2.467-8.357,0
		c0,0.945,1.245,1.543,2.762,1.77v3.564H0.208v-3.566c1.512-0.229,2.75-0.824,2.75-1.768c0-2.467-8.357-2.467-8.357,0
		c0,0.975,1.326,1.576,2.908,1.787v3.547h-7.505v-3.557c1.548-0.219,2.829-0.818,2.829-1.777c0-2.467-8.357-2.467-8.357,0
		c0,0.959,1.281,1.559,2.828,1.777v3.557h-13.957c-9.753,0-18.027,6.449-20.782,15.307h-8.481V0c0-0.744-0.604-1.35-1.35-1.35
		c-0.746,0-1.351,0.605-1.351,1.35v10.205c0,0.744,0.604,1.35,1.351,1.35c0.745,0,1.35-0.605,1.35-1.35V6.451h7.828
		c-0.213,1.221-0.324,2.473-0.324,3.754c0,11.996,9.762,21.76,21.76,21.76h58.676c7.779,0,14.107-6.328,14.107-14.107
		c0-7.777-6.328-14.105-14.105-14.105h-76.612c2.649-7.344,9.688-12.607,17.935-12.607h13.957V0c0,0.746,0.605,1.35,1.351,1.35
		s1.35-0.604,1.35-1.35v-8.855h7.505V0c0,0.746,0.604,1.35,1.35,1.35c0.745,0,1.35-0.604,1.35-1.35v-8.855h7.504V0
		c0,0.746,0.605,1.35,1.351,1.35s1.35-0.604,1.35-1.35v-8.855h19.06c0.193,0,19.412,0.221,24.204,19.387
		c0.149,0.604,0.69,1.023,1.309,1.023c0.011,0,0.022,0,0.032,0c0.631-0.016,1.168-0.467,1.292-1.084
		C56.52,9.414,61.423-15.573,56.265-31.042z M32.022,6.451c6.29,0,11.406,5.117,11.406,11.406s-5.115,11.406-11.404,11.406h-58.678
		c-10.51,0-19.06-8.549-19.06-19.059c0-1.285,0.128-2.539,0.371-3.754H32.022z M54.521,4.691
		C50.437-4.463,42.919-8.461,37.183-10.206c5.889-1.789,13.646-5.953,17.651-15.625C56.86-15.53,55.54-2.454,54.521,4.691z"/>
	<path d="M-11.346,21.757c0.745,0,1.35-0.604,1.35-1.35V10.205c0-0.746-0.604-1.352-1.35-1.352s-1.351,0.605-1.351,1.352v10.203
		C-12.696,21.154-12.091,21.757-11.346,21.757z"/>
	<path d="M-1.142,21.757c0.745,0,1.35-0.604,1.35-1.35V10.205c0-0.746-0.604-1.352-1.35-1.352c-0.746,0-1.35,0.605-1.35,1.352
		v10.203C-2.491,21.154-1.888,21.757-1.142,21.757z"/>
	<path d="M9.062,21.757c0.745,0,1.35-0.604,1.35-1.35V10.205c0-0.746-0.604-1.352-1.35-1.352s-1.351,0.605-1.351,1.352v10.203
		C7.712,21.154,8.317,21.757,9.062,21.757z"/>
</g>
</svg>
