<?xml version="1.0" encoding="utf-8"?>
<!-- Generator: Adobe Illustrator 15.1.0, SVG Export Plug-In . SVG Version: 6.00 Build 0)  -->
<!DOCTYPE svg PUBLIC "-//W3C//DTD SVG 1.1//EN" "http://www.w3.org/Graphics/SVG/1.1/DTD/svg11.dtd">
<svg version="1.1" id="Layer_1" xmlns="http://www.w3.org/2000/svg" xmlns:xlink="http://www.w3.org/1999/xlink" x="0px" y="0px"
	 width="800px" height="600px" viewBox="0 0 800 600" enable-background="new 0 0 800 600" xml:space="preserve">
<path d="M32.882-22.979c-2.763-2.838-7.015-3.758-12.621-2.77c-1.063-2.51-3.585-5.869-9.583-7.229
	c-2.34-0.533-4.551-0.482-6.613,0.139c-0.907-1.355-2.969-3.545-7.451-5.299c-8.858-3.463-18.849,0.82-24.295,10.414
	c-3.572,6.291-2.665,16.812-2.002,24.496c0.237,2.748,0.441,5.121,0.388,6.699c-0.197,5.783-1.894,9.354-3.616,12.516
	c-1.181,2.168-2.032,4.943-2.484,6.619c-0.341,0.328-0.612,0.73-0.768,1.229c-1.786,5.648,15.096,11.299,18.499,12.375
	c6.264,1.98,12.2,3.115,16.283,3.115c1.271,0,5.14,0,5.966-2.611c0.191-0.609,0.167-1.199-0.004-1.77
	c0.554-2.014,1.653-5.666,3.138-8.812c2.278-4.832,7.69-9.656,12.926-14.32C27.281,5.898,34.146-0.219,35.682-7.094
	C36.078-8.859,37.797-17.924,32.882-22.979z M5.275,24.98c-1.154,2.449-2.074,5.127-2.712,7.215c-1.009-0.877-2.22-1.65-3.31-2.287
	c-3.384-1.977-8.062-3.953-13.169-5.566c-6.267-1.982-12.204-3.117-16.287-3.117c-0.436,0-1.18,0.004-1.999,0.109
	c0.429-1.326,0.991-2.824,1.661-4.057c1.397-2.564,2.874-5.592,3.563-9.814c4.483-0.422,23.401-1.256,35.352,12.695
	C7.114,21.74,6.047,23.344,5.275,24.98z M33.047-7.682c-1.346,6.027-7.88,11.85-14.199,17.479c-3.032,2.701-6.119,5.455-8.695,8.287
	c-0.855-0.98-1.74-1.887-2.648-2.73l7.516-8.018c0.51-0.545,0.482-1.398-0.062-1.908c-0.543-0.51-1.396-0.482-1.906,0.062
	l-7.584,8.088c-1.414-1.135-2.871-2.121-4.349-2.994l2.593-5.443c0.32-0.67,0.035-1.479-0.638-1.797
	C2.4,3.023,1.595,3.309,1.273,3.98l-2.527,5.307c-2.688-1.348-5.404-2.328-8.03-3.033l1.615-6.543
	c0.179-0.725-0.264-1.455-0.986-1.633c-0.724-0.18-1.455,0.262-1.635,0.986l-1.621,6.562c-2.248-0.471-4.387-0.75-6.34-0.908
	c0.03-0.08,0.074-0.156,0.088-0.246l2.062-12.199c0.123-0.736-0.371-1.432-1.107-1.557c-0.734-0.125-1.431,0.371-1.556,1.107
	l-2.06,12.199c-0.033,0.189-0.021,0.377,0.022,0.553c-2.494-0.082-4.522,0.023-5.854,0.139c0.025-0.375,0.046-0.758,0.059-1.15
	c0.059-1.742-0.153-4.189-0.397-7.021c-0.631-7.33-1.498-17.371,1.659-22.934c4.031-7.098,12.076-12.705,20.965-9.232
	c3.398,1.33,5.095,2.9,5.891,3.893c-0.293,0.166-0.583,0.336-0.867,0.529C-7.203-25.854-9.363-12.328-9.451-11.754
	c-0.114,0.736,0.392,1.424,1.128,1.539c0.735,0.113,1.425-0.393,1.54-1.129c0.02-0.129,2.075-12.947,8.96-17.629
	c2.351-1.598,4.936-2.047,7.905-1.371c5.729,1.299,7.492,4.693,8.034,6.602c1.099,3.869-1.266,9.625-7.024,17.104
	c-0.455,0.59-0.344,1.438,0.246,1.893c0.246,0.188,0.535,0.279,0.823,0.279c0.404,0,0.805-0.182,1.07-0.525
	c5.819-7.557,8.36-13.51,7.747-18.141c4.543-0.756,7.904-0.082,9.969,2.039C34.977-16.953,33.256-8.619,33.047-7.682z"/>
</svg>
