<?xml version="1.0" encoding="utf-8"?>
<!-- Generator: Adobe Illustrator 15.1.0, SVG Export Plug-In . SVG Version: 6.00 Build 0)  -->
<!DOCTYPE svg PUBLIC "-//W3C//DTD SVG 1.1//EN" "http://www.w3.org/Graphics/SVG/1.1/DTD/svg11.dtd">
<svg version="1.1" id="Layer_1" xmlns="http://www.w3.org/2000/svg" xmlns:xlink="http://www.w3.org/1999/xlink" x="0px" y="0px"
	 width="800px" height="600px" viewBox="0 0 800 600" enable-background="new 0 0 800 600" xml:space="preserve">
<g>
	<path d="M17.828-25.847h-1.045c-10.662,0-19.336,8.674-19.336,19.334v35.979c0,10.661,8.674,19.335,19.336,19.335h1.045
		c10.662,0,19.338-8.674,19.338-19.335V-6.513C37.166-17.173,28.49-25.847,17.828-25.847z M34.615,29.466
		c0,9.255-7.531,16.784-16.787,16.784h-1.045c-9.256,0-16.785-7.529-16.785-16.784V-6.513c0-9.254,7.529-16.784,16.785-16.784h1.045
		c9.256,0,16.787,7.53,16.787,16.784V29.466z"/>
	<path d="M5.82-46.128c6.584,1.521,10.211,7.377,10.211,16.49c0,0.705,0.57,1.275,1.275,1.275s1.275-0.57,1.275-1.275
		c0-14.062-7.637-17.925-12.232-18.986c-12.873-2.473-20.742,21.522-25.451,35.868c-1.012,3.081-1.885,5.741-2.564,7.354
		c-0.746,1.771-1.863,2.879-3.416,3.389C-29.299-0.632-35.176-4.1-35.234-4.135c-0.605-0.36-1.387-0.165-1.75,0.439
		c-0.361,0.604-0.166,1.386,0.438,1.748c0.23,0.138,4.734,2.804,9.285,2.804c1.002,0,2.004-0.129,2.965-0.443
		c2.27-0.74,3.945-2.363,4.982-4.824c0.719-1.71,1.607-4.416,2.637-7.549C-12.521-24.619-4.779-48.166,5.82-46.128z"/>
	<circle cx="17.35" cy="-8.482" r="2.81"/>
</g>
</svg>
