<?xml version="1.0" encoding="utf-8"?>
<!-- Generator: Adobe Illustrator 15.1.0, SVG Export Plug-In . SVG Version: 6.00 Build 0)  -->
<!DOCTYPE svg PUBLIC "-//W3C//DTD SVG 1.1//EN" "http://www.w3.org/Graphics/SVG/1.1/DTD/svg11.dtd">
<svg version="1.1" id="Layer_1" xmlns="http://www.w3.org/2000/svg" xmlns:xlink="http://www.w3.org/1999/xlink" x="0px" y="0px"
	 width="800px" height="600px" viewBox="0 0 800 600" enable-background="new 0 0 800 600" xml:space="preserve">
<path d="M29.604,16.049c-0.194-1.678-1.505-11.564-5.769-16.072C23.497-0.381,22.99-0.525,22.514-0.4
	c-0.477,0.123-0.848,0.496-0.969,0.975c-0.02,0.078-2.009,7.818-5.946,11.309c-0.42,0.373-0.566,0.965-0.367,1.488
	s0.701,0.873,1.262,0.873h1.429c-1.424,2.117-3.825,4.736-6.567,4.736c-3.875,0-5.843-3.596-5.843-10.688v-21.305h9.22
	c0.746,0,1.35-0.604,1.35-1.35v-5.676c0-0.746-0.604-1.35-1.35-1.35h-9.22v-4.814c1.529-1.467,2.397-3.498,2.397-5.629
	c0-4.305-3.502-7.809-7.808-7.809H-0.12c-4.307,0-7.81,3.504-7.81,7.809c0,2.148,0.882,4.191,2.398,5.631v4.812h-9.218
	c-0.745,0-1.35,0.604-1.35,1.35v5.676c0,0.746,0.605,1.35,1.35,1.35h9.218V8.293c0,7.092-1.965,10.688-5.843,10.688
	c-2.885,0-5.244-2.768-6.556-4.736h1.417c0.004,0,0.007,0,0.01,0c0.729,0.008,1.36-0.602,1.36-1.352
	c0-0.463-0.234-0.871-0.589-1.115c-3.861-3.537-5.812-11.125-5.831-11.203c-0.122-0.479-0.492-0.852-0.969-0.975
	c-0.478-0.125-0.983,0.02-1.322,0.377c-4.569,4.83-5.747,15.834-5.794,16.301c-0.053,0.516,0.193,1.016,0.635,1.287
	c0.44,0.271,0.999,0.268,1.434-0.012l1.867-1.189c3.174,9.025,12.602,13.387,17.277,15.549c0.761,0.352,1.413,0.652,1.913,0.914
	c3.334,1.756,5.192,5.957,5.21,5.996c0.214,0.494,0.702,0.816,1.239,0.816h0.125c0.54,0,1.027-0.322,1.24-0.816
	c0.019-0.041,1.855-4.23,5.211-5.994c0.498-0.264,1.152-0.564,1.913-0.916c4.676-2.162,14.103-6.523,17.277-15.549l1.866,1.189
	c0.224,0.143,0.47,0.215,0.735,0.213c0.74,0.014,1.358-0.602,1.358-1.35C29.654,16.287,29.636,16.164,29.604,16.049z M25.636,13.123
	c-0.367-0.232-0.826-0.275-1.23-0.113c-0.404,0.164-0.705,0.512-0.809,0.936c-2.175,8.975-11.373,13.23-16.314,15.518
	c-0.811,0.375-1.505,0.695-2.035,0.975c-2.451,1.289-4.205,3.5-5.256,5.158c-1.052-1.658-2.806-3.869-5.256-5.158
	c-0.531-0.279-1.225-0.6-2.036-0.975c-4.943-2.287-14.141-6.543-16.316-15.518c-0.102-0.424-0.403-0.771-0.807-0.936
	c-0.163-0.064-0.334-0.098-0.504-0.098c-0.254,0-0.506,0.07-0.726,0.211l-0.876,0.561c0.493-2.725,1.461-6.836,3.163-9.811
	c0.745,2.125,2.012,5.158,3.848,7.67h-0.761c-0.462,0-0.893,0.238-1.141,0.629c-0.246,0.389-0.276,0.881-0.079,1.299
	c0.16,0.336,3.96,8.211,10.125,8.211c3.19,0,8.543-1.74,8.543-13.389v-22.654c0-0.746-0.604-1.35-1.35-1.35H-13.4v-2.977h9.218
	c0.747,0,1.35-0.605,1.35-1.35v-6.754c0-0.373-0.153-0.729-0.424-0.982l-0.215-0.203c-1.116-0.969-1.758-2.373-1.758-3.854
	c0-2.816,2.292-5.109,5.11-5.109h0.222c2.817,0,5.108,2.293,5.108,5.109c0,1.48-0.641,2.885-1.795,3.889l-0.178,0.168
	c-0.271,0.254-0.426,0.609-0.426,0.982v6.754c0,0.744,0.605,1.35,1.351,1.35h9.22v2.977h-9.22c-0.745,0-1.351,0.604-1.351,1.35
	V8.293c0,11.648,5.354,13.389,8.543,13.389c6.167,0,9.967-7.875,10.127-8.211c0.197-0.418,0.167-0.91-0.08-1.299
	c-0.248-0.391-0.678-0.629-1.142-0.629h-0.759c1.835-2.512,3.102-5.545,3.848-7.67c1.701,2.975,2.669,7.086,3.162,9.811
	L25.636,13.123z"/>
</svg>
