<?xml version="1.0" encoding="utf-8"?>
<!-- Generator: Adobe Illustrator 15.1.0, SVG Export Plug-In . SVG Version: 6.00 Build 0)  -->
<!DOCTYPE svg PUBLIC "-//W3C//DTD SVG 1.1//EN" "http://www.w3.org/Graphics/SVG/1.1/DTD/svg11.dtd">
<svg version="1.1" id="Layer_1" xmlns="http://www.w3.org/2000/svg" xmlns:xlink="http://www.w3.org/1999/xlink" x="0px" y="0px"
	 width="800px" height="600px" viewBox="0 0 800 600" enable-background="new 0 0 800 600" xml:space="preserve">
<g>
	<path d="M30.697,29.345h-4.705v-44.76c0-13.191-9.881-24.111-22.629-25.768c0.541-0.711,0.875-1.588,0.875-2.549
		c0-2.338-1.902-4.24-4.238-4.24c-2.338,0-4.24,1.902-4.24,4.24c0,0.961,0.334,1.838,0.875,2.549
		c-12.748,1.656-22.629,12.576-22.629,25.768v44.76h-4.703c-0.744,0-1.35,0.605-1.35,1.35v7.758c0,0.746,0.605,1.35,1.35,1.35h8.143
		c-0.469,0.805-0.744,1.736-0.744,2.734c0,2.998,2.439,5.436,5.439,5.436c2.998,0,5.438-2.438,5.438-5.436
		c0-0.998-0.273-1.93-0.744-2.734h26.328c-0.469,0.805-0.744,1.736-0.744,2.734c0,2.998,2.441,5.436,5.439,5.436
		s5.439-2.438,5.439-5.436c0-0.998-0.275-1.93-0.746-2.734h8.146c0.744,0,1.35-0.604,1.35-1.35v-7.758
		C32.047,29.95,31.441,29.345,30.697,29.345z M0-45.271c0.848,0,1.537,0.691,1.537,1.539S0.848-42.192,0-42.192
		c-0.85,0-1.541-0.691-1.541-1.539S-0.85-45.271,0-45.271z M-23.295-15.415c0-12.844,10.451-23.293,23.295-23.293
		s23.293,10.449,23.293,23.293v44.76h-5.186V15.228c0-0.744-0.605-1.35-1.35-1.35h-1.729v-25.803c0-0.746-0.605-1.35-1.35-1.35
		H2.695v-2.553c0-0.498-0.402-0.9-0.898-0.9h-5.652c-0.498,0-0.9,0.402-0.9,0.9v2.553H-15.74c-0.744,0-1.35,0.604-1.35,1.35v41.27
		h-6.205V-15.415z M0.896-13.274h-3.852v-1.652h3.852V-13.274z M12.328-10.575v24.453H9.9v-2.576c0-0.496-0.402-0.898-0.9-0.898
		H3.348c-0.496,0-0.898,0.402-0.898,0.898v2.576H1.982l-16.189-24.453H12.328z M8.1,13.878H4.248v-1.676H8.1V13.878z M13.383,16.577
		L-3.059,28.593V16.577H13.383z M-14.391-7.591l14.215,21.469h-4.232c-0.746,0-1.352,0.605-1.352,1.35v14.117h-8.631V-7.591z
		 M15.406,17.329v12.016H-1.035L15.406,17.329z M-15.121,42.536c0,1.508-1.229,2.736-2.738,2.736s-2.738-1.229-2.738-2.736
		c0-1.492,1.201-2.705,2.686-2.734h0.104C-16.322,39.831-15.121,41.044-15.121,42.536z M20.596,42.536
		c0,1.508-1.229,2.736-2.738,2.736s-2.738-1.229-2.738-2.736c0-1.492,1.201-2.705,2.686-2.734h0.104
		C19.395,39.831,20.596,41.044,20.596,42.536z M29.346,37.103H17.961c-0.035-0.002-0.068-0.006-0.104-0.006s-0.07,0.004-0.104,0.006
		h-35.51c-0.035-0.002-0.068-0.006-0.104-0.006s-0.07,0.004-0.104,0.006h-11.385v-5.059h24.939h21.166h12.588V37.103z"/>
	<circle cx="7.377" cy="-6.007" r="2.318"/>
	<path d="M7.104,5.491c0.15,0.238,0.396,0.238,0.549,0l1.953-3.074c0.152-0.238,0.152-0.625,0-0.861L7.652-1.519
		c-0.152-0.238-0.398-0.238-0.549,0L5.148,1.556c-0.15,0.236-0.15,0.623,0,0.861L7.104,5.491z"/>
</g>
</svg>
