<?xml version="1.0" encoding="utf-8"?>
<!-- Generator: Adobe Illustrator 15.1.0, SVG Export Plug-In . SVG Version: 6.00 Build 0)  -->
<!DOCTYPE svg PUBLIC "-//W3C//DTD SVG 1.1//EN" "http://www.w3.org/Graphics/SVG/1.1/DTD/svg11.dtd">
<svg version="1.1" id="Layer_1" xmlns="http://www.w3.org/2000/svg" xmlns:xlink="http://www.w3.org/1999/xlink" x="0px" y="0px"
	 width="800px" height="600px" viewBox="0 0 800 600" enable-background="new 0 0 800 600" xml:space="preserve">
<g>
	<path d="M35.624-39.578l-22.955-7.654c-0.379-0.127-0.793-0.076-1.133,0.131c-3.426,2.098-7.172,3.164-11.131,3.164
		c-6.753,0-11.885-3.129-11.934-3.16c-0.341-0.211-0.76-0.262-1.142-0.135l-22.955,7.654c-0.624,0.207-1.007,0.834-0.907,1.484
		l3.058,19.895c0.056,0.367,0.258,0.691,0.56,0.902c0.302,0.211,0.678,0.291,1.039,0.219l6.038-1.209v41.203
		c0,0.746,0.604,1.35,1.35,1.35h8.963l-3.217,7.879l-10.805-0.24c-0.574-0.012-1.096,0.342-1.295,0.881
		c-0.201,0.539-0.037,1.146,0.408,1.512l15.439,12.697c0.244,0.201,0.548,0.307,0.857,0.307c0.122,0,0.245-0.016,0.365-0.049
		c0.425-0.119,0.765-0.439,0.91-0.855l7.73-22.131H7.74l-0.845,8.443l-9.616,0.678c-0.577,0.041-1.064,0.445-1.211,1.004
		c-0.146,0.559,0.079,1.148,0.561,1.469l16.645,11.01c0.393,0.26,0.895,0.297,1.32,0.096s0.717-0.609,0.768-1.078l2.301-21.621
		h6.822c0.744,0,1.35-0.604,1.35-1.35v-41.203l6.038,1.209c0.361,0.072,0.737-0.008,1.038-0.219
		c0.303-0.211,0.506-0.535,0.561-0.902l3.06-19.895C36.632-38.744,36.248-39.371,35.624-39.578z M31.019-20.003l-6.27-1.254
		c-0.395-0.078-0.807,0.023-1.12,0.281c-0.312,0.256-0.494,0.639-0.494,1.043v41.498h-6.686c-0.69,0-1.27,0.523-1.343,1.209
		l-2.195,20.619L1.435,35.801l6.785-0.477c0.656-0.049,1.184-0.561,1.248-1.213l1.107-11.061c0.038-0.381-0.086-0.758-0.342-1.041
		s-0.619-0.445-1.001-0.445H-6.09c-0.574,0-1.085,0.365-1.274,0.906l-7.408,21.209l-10.931-8.988l7.833,0.172
		c0.559,0.02,1.068-0.322,1.28-0.838l4.328-10.6c0.17-0.416,0.122-0.889-0.129-1.264c-0.251-0.371-0.671-0.598-1.121-0.598h-9.623
		v-41.498c0-0.404-0.182-0.787-0.494-1.043c-0.313-0.258-0.724-0.359-1.121-0.281l-6.269,1.254l-2.67-17.373l21.3-7.102
		c1.623,0.885,6.528,3.24,12.795,3.24c4.255,0,8.287-1.088,11.996-3.236l21.288,7.098L31.019-20.003z"/>
	<path d="M-9.098-13.363c3.14,0,5.695-2.553,5.695-5.695c0-3.139-2.555-5.693-5.695-5.693s-5.695,2.555-5.695,5.693
		C-14.792-15.916-12.238-13.363-9.098-13.363z"/>
	<path d="M3.402-19.058c0,3.143,2.556,5.695,5.694,5.695c3.141,0,5.695-2.553,5.695-5.695c0-3.139-2.555-5.693-5.695-5.693
		C5.958-24.751,3.402-22.197,3.402-19.058z"/>
	<path d="M-15.754-7.691C-15.754,0.997-8.687,8.062,0,8.062c8.687,0,15.754-7.066,15.754-15.753v-0.451h-31.508V-7.691z"/>
</g>
</svg>
