<?xml version="1.0" encoding="utf-8"?>
<!-- Generator: Adobe Illustrator 15.1.0, SVG Export Plug-In . SVG Version: 6.00 Build 0)  -->
<!DOCTYPE svg PUBLIC "-//W3C//DTD SVG 1.1//EN" "http://www.w3.org/Graphics/SVG/1.1/DTD/svg11.dtd">
<svg version="1.1" id="Layer_1" xmlns="http://www.w3.org/2000/svg" xmlns:xlink="http://www.w3.org/1999/xlink" x="0px" y="0px"
	 width="800px" height="600px" viewBox="0 0 800 600" enable-background="new 0 0 800 600" xml:space="preserve">
<g>
	<path d="M31.038-27.463l-61.42,0.054c-18.459,0-28.117,13.788-28.117,27.408c0,15.144,12.319,27.464,27.462,27.464
		c10.091,0,19.255-5.446,24.088-14.265h13.9c4.834,8.818,13.998,14.265,24.088,14.265c15.143,0,27.463-12.32,27.463-27.464
		C58.5-15.144,46.18-27.463,31.038-27.463z M31.038,25.104c-9.445,0-18.002-5.221-22.33-13.625l-0.33-0.641H-8.378l-0.329,0.641
		c-4.328,8.404-12.886,13.625-22.331,13.625c-13.843,0-25.104-11.263-25.104-25.105c0-12.064,8.061-25.05,25.76-25.05l61.419-0.054
		c13.842,0,25.104,11.262,25.104,25.104C56.141,13.842,44.879,25.104,31.038,25.104z"/>
	<path d="M-23.366-4.898h-2.041v-2.039c0-3.522-2.297-6.388-5.12-6.388s-5.119,2.865-5.119,6.388v2.039h-2.041
		c-3.521,0-6.386,2.296-6.386,5.119c0,2.825,2.865,5.123,6.386,5.123h2.041v2.038c0,3.521,2.296,6.387,5.119,6.387
		s5.12-2.865,5.12-6.387V5.344h2.041c3.52,0,6.384-2.298,6.384-5.123C-16.982-2.603-19.847-4.898-23.366-4.898z M-23.366,2.985
		h-4.399v4.396c0,2.184-1.265,4.029-2.762,4.029c-1.496,0-2.762-1.846-2.762-4.029V2.985h-4.398c-2.183,0-4.027-1.267-4.027-2.765
		c0-1.496,1.845-2.761,4.027-2.761h4.398v-4.397c0-2.185,1.266-4.028,2.762-4.028c1.497,0,2.762,1.844,2.762,4.028v4.397h4.399
		c2.183,0,4.026,1.265,4.026,2.761C-19.34,1.719-21.184,2.985-23.366,2.985z"/>
	<path d="M-30.383-19.69c-11.101,0-20.133,9.031-20.133,20.133s9.032,20.133,20.133,20.133S-10.25,11.544-10.25,0.442
		S-19.282-19.69-30.383-19.69z M-30.383,18.216c-9.801,0-17.773-7.973-17.773-17.773s7.973-17.773,17.773-17.773
		s17.773,7.973,17.773,17.773S-20.582,18.216-30.383,18.216z"/>
	<path d="M30.866-19.346c-10.467,0-18.953,8.486-18.953,18.953s8.486,18.954,18.953,18.954c10.469,0,18.953-8.487,18.953-18.954
		S41.334-19.346,30.866-19.346z M21.959,3.874c-2.357,0-4.27-1.908-4.27-4.267c0-2.357,1.912-4.269,4.27-4.269
		c2.355,0,4.268,1.911,4.268,4.269C26.227,1.966,24.315,3.874,21.959,3.874z M31.09,12.244c-2.357,0-4.27-1.91-4.27-4.267
		c0-2.357,1.912-4.27,4.27-4.27c2.355,0,4.266,1.912,4.266,4.27C35.356,10.334,33.446,12.244,31.09,12.244z M31.09-4.494
		c-2.357,0-4.27-1.912-4.27-4.267c0-2.357,1.912-4.268,4.27-4.268c2.355,0,4.266,1.91,4.266,4.268
		C35.356-6.406,33.446-4.494,31.09-4.494z M39.774,3.874c-2.357,0-4.27-1.908-4.27-4.267c0-2.357,1.912-4.269,4.27-4.269
		c2.355,0,4.268,1.911,4.268,4.269C44.042,1.966,42.129,3.874,39.774,3.874z"/>
</g>
</svg>
