<?xml version="1.0" encoding="utf-8"?>
<!-- Generator: Adobe Illustrator 15.1.0, SVG Export Plug-In . SVG Version: 6.00 Build 0)  -->
<!DOCTYPE svg PUBLIC "-//W3C//DTD SVG 1.1//EN" "http://www.w3.org/Graphics/SVG/1.1/DTD/svg11.dtd">
<svg version="1.1" id="Layer_1" xmlns="http://www.w3.org/2000/svg" xmlns:xlink="http://www.w3.org/1999/xlink" x="0px" y="0px"
	 width="800px" height="600px" viewBox="0 0 800 600" enable-background="new 0 0 800 600" xml:space="preserve">
<path d="M37.066,0c0-20.179-16.209-36.63-36.288-37.048c-0.114-0.018-0.23-0.02-0.347-0.009C0.287-37.059,0.145-37.067,0-37.067
	c-20.438,0-37.067,16.629-37.067,37.067S-20.438,37.067,0,37.067c0.001,0,0.001,0,0.001,0l0,0l0,0c0.164,0,0.325-0.012,0.489-0.013
	c0.025,0,0.05,0.013,0.076,0.013c0.056,0,0.111-0.013,0.165-0.02C20.832,36.655,37.066,20.193,37.066,0z M30.613,13.957H18.469
	c1.649-3.86,2.832-8.095,3.177-12.607h12.687c-0.176,4.548-1.243,8.87-3.027,12.802C31.103,14.03,30.867,13.957,30.613,13.957z
	 M-31.305,14.151c-1.784-3.932-2.851-8.252-3.027-12.802h13.004c0.348,4.513,1.544,8.747,3.213,12.607h-12.5
	C-30.867,13.957-31.102,14.03-31.305,14.151z M-31.305-14.154c0.204,0.122,0.438,0.197,0.691,0.197h11.631
	c-1.622,4.103-2.457,8.308-2.461,12.606h-12.888C-34.156-5.899-33.089-10.222-31.305-14.154z M31.305-14.154
	c1.784,3.933,2.852,8.255,3.027,12.804H21.758c-0.004-4.299-0.828-8.504-2.431-12.606h11.286
	C30.867-13.957,31.102-14.032,31.305-14.154z M19.059-1.351H1.35v-12.606h15.062C18.162-9.849,19.056-5.643,19.059-1.351z
	 M1.35-16.657v-16.235c6.236,5.19,10.841,10.616,13.787,16.235H1.35z M-1.35-16.657h-13.421c2.898-5.458,7.381-10.729,13.421-15.785
	V-16.657z M-1.35-13.957v12.606h-17.394c0.004-4.292,0.909-8.498,2.681-12.606H-1.35z M-18.616,1.35H-1.35v12.607h-13.758
	C-16.91,10.107-18.23,5.862-18.616,1.35z M-1.35,16.657v15.611c-3.175-2.945-8.467-8.463-12.386-15.611H-1.35z M1.35,32.761V16.657
	h12.758C10.011,24.221,4.396,29.964,1.35,32.761z M1.35,13.957V1.35h17.584c-0.383,4.511-1.688,8.756-3.471,12.607H1.35z
	 M30.047-16.657H18.15c-2.924-6.073-7.624-11.907-14.081-17.461C15.25-32.792,24.799-26.083,30.047-16.657z M-3.454-34.193
	c-6.581,5.574-11.366,11.435-14.338,17.536h-12.254C-24.703-26.257-14.899-33.046-3.454-34.193z M-30.046,16.657h13.199
	c4.116,8.098,10.028,14.28,13.581,17.55C-14.792,33.115-24.674,26.308-30.046,16.657z M3.865,34.144
	c3.516-3.283,9.31-9.438,13.351-17.486h12.831C24.768,26.14,15.134,32.876,3.865,34.144z"/>
</svg>
