<?xml version="1.0" encoding="utf-8"?>
<!-- Generator: Adobe Illustrator 15.1.0, SVG Export Plug-In . SVG Version: 6.00 Build 0)  -->
<!DOCTYPE svg PUBLIC "-//W3C//DTD SVG 1.1//EN" "http://www.w3.org/Graphics/SVG/1.1/DTD/svg11.dtd">
<svg version="1.1" id="Layer_1" xmlns="http://www.w3.org/2000/svg" xmlns:xlink="http://www.w3.org/1999/xlink" x="0px" y="0px"
	 width="800px" height="600px" viewBox="0 0 800 600" enable-background="new 0 0 800 600" xml:space="preserve">
<g>
	<path d="M10.763-34.516h-37.625v69.031h53.724v-52.932L10.763-34.516z M-24.162,31.816v-63.631H8.854v15.307h15.309v48.324H-24.162
		z"/>
	<path d="M-15.307-16.508H0c0.745,0,1.35-0.604,1.35-1.35s-0.604-1.35-1.35-1.35h-15.308c-0.745,0-1.35,0.604-1.35,1.35
		S-16.052-16.508-15.307-16.508z"/>
	<path d="M15.307-9.004h-30.614c-0.745,0-1.35,0.605-1.35,1.35c0,0.748,0.604,1.35,1.35,1.35h30.614c0.745,0,1.35-0.602,1.35-1.35
		C16.657-8.398,16.052-9.004,15.307-9.004z"/>
	<path d="M15.307,1.201h-30.614c-0.745,0-1.35,0.605-1.35,1.352c0,0.744,0.604,1.35,1.35,1.35h30.614c0.745,0,1.35-0.605,1.35-1.35
		C16.657,1.807,16.052,1.201,15.307,1.201z"/>
	<path d="M15.307,11.406h-30.614c-0.745,0-1.35,0.605-1.35,1.35c0,0.748,0.604,1.35,1.35,1.35h30.614c0.745,0,1.35-0.602,1.35-1.35
		C16.657,12.012,16.052,11.406,15.307,11.406z"/>
	<path d="M15.307,21.609h-30.614c-0.745,0-1.35,0.605-1.35,1.352s0.604,1.35,1.35,1.35h30.614c0.745,0,1.35-0.604,1.35-1.35
		S16.052,21.609,15.307,21.609z"/>
</g>
</svg>
