<?xml version="1.0" encoding="utf-8"?>
<!-- Generator: Adobe Illustrator 15.1.0, SVG Export Plug-In . SVG Version: 6.00 Build 0)  -->
<!DOCTYPE svg PUBLIC "-//W3C//DTD SVG 1.1//EN" "http://www.w3.org/Graphics/SVG/1.1/DTD/svg11.dtd">
<svg version="1.1" id="Layer_1" xmlns="http://www.w3.org/2000/svg" xmlns:xlink="http://www.w3.org/1999/xlink" x="0px" y="0px"
	 width="800px" height="600px" viewBox="0 0 800 600" enable-background="new 0 0 800 600" xml:space="preserve">
<g>
	<path d="M14.265,29.473h-3.949c-0.746,0-1.352,0.604-1.352,1.35s0.605,1.35,1.352,1.35h3.949c0.746,0,1.35-0.604,1.35-1.35
		S15.011,29.473,14.265,29.473z"/>
	<path d="M-10.315,29.473h-3.949c-0.746,0-1.35,0.604-1.35,1.35s0.604,1.35,1.35,1.35h3.949c0.746,0,1.35-0.604,1.35-1.35
		S-9.569,29.473-10.315,29.473z"/>
	<path d="M22.308-39.885h-44.615c-0.746,0-1.352,0.605-1.352,1.352v77.068c0,0.746,0.605,1.35,1.352,1.35h44.615
		c0.746,0,1.352-0.604,1.352-1.35v-77.068C23.659-39.279,23.054-39.885,22.308-39.885z M-20.958-27.754h41.916v49.838h-41.916
		V-27.754z M20.958-37.184v6.73h-41.916v-6.73H20.958z M-20.958,37.186v-12.4h41.916v12.4H-20.958z"/>
	<path d="M-3.157-32.484h5.025c0.746,0,1.35-0.604,1.35-1.35c0-0.744-0.604-1.35-1.35-1.35h-5.025c-0.746,0-1.35,0.605-1.35,1.35
		C-4.507-33.088-3.903-32.484-3.157-32.484z"/>
	<path d="M5.858-32.484h0.039c0.746,0,1.33-0.604,1.33-1.35c0-0.744-0.623-1.35-1.369-1.35c-0.744,0-1.35,0.605-1.35,1.35
		C4.509-33.088,5.114-32.484,5.858-32.484z"/>
	<path d="M-0.001,25.82c-2.756,0-5,2.244-5,5.002c0,2.76,2.244,5.002,5,5.002c2.76,0,5.004-2.242,5.004-5.002
		C5.003,28.064,2.759,25.82-0.001,25.82z M-0.001,33.125c-1.268,0-2.301-1.033-2.301-2.303s1.033-2.303,2.301-2.303
		c1.271,0,2.303,1.033,2.303,2.303S1.271,33.125-0.001,33.125z"/>
</g>
</svg>
