<?xml version="1.0" encoding="utf-8"?>
<!-- Generator: Adobe Illustrator 15.1.0, SVG Export Plug-In . SVG Version: 6.00 Build 0)  -->
<!DOCTYPE svg PUBLIC "-//W3C//DTD SVG 1.1//EN" "http://www.w3.org/Graphics/SVG/1.1/DTD/svg11.dtd">
<svg version="1.1" id="Layer_1" xmlns="http://www.w3.org/2000/svg" xmlns:xlink="http://www.w3.org/1999/xlink" x="0px" y="0px"
	 width="800px" height="600px" viewBox="0 0 800 600" enable-background="new 0 0 800 600" xml:space="preserve">
<path d="M39.106-1.386c0.11-1.105-0.15-2.686-1.886-4.189c0.018-4.028-0.547-23.873-13.058-31.169
	c-0.049-0.028-0.098-0.055-0.146-0.075c-0.311-0.176-0.629-0.369-0.955-0.57c-4.958-3.011-10.623-4.9-20.334,4.375
	c2.207-2.611,4.969-5.037,8.322-6.523c0.508-0.225,0.826-0.736,0.803-1.291s-0.384-1.037-0.91-1.219
	c-0.365-0.127-5.902-1.914-12.912,2.414c0.145-0.316,0.164-0.688,0.032-1.033c-0.227-0.602-0.847-0.959-1.481-0.855
	c-0.255,0.043-25.409,4.564-24.057,38.828l-0.598,0.56c-0.77,0.577-7.771,5.851-9.664,7.743c-1.158,1.16-1.625,2.7-1.277,4.227
	c0.68,2.986,4.254,5.635,10.626,7.875c10.631,3.734,24.521,6.039,29.321,2.954c1.312-0.844,2.795-1.696,5.66-3.091L5.84,32.986
	L-5.148,35.38c-0.605,0.133-1.044,0.66-1.062,1.279c-0.018,0.619,0.388,1.172,0.984,1.339l15.913,4.472
	c0.12,0.033,0.243,0.051,0.364,0.051c0.262,0,0.521-0.075,0.742-0.221c0.326-0.217,0.545-0.562,0.597-0.949l3.774-28.195
	c0.911-0.406,1.539-0.7,2.039-0.934c0.676-0.318,1.1-0.516,1.699-0.742l8.195,23.51l-9.89,3.875
	c-0.599,0.234-0.948,0.857-0.837,1.49c0.111,0.632,0.651,1.1,1.294,1.117l17.869,0.469c0.432,0.006,0.842-0.184,1.104-0.525
	c0.264-0.341,0.348-0.787,0.227-1.202L28.571,8.3C32.256,6.505,38.688,2.798,39.106-1.386z M36.419-1.655
	C36.206,0.486,32.175,3.7,26.391,6.343c-0.609,0.278-0.922,0.962-0.734,1.605l9.101,31.245l-9.359-0.246l4.896-1.919
	c0.675-0.266,1.021-1.017,0.782-1.702L22.008,9.319c-0.241-0.693-0.994-1.066-1.692-0.838c-1.615,0.525-2.165,0.781-3.258,1.295
	c-0.604,0.281-1.398,0.654-2.674,1.213c-0.433,0.189-0.733,0.59-0.796,1.059L9.92,39.45l-9.2-2.586l6.705-1.461
	c0.597-0.13,1.032-0.643,1.062-1.254l0.912-18.703c0.023-0.473-0.203-0.922-0.597-1.186c-0.393-0.264-0.896-0.303-1.324-0.101
	c-3.849,1.808-6.017,2.955-8.006,4.233c-3.404,2.188-15.754,0.708-26.966-3.232c-7.396-2.599-8.68-5.01-8.889-5.926
	c-0.178-0.785,0.203-1.366,0.553-1.718c1.828-1.827,9.359-7.479,9.435-7.538c0.038-0.027,0.075-0.059,0.111-0.093l1.104-1.032
	c0.291-0.27,0.447-0.655,0.428-1.051c-1.061-21.908,8.855-30.881,15.668-34.442c-4.791,5.946-6.556,13.465-6.648,13.872
	c-0.151,0.666,0.216,1.34,0.858,1.57c0.642,0.232,1.355-0.053,1.662-0.661c7.102-14.065,14.681-17.339,19.2-17.88
	C-2.709-33.569-6.519-22.471-6.699-21.937c-0.211,0.627,0.066,1.316,0.652,1.625c0.587,0.307,1.311,0.144,1.709-0.387
	C11.2-41.437,17.245-37.764,21.659-35.081c0.472,0.286,0.924,0.561,1.363,0.798C35.061-26.995,34.518-5.194,34.51-4.974
	c-0.014,0.447,0.194,0.873,0.557,1.136C36.532-2.776,36.447-1.933,36.419-1.655z"/>
</svg>
