<?xml version="1.0" encoding="utf-8"?>
<!-- Generator: Adobe Illustrator 15.1.0, SVG Export Plug-In . SVG Version: 6.00 Build 0)  -->
<!DOCTYPE svg PUBLIC "-//W3C//DTD SVG 1.1//EN" "http://www.w3.org/Graphics/SVG/1.1/DTD/svg11.dtd">
<svg version="1.1" id="Layer_1" xmlns="http://www.w3.org/2000/svg" xmlns:xlink="http://www.w3.org/1999/xlink" x="0px" y="0px"
	 width="800px" height="600px" viewBox="0 0 800 600" enable-background="new 0 0 800 600" xml:space="preserve">
<g>
	<path d="M21.759,7.998c0-4.178-2.83-5.84-5.08-6.305c0.248-6.448,2.488-9.809,4.854-13.356c2.619-3.929,5.329-7.993,5.329-16.056
		C26.862-42.53,14.811-54.58,0-54.58c-14.812,0-26.861,12.05-26.861,26.861c0,8.062,2.709,12.127,5.329,16.056
		c2.364,3.548,4.604,6.908,4.852,13.356c-2.25,0.465-5.078,2.127-5.078,6.305c0,2.52,1.028,4.124,2.338,5.104
		c-1.31,0.979-2.338,2.582-2.338,5.103c0,4.128,4.126,5.874,8.161,6.202l-2.463,16.953l-9.525,3.017
		c-0.541,0.173-0.918,0.665-0.939,1.232c-0.023,0.567,0.311,1.09,0.836,1.304l15.279,6.258c0.369,0.152,0.789,0.131,1.143-0.056
		c0.354-0.188,0.605-0.522,0.689-0.914l5.844-27.545h5.706L2.728,44.613l-7.764,4.386c-0.494,0.278-0.76,0.835-0.668,1.394
		c0.092,0.56,0.523,1.002,1.08,1.107l16.052,3.056c0.085,0.016,0.169,0.024,0.253,0.024c0.308,0,0.608-0.105,0.852-0.303
		c0.308-0.249,0.49-0.623,0.498-1.022l0.542-28.584c5.108-0.159,8.156-2.547,8.187-6.456c0.016-1.871-0.553-3.4-1.685-4.541
		c-0.211-0.213-0.433-0.4-0.659-0.569C20.728,12.127,21.759,10.521,21.759,7.998z M15.306,14.451c0.018,0,1.766,0.029,2.852,1.125
		c0.616,0.621,0.91,1.477,0.9,2.617c-0.025,3.295-3.795,3.787-6.04,3.787c-0.388,0-0.636-0.018-0.658-0.02
		c-0.371-0.032-0.74,0.093-1.017,0.342c-0.277,0.25-0.439,0.604-0.445,0.977l-0.537,28.324l-10.859-2.066l5.23-2.955
		c0.419-0.237,0.682-0.678,0.686-1.16l0.27-22.102c0.006-0.359-0.135-0.707-0.389-0.965c-0.254-0.256-0.6-0.4-0.961-0.4h-8.166
		c-0.637,0-1.188,0.447-1.319,1.07l-5.737,27.033l-10.334-4.232l6.779-2.148c0.494-0.156,0.854-0.58,0.928-1.093l2.803-19.28
		c0.058-0.392-0.107-0.789-0.369-1.086c-0.264-0.299-0.698-0.455-1.085-0.457c-0.282,0-6.896-0.041-6.896-3.558
		c0-3.528,3.131-3.746,3.751-3.753c0.745,0,1.351-0.605,1.351-1.35c0-0.746-0.605-1.351-1.351-1.351
		c-0.384,0-3.751-0.105-3.751-3.753c0-3.527,3.131-3.744,3.751-3.753c0.745,0,1.351-0.603,1.351-1.351
		c0-8.061-2.709-12.125-5.328-16.055c-2.508-3.76-4.877-7.312-4.877-14.559C-24.163-41.041-13.324-51.88,0-51.88
		c13.322,0,24.162,10.839,24.162,24.161c0,7.246-2.369,10.799-4.876,14.559c-2.62,3.93-5.329,7.994-5.329,16.055
		c0,0.748,0.604,1.351,1.35,1.351c0.385,0,3.752,0.105,3.752,3.753c0,3.527-3.132,3.746-3.752,3.753c-0.746,0-1.35,0.604-1.35,1.351
		C13.957,13.846,14.56,14.451,15.306,14.451z"/>
	<path d="M10.205-34.729l-5.104,5.101L0-34.729l-5.102,5.101l-5.104-5.101l-6.687,6.685L-6.356-1.705
		c0.276,0.693,1.062,1.03,1.754,0.752c0.693-0.277,1.029-1.061,0.753-1.754l-9.876-24.687l3.52-3.518l5.104,5.103L0-30.911
		l5.102,5.103l5.104-5.103l3.518,3.518L3.849-2.707C3.572-2.014,3.908-1.23,4.601-0.953c0.165,0.065,0.334,0.098,0.5,0.098
		c0.537,0,1.043-0.322,1.254-0.85L16.89-28.044L10.205-34.729z"/>
</g>
</svg>
