<?xml version="1.0" encoding="utf-8"?>
<!-- Generator: Adobe Illustrator 15.1.0, SVG Export Plug-In . SVG Version: 6.00 Build 0)  -->
<!DOCTYPE svg PUBLIC "-//W3C//DTD SVG 1.1//EN" "http://www.w3.org/Graphics/SVG/1.1/DTD/svg11.dtd">
<svg version="1.1" id="Layer_1" xmlns="http://www.w3.org/2000/svg" xmlns:xlink="http://www.w3.org/1999/xlink" x="0px" y="0px"
	 width="800px" height="600px" viewBox="0 0 800 600" enable-background="new 0 0 800 600" xml:space="preserve">
<g>
	<path d="M-2.049-18.797c2.498,0,4.531-2.033,4.531-4.531c0-2.497-2.033-4.529-4.531-4.529s-4.529,2.032-4.529,4.529
		C-6.578-20.83-4.547-18.797-2.049-18.797z"/>
	<path d="M12.107-18.797c2.498,0,4.529-2.033,4.529-4.531c0-2.497-2.031-4.529-4.529-4.529s-4.529,2.032-4.529,4.529
		C7.578-20.83,9.609-18.797,12.107-18.797z"/>
	<path d="M16.486-14.486H-6.428h-0.449h-0.449c0,6.814,5.543,12.356,12.357,12.356c6.812,0,12.355-5.542,12.355-12.356h-0.451
		H16.486z"/>
	<path d="M31.52-33.137c-0.195-0.49-4.912-12.021-16.545-12.021c-3.912,0-8.148,1.352-12.535,3.985l-2.312,1.245l-2.262-1.213
		c-4.441-2.666-8.678-4.018-12.59-4.018c-11.633,0-16.348,11.531-16.547,12.035c-4.061,10.555-0.42,23.604,3.02,29.799
		c3.426,6.168,4.867,15.701,4.482,21.539l-0.002,0.057v0.057c0.443,24.895,10.135,26.83,13.094,26.83c0.27,0,0.471-0.016,0.594-0.03
		h2.379l-0.391-1.659c-1.312-5.58-3.588-21.111,1.562-25.891l0.166-0.156l0.105-0.195c0.08-0.15,2.018-3.631,6.414-4.33
		c3.867,0.49,6.389,4.375,6.412,4.412l0.094,0.148l0.129,0.119c5.148,4.781,2.873,20.312,1.562,25.893l-0.293,1.659h2.281
		c0.121,0.015,0.322,0.03,0.592,0.03c2.961,0,12.65-1.936,13.094-26.83l0.002-0.062l-0.006-0.061
		c-0.336-4.547,1.42-12.874,4.578-21.73C30.832-9.794,35.479-22.836,31.52-33.137z M21.322,18.34
		c-0.396,21.484-7.695,23.88-9.994,24.099c1.021-5.165,3.5-20.839-2.582-26.724c-0.592-0.872-3.654-5.033-8.482-5.522l-0.162-0.017
		l-0.162,0.022c-5.275,0.745-7.889,4.589-8.463,5.547c-6.043,5.909-3.57,21.536-2.551,26.693c-2.297-0.218-9.602-2.61-9.996-24.103
		c0.395-6.229-1.156-16.372-4.822-22.97c-3.85-6.938-6.16-18.94-2.865-27.505c0.041-0.104,4.215-10.32,14.033-10.32
		c3.416,0,7.186,1.223,11.258,3.664l3.596,1.932l3.645-1.963c4.018-2.41,7.785-3.633,11.201-3.633c9.781,0,13.867,9.9,14.031,10.306
		c3.596,9.353-0.664,21.302-2.951,27.721C22.791,4.716,20.98,13.43,21.322,18.34z"/>
</g>
</svg>
