<?xml version="1.0" encoding="utf-8"?>
<!-- Generator: Adobe Illustrator 15.1.0, SVG Export Plug-In . SVG Version: 6.00 Build 0)  -->
<!DOCTYPE svg PUBLIC "-//W3C//DTD SVG 1.1//EN" "http://www.w3.org/Graphics/SVG/1.1/DTD/svg11.dtd">
<svg version="1.1" id="Layer_1" xmlns="http://www.w3.org/2000/svg" xmlns:xlink="http://www.w3.org/1999/xlink" x="0px" y="0px"
	 width="800px" height="600px" viewBox="0 0 800 600" enable-background="new 0 0 800 600" xml:space="preserve">
<path d="M28.278-31.795c-0.283-0.256-0.66-0.379-1.041-0.342l-34.214,3.422c-0.69,0.068-1.216,0.648-1.216,1.344v40.467
	c-2.133-2.553-5.338-4.182-8.916-4.182c-6.404,0-11.614,5.211-11.614,11.615c0,6.402,5.21,11.615,11.614,11.615
	c6.405,0,11.615-5.213,11.615-11.615v-46.68l31.516-3.152V9.675c-2.132-2.555-5.336-4.182-8.916-4.182
	c-6.402,0-11.613,5.209-11.613,11.611c0,6.406,5.211,11.617,11.613,11.617c6.405,0,11.616-5.211,11.616-11.617v-47.9
	C28.723-31.176,28.562-31.538,28.278-31.795z"/>
</svg>
