<?xml version="1.0" encoding="utf-8"?>
<!-- Generator: Adobe Illustrator 15.1.0, SVG Export Plug-In . SVG Version: 6.00 Build 0)  -->
<!DOCTYPE svg PUBLIC "-//W3C//DTD SVG 1.1//EN" "http://www.w3.org/Graphics/SVG/1.1/DTD/svg11.dtd">
<svg version="1.1" id="Layer_1" xmlns="http://www.w3.org/2000/svg" xmlns:xlink="http://www.w3.org/1999/xlink" x="0px" y="0px"
	 width="800px" height="600px" viewBox="0 0 800 600" enable-background="new 0 0 800 600" xml:space="preserve">
<g>
	<path d="M36.885-29.445L5.371-48.646c-0.412-0.25-0.927-0.262-1.35-0.031l-32.383,17.689c-0.424,0.232-0.691,0.672-0.702,1.154
		l-0.873,36.891c-0.013,0.48,0.233,0.934,0.646,1.184l11.915,7.26l-5.476,19.469l-13.562,2.346c-0.597,0.104-1.052,0.59-1.113,1.193
		c-0.061,0.602,0.287,1.172,0.851,1.393l19.487,7.633c0.671,0.264,1.43-0.047,1.723-0.703l10.641-23.684l7.049,4.297
		c0.411,0.252,0.926,0.264,1.35,0.031l7.299-3.986l8.404,12.838l-7.731,10.357c-0.35,0.471-0.356,1.113-0.018,1.592
		c0.259,0.361,0.672,0.566,1.101,0.566c0.137,0,0.274-0.021,0.408-0.064l20.102-6.389c0.361-0.115,0.658-0.379,0.818-0.723
		c0.158-0.344,0.163-0.74,0.016-1.09L23.75,16.452l12.207-6.668c0.424-0.23,0.69-0.67,0.703-1.154l0.871-36.889
		C37.544-28.742,37.297-29.193,36.885-29.445z M33.979,7.788L21.383,14.67c-0.608,0.332-0.867,1.072-0.596,1.709l10.121,23.887
		l-14.685,4.666l5.781-7.746c0.339-0.455,0.358-1.074,0.048-1.547l-9.605-14.672c-0.256-0.393-0.687-0.611-1.13-0.611
		c-0.218,0-0.44,0.055-0.646,0.166l-7.709,4.211l-7.69-4.688c-0.331-0.201-0.731-0.252-1.102-0.135
		c-0.37,0.113-0.673,0.381-0.832,0.734L-17.4,44.551l-13.787-5.4l9.636-1.666c0.513-0.088,0.929-0.465,1.07-0.965l5.983-21.273
		c0.164-0.582-0.081-1.203-0.598-1.52l-12.123-7.385l0.836-35.332L4.631-45.935l30.184,18.391L33.979,7.788z"/>
	<path d="M-11.724-20.06c-2.526,4.148-3.287,9.029-2.142,13.746c1.145,4.719,4.059,8.707,8.206,11.232
		c2.853,1.74,6.117,2.658,9.44,2.658c6.402,0,12.211-3.26,15.538-8.721c5.214-8.559,2.494-19.764-6.063-24.98
		c-2.854-1.738-6.118-2.654-9.442-2.654C-2.589-28.779-8.396-25.521-11.724-20.06z M17.014-2.548
		c-2.832,4.65-7.779,7.426-13.232,7.426c-2.828,0-5.607-0.783-8.036-2.264c-3.53-2.15-6.012-5.547-6.987-9.562
		c-0.974-4.018-0.327-8.174,1.824-11.705c2.832-4.65,7.778-7.426,13.231-7.426c2.828,0,5.607,0.781,8.036,2.262
		C19.137-19.376,21.453-9.835,17.014-2.548z"/>
</g>
</svg>
