<?xml version="1.0" encoding="utf-8"?>
<!-- Generator: Adobe Illustrator 15.1.0, SVG Export Plug-In . SVG Version: 6.00 Build 0)  -->
<!DOCTYPE svg PUBLIC "-//W3C//DTD SVG 1.1//EN" "http://www.w3.org/Graphics/SVG/1.1/DTD/svg11.dtd">
<svg version="1.1" id="Layer_1" xmlns="http://www.w3.org/2000/svg" xmlns:xlink="http://www.w3.org/1999/xlink" x="0px" y="0px"
	 width="800px" height="600px" viewBox="0 0 800 600" enable-background="new 0 0 800 600" xml:space="preserve">
<g>
	<path d="M24.215-26.486c-1.16,0.312-2.25,0.465-3.335,0.465h-0.001c-3.935,0-6.99-2.021-10.526-4.361
		c-4.021-2.662-8.578-5.676-15.12-5.676c-2.089,0-4.311,0.312-6.604,0.93l-12.273,3.308l-0.642-2.38
		c-0.258-0.96-1.245-1.529-2.206-1.271c-0.96,0.261-1.527,1.248-1.269,2.209l18.323,67.99c0.216,0.803,0.943,1.332,1.737,1.332
		c0.155,0,0.313-0.021,0.469-0.063c0.96-0.259,1.529-1.246,1.27-2.206l-9.708-36.02c5.27-8.412,11.572-9.143,18.83-9.956
		c7.39-0.827,15.767-1.767,22.715-12.301l1.946-2.953L24.215-26.486z M2.861-14.871c-6.758,0.758-13.719,1.557-19.454,9.211
		l-6.348-23.555l12.273-3.308c2.064-0.556,4.048-0.837,5.9-0.837c5.729,0,9.746,2.658,13.628,5.229
		c3.574,2.363,7.27,4.809,12.018,4.809h0.001c0.269,0,0.54-0.007,0.812-0.022C15.934-16.335,9.564-15.621,2.861-14.871z"/>
	<path d="M-11.045-24.146c1.185-0.32,1.887-1.538,1.568-2.721c-0.319-1.188-1.539-1.887-2.724-1.566
		c-1.184,0.318-1.887,1.536-1.567,2.723C-13.449-24.527-12.229-23.826-11.045-24.146z"/>
	<circle cx="-4.182" cy="-28.296" r="2.22"/>
	<path d="M-12.909-20.959c0.932,3.457,4.49,5.502,7.945,4.571c3.456-0.932,5.503-4.487,4.57-7.945L-12.909-20.959z"/>
</g>
</svg>
