<?xml version="1.0" encoding="utf-8"?>
<!-- Generator: Adobe Illustrator 15.1.0, SVG Export Plug-In . SVG Version: 6.00 Build 0)  -->
<!DOCTYPE svg PUBLIC "-//W3C//DTD SVG 1.1//EN" "http://www.w3.org/Graphics/SVG/1.1/DTD/svg11.dtd">
<svg version="1.1" id="Layer_1" xmlns="http://www.w3.org/2000/svg" xmlns:xlink="http://www.w3.org/1999/xlink" x="0px" y="0px"
	 width="800px" height="600px" viewBox="0 0 800 600" enable-background="new 0 0 800 600" xml:space="preserve">
<g>
	<path d="M-37.66-22.492c-8.682,0-9.852,11.271-9.852,22.297c0,11.023,1.17,22.295,9.852,22.295
		c7.901,0,14.328-10.002,14.328-22.295C-23.332-12.49-29.758-22.492-37.66-22.492z M-37.66,20.301
		c-5.568,0-8.052-6.322-8.052-20.496c0-14.176,2.483-20.496,8.052-20.496c6.908,0,12.529,9.195,12.529,20.496
		S-30.751,20.301-37.66,20.301z"/>
	<path d="M33.454-28.898h-70.843c-10.702,0-17.093,10.803-17.093,28.898s6.391,28.898,17.093,28.898h70.843
		c11.594,0,21.028-12.963,21.028-28.898S45.047-28.898,33.454-28.898z M-51.781,0c0-6.146,1.039-26.199,14.392-26.199
		C-27.283-26.199-19.06-14.447-19.06,0s-8.223,26.199-18.329,26.199C-50.742,26.199-51.781,6.146-51.781,0z M33.454,26.199h-61.981
		C-21.35,21.596-16.361,11.586-16.361,0s-4.989-21.596-12.167-26.199h61.981c10.105,0,18.328,11.752,18.328,26.199
		S43.559,26.199,33.454,26.199z"/>
	<path d="M15.125-19.678c0-0.746-0.604-1.35-1.351-1.35H-17.71c-0.746,0-1.35,0.604-1.35,1.35s0.604,1.35,1.35,1.35h31.484
		C14.52-18.328,15.125-18.932,15.125-19.678z"/>
	<path d="M7.252-11.807c0-0.744-0.604-1.35-1.35-1.35h-19.678c-0.746,0-1.351,0.605-1.351,1.35c0,0.746,0.604,1.35,1.351,1.35H5.903
		C6.649-10.457,7.252-11.061,7.252-11.807z"/>
	<path d="M-5.904,10.459h-7.871c-0.746,0-1.351,0.604-1.351,1.35c0,0.744,0.604,1.35,1.351,1.35h7.871
		c0.746,0,1.351-0.605,1.351-1.35C-4.553,11.062-5.158,10.459-5.904,10.459z"/>
	<path d="M13.774,13.158h19.68c0.745,0,1.35-0.605,1.35-1.35c0-0.746-0.604-1.35-1.35-1.35h-19.68c-0.744,0-1.35,0.604-1.35,1.35
		C12.424,12.553,13.03,13.158,13.774,13.158z"/>
	<path d="M37.389,18.33H5.903c-0.745,0-1.35,0.604-1.35,1.35s0.604,1.35,1.35,1.35h31.486c0.745,0,1.35-0.604,1.35-1.35
		S38.134,18.33,37.389,18.33z"/>
	<path d="M16.36,3.938c0,0.744,0.605,1.35,1.351,1.35h15.743c0.745,0,1.35-0.605,1.35-1.35c0-0.746-0.604-1.352-1.35-1.352H17.71
		C16.965,2.586,16.36,3.191,16.36,3.938z"/>
	<path d="M21.646-18.328h7.872c0.744,0,1.35-0.604,1.35-1.35s-0.605-1.35-1.35-1.35h-7.872c-0.745,0-1.351,0.604-1.351,1.35
		S20.901-18.328,21.646-18.328z"/>
	<path d="M45.26,2.586h-3.936c-0.745,0-1.35,0.605-1.35,1.352c0,0.744,0.604,1.35,1.35,1.35h3.936c0.746,0,1.35-0.605,1.35-1.35
		C46.61,3.191,46.006,2.586,45.26,2.586z"/>
	<path d="M7.252,11.809c0-0.746-0.604-1.35-1.35-1.35H1.968c-0.746,0-1.351,0.604-1.351,1.35c0,0.744,0.604,1.35,1.351,1.35h3.935
		C6.649,13.158,7.252,12.553,7.252,11.809z"/>
	<path d="M-9.839,18.33h-7.871c-0.746,0-1.35,0.604-1.35,1.35s0.604,1.35,1.35,1.35h7.871c0.744,0,1.35-0.604,1.35-1.35
		S-9.095,18.33-9.839,18.33z"/>
	<path d="M32.104-3.936c0,0.746,0.604,1.352,1.35,1.352H45.26c0.746,0,1.35-0.605,1.35-1.352c0-0.744-0.604-1.35-1.35-1.35H33.454
		C32.708-5.285,32.104-4.68,32.104-3.936z"/>
	<path d="M25.583-13.156H13.774c-0.744,0-1.35,0.605-1.35,1.35c0,0.746,0.605,1.35,1.35,1.35h11.809c0.744,0,1.35-0.604,1.35-1.35
		C26.932-12.551,26.327-13.156,25.583-13.156z"/>
	<path d="M33.453-10.457h7.872c0.746,0,1.35-0.604,1.35-1.35c0-0.744-0.604-1.35-1.35-1.35h-7.872c-0.747,0-1.351,0.605-1.351,1.35
		C32.102-11.061,32.706-10.457,33.453-10.457z"/>
	<path d="M19.061-3.936c0-0.744-0.605-1.35-1.351-1.35h-27.55c-0.746,0-1.35,0.605-1.35,1.35c0,0.746,0.604,1.352,1.35,1.352h27.55
		C18.456-2.584,19.061-3.189,19.061-3.936z"/>
	<path d="M-9.839,2.586c-0.746,0-1.35,0.605-1.35,1.352c0,0.744,0.604,1.35,1.35,1.35H9.838c0.746,0,1.351-0.605,1.351-1.35
		c0-0.746-0.604-1.352-1.351-1.352H-9.839z"/>
	<path d="M37.389-18.328c0.354,0,0.702-0.143,0.955-0.395c0.25-0.252,0.395-0.6,0.395-0.955s-0.145-0.703-0.395-0.955
		c-0.504-0.502-1.41-0.5-1.91,0c-0.251,0.252-0.395,0.6-0.395,0.955s0.144,0.703,0.395,0.955
		C36.686-18.473,37.034-18.328,37.389-18.328z"/>
	<path d="M26.538-2.98c0.25-0.252,0.395-0.6,0.395-0.955c0-0.354-0.145-0.705-0.395-0.953c-0.504-0.504-1.408-0.504-1.91,0
		c-0.252,0.248-0.396,0.6-0.396,0.953c0,0.355,0.144,0.703,0.396,0.955s0.6,0.396,0.955,0.396S26.287-2.729,26.538-2.98z"/>
	<path d="M40.37,10.854c-0.25,0.25-0.395,0.6-0.395,0.953c0,0.357,0.145,0.705,0.395,0.955s0.598,0.396,0.955,0.396
		c0.355,0,0.703-0.145,0.955-0.396c0.251-0.25,0.395-0.598,0.395-0.955c0-0.354-0.144-0.701-0.395-0.955
		C41.775,10.35,40.874,10.352,40.37,10.854z"/>
	<path d="M-2.923,18.723c-0.251,0.252-0.395,0.6-0.395,0.957c0,0.355,0.144,0.703,0.395,0.953s0.6,0.396,0.955,0.396
		c0.357,0,0.703-0.145,0.955-0.395c0.25-0.252,0.395-0.6,0.395-0.955c0-0.357-0.145-0.705-0.395-0.957
		C-1.517,18.221-2.423,18.223-2.923,18.723z"/>
	<path d="M-36.71-16.107c-5.338,0-6.057,8.043-6.057,15.912c0,7.867,0.719,15.91,6.057,15.91c4.843,0,8.636-6.988,8.636-15.91
		C-28.075-9.119-31.868-16.107-36.71-16.107z M-36.71,13.916c-2.904,0-4.257-4.484-4.257-14.111c0-9.629,1.353-14.113,4.257-14.113
		c3.706,0,6.836,6.463,6.836,14.113C-29.875,7.453-33.004,13.916-36.71,13.916z"/>
	<path d="M-35.988-9.109c-2.783,0-3.169,4.283-3.169,8.914c0,4.629,0.386,8.914,3.169,8.914c2.793,0,4.302-4.594,4.302-8.914
		C-31.686-4.518-33.195-9.109-35.988-9.109z M-35.988,6.918c-0.41,0-1.369-0.695-1.369-7.113c0-6.42,0.959-7.115,1.369-7.115
		c1.02,0,2.502,2.773,2.502,7.115S-34.968,6.918-35.988,6.918z"/>
</g>
</svg>
