<?xml version="1.0" encoding="utf-8"?>
<!-- Generator: Adobe Illustrator 15.1.0, SVG Export Plug-In . SVG Version: 6.00 Build 0)  -->
<!DOCTYPE svg PUBLIC "-//W3C//DTD SVG 1.1//EN" "http://www.w3.org/Graphics/SVG/1.1/DTD/svg11.dtd">
<svg version="1.1" id="Layer_1" xmlns="http://www.w3.org/2000/svg" xmlns:xlink="http://www.w3.org/1999/xlink" x="0px" y="0px"
	 width="800px" height="600px" viewBox="0 0 800 600" enable-background="new 0 0 800 600" xml:space="preserve">
<path d="M20.277-0.514c-0.545-0.186-1.15-0.006-1.504,0.449l-1.691,2.18v-24.311c0-4.965-3.459-9.006-7.707-9.006
	c-1.01,0-1.971,0.234-2.854,0.648v-9.502c0-4.965-3.457-9.006-7.707-9.006s-7.707,4.041-7.707,9.006v1.229
	c-0.16-0.012-0.316-0.027-0.479-0.027c-4.25,0-7.709,4.039-7.709,9.004V2.111l-1.693-2.176c-0.355-0.455-0.959-0.633-1.504-0.447
	c-0.545,0.188-0.912,0.701-0.912,1.277v46.943c0,0.746,0.605,1.352,1.35,1.352h39.68c0.746,0,1.35-0.605,1.35-1.352V0.764
	C21.189,0.188,20.824-0.326,20.277-0.514z M14.381-22.195v6.172c-0.088,0.053-0.172,0.113-0.242,0.195l-3.27,3.938
	c-0.318,0.383-0.266,0.949,0.117,1.268c0.168,0.139,0.371,0.207,0.574,0.207c0.258,0,0.514-0.111,0.693-0.324l2.127-2.562v3.887
	c-0.088,0.053-0.172,0.113-0.242,0.195l-3.27,3.938c-0.318,0.383-0.266,0.949,0.117,1.268c0.168,0.139,0.371,0.207,0.574,0.207
	c0.258,0,0.514-0.111,0.693-0.324l2.127-2.562V1.74l-1.402-1.805c-0.256-0.33-0.65-0.521-1.066-0.521
	c-0.418,0-0.811,0.191-1.066,0.521L7.943,3.668l-2.9-3.732C4.869-0.289,4.629-0.441,4.365-0.521v-21.674
	c0-3.477,2.248-6.305,5.01-6.305C12.135-28.5,14.381-25.672,14.381-22.195z M-6.193-40.055c0-3.477,2.246-6.305,5.008-6.305
	c2.76,0,5.006,2.828,5.006,6.305v11.629c-1.33,1.619-2.154,3.812-2.154,6.23V1.537L0.01,3.668l-1.674-2.152v-10.27l0.785,0.947
	c0.18,0.213,0.436,0.324,0.693,0.324c0.203,0,0.406-0.068,0.574-0.207c0.383-0.318,0.436-0.885,0.117-1.268l-2.17-2.613v-3.4
	l0.785,0.945c0.18,0.215,0.436,0.326,0.693,0.326c0.203,0,0.406-0.068,0.574-0.207c0.383-0.318,0.436-0.887,0.117-1.268l-2.17-2.613
	v-3.791l0.785,0.945c0.18,0.215,0.436,0.326,0.693,0.326c0.203,0,0.406-0.068,0.574-0.207c0.383-0.318,0.436-0.887,0.117-1.268
	l-2.17-2.613v-5.455c0-3.641-1.863-6.775-4.529-8.193V-40.055z M-9.371-36.154c2.76,0,5.008,2.828,5.008,6.305v29.355
	c-0.256,0.074-0.492,0.213-0.662,0.43l-2.898,3.732l-2.904-3.732c-0.256-0.33-0.648-0.521-1.066-0.521
	c-0.416,0-0.809,0.191-1.064,0.52l-1.422,1.826v-9.332l2.639,3.176c0.178,0.213,0.436,0.324,0.693,0.324
	c0.201,0,0.406-0.068,0.574-0.207c0.381-0.318,0.434-0.885,0.117-1.268l-3.271-3.938c-0.191-0.23-0.473-0.326-0.752-0.307v-3.998
	l2.639,3.174c0.178,0.215,0.436,0.326,0.693,0.326c0.201,0,0.406-0.068,0.574-0.207c0.381-0.318,0.434-0.887,0.117-1.268
	l-3.271-3.938c-0.191-0.232-0.473-0.326-0.752-0.309v-4.387l2.639,3.174c0.178,0.215,0.436,0.326,0.693,0.326
	c0.201,0,0.406-0.068,0.574-0.207c0.381-0.318,0.434-0.887,0.117-1.268l-3.271-3.938c-0.191-0.23-0.473-0.326-0.752-0.309v-7.232
	C-14.381-33.326-12.133-36.154-9.371-36.154z M-16.932,6.695c0.256,0.328,0.648,0.521,1.064,0.521s0.809-0.193,1.064-0.52
	l2.908-3.736l2.906,3.734c0.256,0.328,0.648,0.521,1.064,0.521c0.418,0,0.811-0.193,1.066-0.521l2.881-3.709
	c0.033,0.031,0.07,0.059,0.104,0.088l2.816,3.621c0.512,0.658,1.621,0.658,2.133,0l2.9-3.732l2.9,3.732
	c0.256,0.328,0.65,0.521,1.066,0.521S8.754,7.023,9.01,6.695l2.902-3.732l2.9,3.732c0.256,0.328,0.648,0.521,1.066,0.521
	c0.416,0,0.809-0.193,1.064-0.521l1.547-1.992v39.805l-5.875-7.555c-0.17-0.219-0.432-0.348-0.709-0.348h-23.809
	c-0.277,0-0.539,0.129-0.711,0.348l-5.875,7.555V4.695L-16.932,6.695z M17.65,46.359h-35.299l6.186-7.953h22.928L17.65,46.359z"/>
</svg>
