<?xml version="1.0" encoding="utf-8"?>
<!-- Generator: Adobe Illustrator 15.1.0, SVG Export Plug-In . SVG Version: 6.00 Build 0)  -->
<!DOCTYPE svg PUBLIC "-//W3C//DTD SVG 1.1//EN" "http://www.w3.org/Graphics/SVG/1.1/DTD/svg11.dtd">
<svg version="1.1" id="Layer_1" xmlns="http://www.w3.org/2000/svg" xmlns:xlink="http://www.w3.org/1999/xlink" x="0px" y="0px"
	 width="800px" height="600px" viewBox="0 0 800 600" enable-background="new 0 0 800 600" xml:space="preserve">
<g>
	<path d="M17.454-37.067C6.933-37.067,2.043-32.193,0-29.099c-2.043-3.094-6.933-7.968-17.454-7.968
		c-10.593,0-21.994,7.873-21.994,25.161c0,15.001,13.646,26.731,26.844,38.076c4.21,3.619,8.187,7.036,11.65,10.501
		c0.263,0.264,0.608,0.396,0.954,0.396s0.691-0.132,0.955-0.396c3.463-3.465,7.439-6.882,11.649-10.501
		C25.802,14.826,39.447,3.095,39.447-11.906C39.447-29.194,28.047-37.067,17.454-37.067z M10.845,24.123
		C6.975,27.452,3.297,30.611,0,33.82c-3.297-3.209-6.974-6.368-10.845-9.697C-23.58,13.176-36.748,1.856-36.748-11.906
		c0-15.432,10.002-22.462,19.294-22.462c13.061,0,16.054,8.257,16.174,8.602c0.183,0.552,0.699,0.923,1.28,0.923
		s1.098-0.371,1.28-0.923c0.029-0.086,3.013-8.602,16.174-8.602c9.292,0,19.294,7.03,19.294,22.462
		C36.748,1.856,23.58,13.176,10.845,24.123z"/>
	<path d="M0.065-8.058c2.497,0,4.529-2.032,4.529-4.53c0-2.497-2.032-4.529-4.529-4.529c-2.499,0-4.531,2.032-4.531,4.529
		C-4.466-10.09-2.434-8.058,0.065-8.058z"/>
	<path d="M14.22-8.058c2.498,0,4.53-2.032,4.53-4.53c0-2.497-2.032-4.529-4.53-4.529s-4.53,2.032-4.53,4.529
		C9.689-10.09,11.722-8.058,14.22-8.058z"/>
	<path d="M18.599-3.747H-4.313h-0.45h-0.45C-5.214,3.068,0.33,8.61,7.143,8.61c6.813,0,12.355-5.542,12.355-12.356h-0.449H18.599z"
		/>
</g>
</svg>
