<?xml version="1.0" encoding="utf-8"?>
<!-- Generator: Adobe Illustrator 15.1.0, SVG Export Plug-In . SVG Version: 6.00 Build 0)  -->
<!DOCTYPE svg PUBLIC "-//W3C//DTD SVG 1.1//EN" "http://www.w3.org/Graphics/SVG/1.1/DTD/svg11.dtd">
<svg version="1.1" id="Layer_1" xmlns="http://www.w3.org/2000/svg" xmlns:xlink="http://www.w3.org/1999/xlink" x="0px" y="0px"
	 width="800px" height="600px" viewBox="0 0 800 600" enable-background="new 0 0 800 600" xml:space="preserve">
<path d="M40.141-17.351c0-0.02-0.006-0.037-0.006-0.057c0-0.062-0.012-0.125-0.02-0.189c-0.002-0.012-0.004-0.025-0.006-0.037
	c-0.031-0.211-0.098-0.416-0.229-0.598l-14.51-19.902c-0.254-0.35-0.658-0.555-1.09-0.555c-0.002,0-0.004,0-0.006,0l-24.394,0.084
	h-24.164c-0.432,0-0.836,0.207-1.091,0.555l-14.509,19.904c-0.003,0.004-0.004,0.01-0.008,0.016c-0.072,0.1-0.126,0.211-0.169,0.33
	c-0.009,0.023-0.016,0.049-0.022,0.074c-0.033,0.111-0.056,0.229-0.058,0.352c0,0.006-0.001,0.012-0.001,0.018
	c0,0.002-0.001,0.004-0.001,0.006c0,0.125,0.022,0.244,0.055,0.359c0.007,0.025,0.015,0.051,0.024,0.078
	c0.04,0.117,0.093,0.23,0.163,0.332c0.003,0.002,0.004,0.006,0.006,0.01l38.677,54.689c0.004,0.006,0.01,0.01,0.014,0.016
	c0.018,0.023,0.041,0.043,0.061,0.064c0.063,0.076,0.133,0.146,0.211,0.207c0.031,0.023,0.064,0.045,0.098,0.064
	c0.078,0.051,0.157,0.09,0.243,0.121c0.035,0.014,0.067,0.029,0.104,0.039c0.121,0.035,0.245,0.059,0.373,0.059
	c0.039,0,0.079-0.016,0.118-0.02c0.038,0.004,0.076,0.02,0.113,0.02c0.544,0,1.044-0.336,1.251-0.865l38.289-54.148
	C39.95-16.573,40.141-16.938,40.141-17.351z M-19.362-16.001l15.068,45.09l-31.889-45.09H-19.362z M-16.515-16.001h15.051v45.039
	L-16.515-16.001z M12.26-35.946l4.6,17.246H1.237v-17.209L12.26-35.946z M1.237-16.001h15.281L1.237,29.731V-16.001z M19.366-16.001
	h16.758L4.352,28.929L19.366-16.001z M36.196-18.7H19.653l-4.6-17.258l8.543-0.027L36.196-18.7z M-1.464-18.7h-15.393l4.588-17.205
	h10.805V-18.7z M-23.596-35.905h8.532L-19.651-18.7h-16.484L-23.596-35.905z"/>
</svg>
