<?xml version="1.0" encoding="utf-8"?>
<!-- Generator: Adobe Illustrator 15.1.0, SVG Export Plug-In . SVG Version: 6.00 Build 0)  -->
<!DOCTYPE svg PUBLIC "-//W3C//DTD SVG 1.1//EN" "http://www.w3.org/Graphics/SVG/1.1/DTD/svg11.dtd">
<svg version="1.1" id="Layer_1" xmlns="http://www.w3.org/2000/svg" xmlns:xlink="http://www.w3.org/1999/xlink" x="0px" y="0px"
	 width="800px" height="600px" viewBox="0 0 800 600" enable-background="new 0 0 800 600" xml:space="preserve">
<g>
	<path d="M0-9.567c-5.275,0-9.566,4.292-9.566,9.568c0,5.273,4.291,9.564,9.566,9.564c5.273,0,9.566-4.291,9.566-9.564
		C9.566-5.275,5.273-9.567,0-9.567z M0,5.321c-2.939,0-5.32-2.382-5.32-5.321c0-2.938,2.381-5.32,5.32-5.32S5.32-2.939,5.32,0
		C5.32,2.939,2.939,5.321,0,5.321z"/>
	<path d="M0-36.406c-20.105,0-36.406,16.3-36.406,36.407c0,20.106,16.301,36.404,36.406,36.404
		c20.104,0,36.406-16.298,36.406-36.404C36.406-20.106,20.104-36.406,0-36.406z M19.086,1.009c0-0.744,0.605-1.35,1.35-1.35
		c0.746,0,1.35,0.605,1.35,1.35c0,11.213-9.117,20.335-20.326,20.335c-0.746,0-1.35-0.604-1.35-1.351c0-0.744,0.604-1.35,1.35-1.35
		C11.178,18.644,19.086,10.734,19.086,1.009z M-26.805-1.008c0,0.746-0.605,1.35-1.35,1.35c-0.746,0-1.352-0.604-1.352-1.35
		c0-15.469,12.582-28.054,28.045-28.054c0.746,0,1.35,0.604,1.35,1.351c0,0.745-0.604,1.35-1.35,1.35
		C-15.436-26.362-26.805-14.988-26.805-1.008z M-19.086-1.01c0,0.746-0.605,1.351-1.352,1.351c-0.744,0-1.35-0.604-1.35-1.351
		c0-11.212,9.119-20.334,20.328-20.334c0.744,0,1.35,0.605,1.35,1.35c0,0.746-0.605,1.351-1.35,1.351
		C-11.18-18.644-19.086-10.733-19.086-1.01z M-12.266,0.001c0-6.765,5.502-12.268,12.266-12.268S12.266-6.763,12.266,0.001
		c0,6.763-5.502,12.265-12.266,12.265S-12.266,6.764-12.266,0.001z M1.459,29.062c-0.746,0-1.35-0.604-1.35-1.35
		c0-0.746,0.604-1.351,1.35-1.351c13.975,0,25.344-11.374,25.344-25.354c0-0.745,0.605-1.351,1.35-1.351
		c0.746,0,1.35,0.605,1.35,1.351C29.502,16.477,16.922,29.062,1.459,29.062z"/>
</g>
</svg>
