<?xml version="1.0" encoding="utf-8"?>
<!-- Generator: Adobe Illustrator 15.1.0, SVG Export Plug-In . SVG Version: 6.00 Build 0)  -->
<!DOCTYPE svg PUBLIC "-//W3C//DTD SVG 1.1//EN" "http://www.w3.org/Graphics/SVG/1.1/DTD/svg11.dtd">
<svg version="1.1" id="Layer_1" xmlns="http://www.w3.org/2000/svg" xmlns:xlink="http://www.w3.org/1999/xlink" x="0px" y="0px"
	 width="800px" height="600px" viewBox="0 0 800 600" enable-background="new 0 0 800 600" xml:space="preserve">
<g>
	<path d="M0,37.254c4.857,0,8.795-3.938,8.795-8.797H-8.797C-8.797,33.316-4.857,37.254,0,37.254z"/>
	<path d="M29.92-14.748l3.686-3.686c0.254-0.254,0.396-0.598,0.396-0.955v-12.244c0-0.562-0.35-1.066-0.877-1.264L0.473-45.141
		c-0.307-0.115-0.643-0.115-0.947,0l-32.652,12.244c-0.527,0.197-0.875,0.701-0.875,1.264v12.244c0,0.357,0.141,0.701,0.395,0.955
		l3.686,3.686v3.523v7.086C-32.32-3.141-34,0.5-34,5.101s1.68,8.242,4.08,9.24v8.107c0,0.234,0.062,0.465,0.178,0.67l12.246,21.426
		c0.24,0.422,0.688,0.682,1.172,0.682h32.65c0.484,0,0.932-0.26,1.174-0.682l12.244-21.426c0.117-0.205,0.178-0.436,0.178-0.67
		v-8.107c2.4-0.998,4.082-4.639,4.082-9.24s-1.682-8.242-4.082-9.24v-7.086v-3.523H29.92z M-31.303-19.947v-10.75l31.301-11.738
		l31.303,11.738v10.75l-3.686,3.688c-0.252,0.254-0.396,0.598-0.396,0.955v3.641c-0.072,0.094-0.168,0.213-0.275,0.344l-27.112-1.6
		l-26.775,1.598c-0.109-0.133-0.205-0.252-0.277-0.346v-3.639c0-0.357-0.143-0.701-0.396-0.955L-31.303-19.947z M31.301,5.102
		c0,4.16-1.617,6.812-2.73,6.812c-0.746,0-1.35,0.605-1.35,1.35v8.826L15.543,42.525h-31.086L-27.221,22.09v-8.826
		c0-0.744-0.605-1.35-1.35-1.35c-1.115,0-2.732-2.652-2.732-6.812c0-4.158,1.617-6.812,2.732-6.812c0.746,0,1.35-0.605,1.35-1.35
		v-4.557c3.85,3.793,12.404,9.988,27.219,9.988c14.816,0,23.371-6.195,27.223-9.988v4.557c0,0.746,0.604,1.35,1.35,1.35
		C29.684-1.711,31.301,0.943,31.301,5.102z"/>
	<path d="M-16.75-29.625l11.812,6.314c0.328,2.035,2.418,3.607,4.936,3.607c2.52,0,4.607-1.572,4.936-3.607l11.816-6.314
		c0.363-0.193,0.549-0.611,0.447-1.012c-0.1-0.4-0.459-0.682-0.873-0.682H4.08c-0.498,0-0.9,0.402-0.9,0.9
		c0,1.307-1.428,2.371-3.182,2.371s-3.182-1.064-3.182-2.371c0-0.498-0.402-0.9-0.9-0.9h-12.242c-0.414,0-0.773,0.281-0.873,0.682
		C-17.299-30.236-17.115-29.818-16.75-29.625z"/>
	<path d="M-4.209,11.574c0-2.555-2.135-4.625-4.762-4.625c-2.631,0-4.762,2.07-4.762,4.625c0,2.555,2.131,4.623,4.762,4.623
		C-6.344,16.197-4.209,14.129-4.209,11.574z"/>
	<ellipse cx="8.971" cy="11.573" rx="4.762" ry="4.624"/>
	<path d="M-5.625,19.896c0,3.104,2.523,5.625,5.625,5.625S5.625,23,5.625,19.896c0-0.744-0.605-1.35-1.35-1.35
		c-0.746,0-1.352,0.605-1.352,1.35c0,1.613-1.312,2.926-2.924,2.926c-1.613,0-2.926-1.312-2.926-2.926c0-0.744-0.604-1.35-1.35-1.35
		C-5.023,18.546-5.625,19.152-5.625,19.896z"/>
</g>
</svg>
