<?xml version="1.0" encoding="utf-8"?>
<!-- Generator: Adobe Illustrator 15.1.0, SVG Export Plug-In . SVG Version: 6.00 Build 0)  -->
<!DOCTYPE svg PUBLIC "-//W3C//DTD SVG 1.1//EN" "http://www.w3.org/Graphics/SVG/1.1/DTD/svg11.dtd">
<svg version="1.1" id="Layer_1" xmlns="http://www.w3.org/2000/svg" xmlns:xlink="http://www.w3.org/1999/xlink" x="0px" y="0px"
	 width="800px" height="600px" viewBox="0 0 800 600" enable-background="new 0 0 800 600" xml:space="preserve">
<g>
	<path d="M46.59-25.013c-3.715-3.053-9.756-1.859-15.597-0.705c-2.771,0.548-5.625,1.107-8.072,1.173
		C19.354-35.196,9.287-42.896-2.551-42.896c-8.236,0-15.188,4.061-16.835,5.103h-13.78c-0.002,0-0.003,0-0.004,0
		c-4.227,0.006-5.715,8.033-6.213,14.932c-1.871-0.428-5.014-0.772-7.411,0.877c-2.01,1.384-3.028,3.791-3.028,7.151
		c0,11.556,11.673,11.556,16.657,11.556c0.957,0,2.059-0.118,3.307-0.309c-3.594,8.802-6.426,20.632-1.296,29.806
		c3.715,6.646,11.057,10.898,21.831,12.645c0.106,0.625,0.367,1.373,0.953,2.074c1.088,1.299,2.894,1.959,5.366,1.959h0.251
		c2.473,0,4.278-0.66,5.365-1.959c0.587-0.701,0.847-1.449,0.953-2.074c10.79-1.75,18.169-6.008,21.944-12.666
		c5.178-9.129,2.521-20.885-0.925-29.631c0.462,0.053,0.915,0.11,1.396,0.149c0.462,0.037,1.027,0.101,1.673,0.172
		c1.763,0.195,4.101,0.456,6.6,0.456c4.09,0,8.612-0.696,11.754-3.507c2.531-2.266,3.814-5.587,3.814-9.873
		C49.822-20.288,48.766-23.226,46.59-25.013z M17.852-7.362C12.886-8.426,7.258-9.63-2.552-9.63c-9.832,0-17.567,1.482-23.215,2.564
		c-1.425,0.274-2.707,0.52-3.854,0.707c1.619-0.677,3.217-1.475,4.885-2.31c5.496-2.749,11.725-5.866,22.034-5.866
		c10.553,0,16.254,3.015,21.766,5.93c1.553,0.82,3.082,1.629,4.684,2.352C21.737-6.536,19.832-6.938,17.852-7.362z M-3.9-40.134
		l-0.001,23.821c-5.625,0.13-10.039,1.153-13.789,2.515C-17.385-28.134-11.644-38.997-3.9-40.134z M-1.201-16.306L-1.2-40.138
		c7.853,1.104,13.484,11.828,13.79,26.477C8.929-15.069,4.551-16.145-1.201-16.306z M-47.122-14.834
		c0-2.416,0.624-4.072,1.854-4.923c1.636-1.131,4.232-0.77,5.732-0.367c-0.062,1.541-0.082,2.949-0.082,4.088
		c0,0.746,0.604,1.351,1.35,1.351s1.351-0.604,1.351-1.351c0.002-9.975,1.791-19.059,3.753-19.059c0.174,0,0.448,0.044,0.811,0.42
		c2.585,2.677,3.176,14.231,2.942,20.886c-0.026,0.745,0.556,1.37,1.302,1.396c0.016,0.001,0.031,0.001,0.048,0.001
		c0.724,0,1.323-0.574,1.349-1.303c0.061-1.709,0.446-15.618-2.672-21.4h10.4c0.271,0,0.535-0.082,0.759-0.232
		c0.047-0.033,3.152-2.098,7.636-3.529c-5.361,4.664-8.812,14.084-8.909,25.758c-2.182,0.895-4.155,1.879-6.041,2.822
		c-4.196,2.099-7.926,3.962-12.686,4.059C-43.087-6.798-47.122-8.72-47.122-14.834z M21.499-3.856
		c2.085,4.974,4.025,11.175,4.196,17.218c-0.008,0-0.014-0.004-0.021-0.004c-0.29,0-0.524,0.236-0.524,0.525
		c0,0.291,0.234,0.525,0.524,0.525c0.014,0,0.025-0.008,0.039-0.008c-0.006,0.859-0.061,1.713-0.146,2.557
		c-0.202,0.072-0.349,0.264-0.349,0.49c0,0.188,0.104,0.344,0.253,0.438c-0.047,0.326-0.118,0.648-0.18,0.971
		c-0.096-0.123-0.237-0.205-0.404-0.205c-0.291,0-0.525,0.236-0.525,0.525c0,0.291,0.234,0.523,0.525,0.523
		c0.099,0,0.186-0.035,0.266-0.082c-0.198,0.887-0.47,1.75-0.785,2.6c-0.286,0.004-0.517,0.236-0.517,0.523
		c0,0.152,0.067,0.287,0.173,0.383c-0.146,0.34-0.324,0.672-0.492,1.004c-0.077-0.045-0.162-0.076-0.257-0.076
		c-0.29,0-0.524,0.234-0.524,0.523c0,0.209,0.124,0.387,0.301,0.471c-0.166,0.283-0.338,0.564-0.52,0.84
		c-0.086-0.062-0.186-0.105-0.3-0.105c-0.29,0-0.524,0.234-0.524,0.525c0,0.176,0.092,0.322,0.225,0.418
		c-0.231,0.309-0.476,0.609-0.729,0.904c-0.025-0.002-0.047-0.014-0.072-0.014c-0.291,0-0.525,0.236-0.525,0.525
		c0,0.047,0.016,0.086,0.027,0.131c-1.106,1.17-2.393,2.229-3.857,3.17c-0.092-0.154-0.252-0.262-0.443-0.262
		c-0.291,0-0.525,0.234-0.525,0.525c0,0.102,0.037,0.191,0.086,0.27c-0.791,0.463-1.627,0.893-2.513,1.293
		c-0.07-0.207-0.261-0.359-0.491-0.359c-0.289,0-0.524,0.236-0.524,0.525c0,0.092,0.03,0.174,0.071,0.25
		c-0.912,0.375-1.877,0.715-2.883,1.029c-0.096-0.133-0.244-0.225-0.42-0.225c-0.281,0-0.506,0.223-0.519,0.5
		c-0.45,0.129-0.905,0.252-1.374,0.369c0.006-0.029,0.019-0.057,0.019-0.088c0-0.291-0.235-0.525-0.524-0.525
		c-0.291,0-0.525,0.234-0.525,0.525c0,0.115,0.046,0.219,0.111,0.307c-1.353,0.309-2.766,0.574-4.256,0.787l-1.383,0.197
		l0.246,1.377c0.001,0.008,0.089,0.701-0.386,1.27c-0.543,0.648-1.682,0.99-3.295,0.99h-0.251c-1.593,0-2.726-0.334-3.275-0.967
		c-0.499-0.574-0.406-1.285-0.405-1.293l0.245-1.377l-1.383-0.197c-1.48-0.211-2.886-0.475-4.229-0.781
		c0.067-0.088,0.114-0.193,0.114-0.312c0-0.291-0.234-0.525-0.524-0.525s-0.524,0.234-0.524,0.525c0,0.033,0.013,0.062,0.019,0.094
		c-0.467-0.115-0.923-0.238-1.372-0.367c-0.01-0.281-0.237-0.508-0.521-0.508c-0.179,0-0.328,0.096-0.423,0.23
		c-0.918-0.285-1.796-0.598-2.635-0.936c0.085-0.092,0.14-0.213,0.14-0.35c0-0.289-0.234-0.525-0.524-0.525
		c-0.278,0-0.5,0.219-0.518,0.49c-0.993-0.436-1.926-0.91-2.8-1.422c0.05-0.08,0.086-0.17,0.086-0.271
		c0-0.291-0.234-0.525-0.524-0.525c-0.19,0-0.351,0.107-0.442,0.26c-1.391-0.898-2.613-1.904-3.673-3.014
		c0.056-0.082,0.097-0.178,0.097-0.285c0-0.289-0.235-0.525-0.525-0.525c-0.089,0-0.169,0.029-0.242,0.066
		c-0.243-0.283-0.479-0.574-0.702-0.871c0.241-0.047,0.426-0.25,0.426-0.504c0-0.291-0.234-0.525-0.524-0.525
		c-0.195,0-0.358,0.109-0.449,0.268c-0.225-0.336-0.435-0.682-0.635-1.035c0.148-0.092,0.253-0.25,0.253-0.438
		c0-0.289-0.235-0.523-0.525-0.523c-0.068,0-0.134,0.014-0.194,0.039c-0.162-0.33-0.33-0.654-0.471-0.99
		c0.09-0.094,0.146-0.219,0.146-0.359c0-0.271-0.207-0.486-0.47-0.514c-0.498-1.383-0.851-2.809-1.047-4.277
		c0.236-0.051,0.416-0.252,0.416-0.502c0-0.287-0.229-0.518-0.515-0.523c-0.076-0.842-0.119-1.689-0.114-2.547
		c0.215-0.066,0.374-0.258,0.374-0.494c0-0.227-0.145-0.414-0.345-0.488c0.236-6.094,2.28-12.355,4.457-17.378
		c0.021-0.049,0.033-0.101,0.049-0.151c0.472-0.09,0.953-0.181,1.457-0.278c5.541-1.062,13.13-2.517,22.706-2.517
		c9.523,0,15.003,1.173,19.837,2.208c1.418,0.303,2.796,0.598,4.209,0.849C21.496-3.868,21.497-3.862,21.499-3.856z M44.207-8.175
		c-2.471,2.21-6.243,2.795-9.787,2.812c-6.104-0.396-10.217-2.562-14.513-4.834c-1.72-0.908-3.515-1.855-5.509-2.727
		c-0.1-11.717-3.532-21.177-8.87-25.88c9.36,3.332,16.082,12.277,16.082,22.767c0,0.746,0.604,1.351,1.351,1.351
		c0.744,0,1.35-0.604,1.35-1.351c0-2.004-0.228-3.955-0.646-5.834c2.494-0.143,5.211-0.676,7.853-1.198
		c5.226-1.032,10.63-2.102,13.359,0.142c1.512,1.242,2.247,3.496,2.247,6.891C47.123-12.501,46.169-9.931,44.207-8.175z"/>
	<circle cx="-29.257" cy="13.883" r="0.525"/>
	<circle cx="-26.857" cy="13.883" r="0.525"/>
	<circle cx="-24.458" cy="13.883" r="0.525"/>
	<circle cx="-22.059" cy="13.883" r="0.525"/>
	<circle cx="-19.659" cy="13.883" r="0.525"/>
	<circle cx="16.332" cy="13.883" r="0.525"/>
	<circle cx="18.73" cy="13.883" r="0.525"/>
	<circle cx="21.131" cy="13.883" r="0.525"/>
	<circle cx="23.529" cy="13.883" r="0.525"/>
	<circle cx="-30.3" cy="15.611" r="0.525"/>
	<circle cx="-27.9" cy="15.612" r="0.524"/>
	<circle cx="-25.501" cy="15.612" r="0.524"/>
	<circle cx="-23.102" cy="15.612" r="0.524"/>
	<circle cx="-20.702" cy="15.612" r="0.524"/>
	<circle cx="-18.303" cy="15.612" r="0.524"/>
	<circle cx="15.289" cy="15.612" r="0.524"/>
	<circle cx="17.688" cy="15.612" r="0.524"/>
	<circle cx="20.088" cy="15.612" r="0.524"/>
	<circle cx="22.486" cy="15.612" r="0.524"/>
	<circle cx="24.887" cy="15.612" r="0.524"/>
	<circle cx="-29.257" cy="17.447" r="0.525"/>
	<circle cx="-26.857" cy="17.447" r="0.525"/>
	<circle cx="-24.458" cy="17.447" r="0.525"/>
	<circle cx="-22.059" cy="17.447" r="0.525"/>
	<circle cx="-19.659" cy="17.447" r="0.525"/>
	<circle cx="-17.26" cy="17.447" r="0.525"/>
	<circle cx="13.932" cy="17.447" r="0.525"/>
	<circle cx="13.998" cy="13.883" r="0.525"/>
	<circle cx="12.954" cy="15.612" r="0.524"/>
	<circle cx="11.598" cy="17.447" r="0.525"/>
	<circle cx="16.332" cy="17.447" r="0.525"/>
	<circle cx="18.73" cy="17.447" r="0.525"/>
	<circle cx="21.131" cy="17.447" r="0.525"/>
	<circle cx="23.529" cy="17.447" r="0.525"/>
	<circle cx="-30.3" cy="19.175" r="0.524"/>
	<circle cx="-27.9" cy="19.175" r="0.524"/>
	<circle cx="-25.501" cy="19.175" r="0.524"/>
	<circle cx="-23.102" cy="19.175" r="0.524"/>
	<circle cx="-20.702" cy="19.175" r="0.524"/>
	<circle cx="-18.303" cy="19.175" r="0.524"/>
	<circle cx="-15.903" cy="19.175" r="0.524"/>
	<circle cx="-13.504" cy="19.175" r="0.524"/>
	<circle cx="-11.104" cy="19.175" r="0.524"/>
	<circle cx="-8.705" cy="19.175" r="0.524"/>
	<circle cx="-6.306" cy="19.175" r="0.524"/>
	<circle cx="0.893" cy="19.175" r="0.524"/>
	<circle cx="3.291" cy="19.175" r="0.524"/>
	<circle cx="5.691" cy="19.175" r="0.524"/>
	<circle cx="8.09" cy="19.176" r="0.525"/>
	<circle cx="10.49" cy="19.175" r="0.524"/>
	<circle cx="12.889" cy="19.175" r="0.524"/>
	<circle cx="15.289" cy="19.175" r="0.524"/>
	<circle cx="17.688" cy="19.175" r="0.524"/>
	<circle cx="20.088" cy="19.175" r="0.524"/>
	<circle cx="22.486" cy="19.175" r="0.524"/>
	<circle cx="-29.257" cy="21.011" r="0.524"/>
	<circle cx="-26.857" cy="21.011" r="0.524"/>
	<circle cx="-24.458" cy="21.011" r="0.524"/>
	<circle cx="-22.059" cy="21.011" r="0.524"/>
	<circle cx="-19.659" cy="21.011" r="0.524"/>
	<circle cx="-17.26" cy="21.011" r="0.524"/>
	<circle cx="-14.86" cy="21.011" r="0.524"/>
	<circle cx="-12.461" cy="21.011" r="0.524"/>
	<circle cx="-10.062" cy="21.011" r="0.524"/>
	<circle cx="-7.662" cy="21.011" r="0.524"/>
	<circle cx="-5.263" cy="21.011" r="0.524"/>
	<circle cx="-2.863" cy="21.011" r="0.524"/>
	<circle cx="-0.464" cy="21.011" r="0.524"/>
	<circle cx="1.936" cy="21.011" r="0.524"/>
	<circle cx="4.334" cy="21.011" r="0.524"/>
	<circle cx="6.734" cy="21.011" r="0.524"/>
	<circle cx="9.133" cy="21.011" r="0.524"/>
	<circle cx="11.533" cy="21.011" r="0.524"/>
	<circle cx="13.932" cy="21.011" r="0.524"/>
	<circle cx="16.332" cy="21.011" r="0.524"/>
	<circle cx="18.73" cy="21.011" r="0.524"/>
	<circle cx="21.131" cy="21.011" r="0.524"/>
	<circle cx="23.529" cy="21.011" r="0.524"/>
	<circle cx="-27.9" cy="22.74" r="0.525"/>
	<circle cx="-25.501" cy="22.74" r="0.525"/>
	<circle cx="-23.102" cy="22.74" r="0.525"/>
	<circle cx="-20.702" cy="22.74" r="0.525"/>
	<circle cx="-18.303" cy="22.74" r="0.525"/>
	<circle cx="-15.903" cy="22.74" r="0.525"/>
	<circle cx="-13.504" cy="22.74" r="0.525"/>
	<circle cx="-11.104" cy="22.74" r="0.525"/>
	<circle cx="-8.705" cy="22.74" r="0.525"/>
	<circle cx="-6.306" cy="22.74" r="0.525"/>
	<circle cx="-3.907" cy="22.74" r="0.525"/>
	<circle cx="-1.507" cy="22.74" r="0.525"/>
	<circle cx="0.893" cy="22.74" r="0.525"/>
	<circle cx="3.291" cy="22.74" r="0.525"/>
	<circle cx="5.691" cy="22.74" r="0.525"/>
	<circle cx="8.09" cy="22.74" r="0.525"/>
	<circle cx="10.49" cy="22.74" r="0.525"/>
	<circle cx="12.889" cy="22.74" r="0.525"/>
	<circle cx="15.289" cy="22.74" r="0.525"/>
	<circle cx="17.688" cy="22.74" r="0.525"/>
	<circle cx="20.088" cy="22.74" r="0.525"/>
	<circle cx="22.486" cy="22.74" r="0.525"/>
	<circle cx="-26.857" cy="24.575" r="0.524"/>
	<circle cx="-24.458" cy="24.575" r="0.524"/>
	<circle cx="-22.059" cy="24.575" r="0.524"/>
	<circle cx="-19.659" cy="24.575" r="0.524"/>
	<circle cx="-17.26" cy="24.575" r="0.524"/>
	<circle cx="-14.86" cy="24.575" r="0.524"/>
	<circle cx="9.133" cy="24.575" r="0.524"/>
	<circle cx="11.533" cy="24.575" r="0.524"/>
	<circle cx="13.932" cy="24.575" r="0.524"/>
	<circle cx="16.332" cy="24.575" r="0.524"/>
	<circle cx="18.73" cy="24.575" r="0.524"/>
	<circle cx="21.131" cy="24.575" r="0.524"/>
	<circle cx="-25.501" cy="26.304" r="0.524"/>
	<circle cx="-23.102" cy="26.304" r="0.524"/>
	<circle cx="-20.702" cy="26.304" r="0.524"/>
	<circle cx="-18.303" cy="26.304" r="0.524"/>
	<circle cx="-15.903" cy="26.304" r="0.524"/>
	<circle cx="-13.504" cy="26.304" r="0.524"/>
	<circle cx="8.09" cy="26.304" r="0.524"/>
	<circle cx="10.49" cy="26.304" r="0.524"/>
	<circle cx="12.889" cy="26.304" r="0.524"/>
	<circle cx="15.289" cy="26.304" r="0.524"/>
	<circle cx="17.688" cy="26.304" r="0.524"/>
	<circle cx="20.088" cy="26.304" r="0.524"/>
	<circle cx="-24.458" cy="28.139" r="0.525"/>
	<circle cx="-22.059" cy="28.139" r="0.525"/>
	<circle cx="-19.659" cy="28.139" r="0.525"/>
	<circle cx="-17.26" cy="28.139" r="0.525"/>
	<circle cx="-14.86" cy="28.139" r="0.525"/>
	<circle cx="-12.461" cy="28.139" r="0.525"/>
	<circle cx="6.734" cy="28.139" r="0.525"/>
	<circle cx="9.133" cy="28.139" r="0.525"/>
	<circle cx="11.533" cy="28.139" r="0.525"/>
	<circle cx="13.932" cy="28.139" r="0.525"/>
	<circle cx="16.332" cy="28.139" r="0.525"/>
	<circle cx="18.73" cy="28.139" r="0.525"/>
	<circle cx="-23.102" cy="29.868" r="0.524"/>
	<circle cx="-20.702" cy="29.868" r="0.524"/>
	<circle cx="-18.303" cy="29.868" r="0.524"/>
	<circle cx="-15.903" cy="29.868" r="0.524"/>
	<circle cx="-13.504" cy="29.868" r="0.524"/>
	<circle cx="-11.104" cy="29.868" r="0.524"/>
	<circle cx="-8.705" cy="29.868" r="0.524"/>
	<circle cx="-6.306" cy="29.868" r="0.524"/>
	<circle cx="-3.906" cy="29.868" r="0.524"/>
	<circle cx="-1.507" cy="29.868" r="0.524"/>
	<circle cx="0.893" cy="29.868" r="0.524"/>
	<circle cx="3.291" cy="29.868" r="0.524"/>
	<circle cx="5.69" cy="29.867" r="0.524"/>
	<circle cx="8.09" cy="29.867" r="0.525"/>
	<circle cx="10.49" cy="29.868" r="0.524"/>
	<circle cx="12.889" cy="29.868" r="0.524"/>
	<circle cx="15.289" cy="29.868" r="0.524"/>
	<circle cx="17.688" cy="29.868" r="0.524"/>
	<circle cx="-19.659" cy="31.703" r="0.525"/>
	<circle cx="-17.26" cy="31.703" r="0.525"/>
	<circle cx="-14.86" cy="31.703" r="0.525"/>
	<circle cx="-12.461" cy="31.703" r="0.525"/>
	<circle cx="-10.062" cy="31.703" r="0.525"/>
	<circle cx="-7.662" cy="31.703" r="0.525"/>
	<circle cx="-5.263" cy="31.703" r="0.525"/>
	<circle cx="-2.863" cy="31.703" r="0.525"/>
	<circle cx="-0.464" cy="31.703" r="0.525"/>
	<circle cx="1.936" cy="31.703" r="0.525"/>
	<circle cx="4.334" cy="31.703" r="0.525"/>
	<circle cx="6.734" cy="31.703" r="0.525"/>
	<circle cx="9.133" cy="31.703" r="0.525"/>
	<circle cx="11.533" cy="31.703" r="0.525"/>
	<circle cx="13.932" cy="31.703" r="0.525"/>
	<circle cx="-15.903" cy="33.431" r="0.524"/>
	<circle cx="-13.504" cy="33.431" r="0.524"/>
	<circle cx="-11.104" cy="33.431" r="0.524"/>
	<circle cx="-8.705" cy="33.431" r="0.524"/>
	<circle cx="-6.306" cy="33.431" r="0.524"/>
	<circle cx="-3.907" cy="33.432" r="0.525"/>
	<circle cx="-1.507" cy="33.431" r="0.524"/>
	<circle cx="0.893" cy="33.431" r="0.524"/>
	<circle cx="3.291" cy="33.431" r="0.524"/>
	<circle cx="5.691" cy="33.431" r="0.524"/>
	<circle cx="8.09" cy="33.431" r="0.524"/>
	<circle cx="10.49" cy="33.431" r="0.524"/>
	<circle cx="-10.062" cy="35.267" r="0.524"/>
	<circle cx="-7.662" cy="35.267" r="0.524"/>
	<circle cx="-5.263" cy="35.267" r="0.524"/>
	<circle cx="-2.863" cy="35.267" r="0.524"/>
	<circle cx="-0.464" cy="35.267" r="0.524"/>
	<circle cx="1.936" cy="35.267" r="0.524"/>
	<circle cx="4.334" cy="35.267" r="0.524"/>
	<circle cx="-3.906" cy="36.996" r="0.525"/>
	<circle cx="-1.507" cy="36.996" r="0.525"/>
	<circle cx="-5.263" cy="38.831" r="0.524"/>
	<circle cx="-2.863" cy="38.831" r="0.524"/>
	<circle cx="-0.464" cy="38.831" r="0.524"/>
	<path d="M-4.548,2.865c-3.624-3.233-7.435-1.396-8.942,0.025c-0.54,0.51-0.563,1.355-0.059,1.898s1.358,0.572,1.904,0.072
		c0.267-0.244,2.677-2.32,5.3,0.02c0.257,0.229,0.578,0.342,0.897,0.342c0.372,0,0.742-0.152,1.009-0.451
		C-3.942,4.213-3.991,3.361-4.548,2.865z"/>
	<path d="M0.836,4.854c0.104-0.098,2.59-2.385,5.295,0.027c0.257,0.229,0.578,0.342,0.896,0.342c0.372,0,0.742-0.152,1.009-0.451
		c0.496-0.559,0.447-1.41-0.109-1.908C4.301-0.368,0.491,1.469-1.017,2.891c-0.542,0.512-0.567,1.365-0.056,1.908
		C-0.561,5.34,0.293,5.365,0.836,4.854z"/>
</g>
</svg>
