<?xml version="1.0" encoding="utf-8"?>
<!-- Generator: Adobe Illustrator 15.1.0, SVG Export Plug-In . SVG Version: 6.00 Build 0)  -->
<!DOCTYPE svg PUBLIC "-//W3C//DTD SVG 1.1//EN" "http://www.w3.org/Graphics/SVG/1.1/DTD/svg11.dtd">
<svg version="1.1" id="Layer_1" xmlns="http://www.w3.org/2000/svg" xmlns:xlink="http://www.w3.org/1999/xlink" x="0px" y="0px"
	 width="800px" height="600px" viewBox="0 0 800 600" enable-background="new 0 0 800 600" xml:space="preserve">
<g>
	<ellipse cx="-19.954" cy="-7.517" rx="6.799" ry="3.797"/>
	<path d="M-49.645-11.37L-15.33,7.406c0.186,0.103,0.39,0.153,0.596,0.153c0.199,0,0.399-0.049,0.581-0.145L50.591-26.9
		c0.445-0.235,0.703-0.714,0.656-1.214c-0.049-0.5-0.393-0.922-0.873-1.068L16.712-39.523c-0.27-0.085-0.559-0.071-0.82,0.032
		l-65.398,25.879c-0.447,0.178-0.751,0.597-0.782,1.078C-50.317-12.055-50.067-11.601-49.645-11.37z M16.4-37.022l30.383,9.332
		L-14.725,4.908l-31.408-17.185L16.4-37.022z"/>
	<path d="M49.38-21.112L-13.921,16.13L-48.423-3.995c-0.591-0.346-1.353-0.146-1.698,0.446c-0.346,0.593-0.146,1.353,0.446,1.698
		l35.131,20.49c0.192,0.112,0.41,0.169,0.625,0.169c0.218,0,0.436-0.058,0.63-0.171l63.929-37.61
		c0.592-0.348,0.787-1.108,0.441-1.699C50.734-21.263,49.972-21.458,49.38-21.112z"/>
	<path d="M49.351-12.89l-62.293,39.046L-48.44,6.179c-0.595-0.335-1.354-0.125-1.69,0.473s-0.125,1.354,0.474,1.691l36.14,20.338
		c0.189,0.106,0.399,0.16,0.608,0.16c0.23,0,0.458-0.064,0.659-0.19l62.919-39.438c0.582-0.363,0.756-1.129,0.393-1.711
		C50.699-13.079,49.933-13.254,49.351-12.89z"/>
	<path d="M51.052-3.089c-0.373-0.575-1.143-0.738-1.717-0.367l-62.16,40.336l-36.559-21.474c-0.588-0.346-1.351-0.15-1.698,0.44
		c-0.348,0.592-0.149,1.352,0.441,1.699l37.219,21.861c0.194,0.115,0.411,0.172,0.629,0.172c0.234,0,0.47-0.068,0.675-0.199
		L50.687-1.372C51.261-1.746,51.425-2.515,51.052-3.089z"/>
	<path d="M23.837-25.524c3.752,0,6.799-1.412,6.799-3.16c0-1.744-3.047-3.16-6.799-3.16c-3.756,0-6.799,1.416-6.799,3.16
		C17.039-26.937,20.082-25.524,23.837-25.524z"/>
	<path d="M2.281-9.765c8.924,0,15.912-3.881,15.912-8.834c0-4.955-6.988-8.838-15.912-8.838c-8.921,0-15.911,3.883-15.911,8.838
		C-13.63-13.646-6.641-9.765,2.281-9.765z M2.281-24.954c8.035,0,13.43,3.285,13.43,6.355c0,3.066-5.395,6.352-13.43,6.352
		c-8.033,0-13.428-3.285-13.428-6.352C-11.147-21.669-5.752-24.954,2.281-24.954z"/>
</g>
</svg>
