<?xml version="1.0" encoding="utf-8"?>
<!-- Generator: Adobe Illustrator 15.1.0, SVG Export Plug-In . SVG Version: 6.00 Build 0)  -->
<!DOCTYPE svg PUBLIC "-//W3C//DTD SVG 1.1//EN" "http://www.w3.org/Graphics/SVG/1.1/DTD/svg11.dtd">
<svg version="1.1" id="Layer_1" xmlns="http://www.w3.org/2000/svg" xmlns:xlink="http://www.w3.org/1999/xlink" x="0px" y="0px"
	 width="800px" height="600px" viewBox="0 0 800 600" enable-background="new 0 0 800 600" xml:space="preserve">
<g>
	<path d="M44.332,18.812c0-0.525-0.209-1.023-0.59-1.404c-0.41-0.41-0.99-0.643-1.598-0.643h-0.002l-22.67,0.158L41.688,1.239
		c0.475-0.332,0.801-0.842,0.898-1.4c0.092-0.537-0.027-1.074-0.334-1.502L29.093-20.458c-0.647-0.926-1.956-1.135-2.912-0.467
		L3.868-5.563l10.966-24.693c0.498-1.078,0.072-2.342-0.951-2.818l-20.798-9.697c-0.479-0.225-1.024-0.246-1.533-0.061
		c-0.539,0.197-0.991,0.615-1.237,1.148l-7.717,16.547V-42.06c0-1.201-0.919-2.18-2.05-2.18h-22.946
		c-1.133,0-2.053,0.979-2.053,2.18V42.06c0,1.203,0.92,2.18,2.053,2.18h22.946c0.159,0,0.312-0.023,0.46-0.059
		c0.117,0.035,0.239,0.059,0.368,0.059c0.002,0,0.006,0,0.009,0l60.896-0.426c0.602-0.002,1.182-0.242,1.59-0.656
		c0.379-0.383,0.586-0.885,0.58-1.408L44.332,18.812z M1.888-1.104l25.398-17.484L39.879-0.606L-15.785,38.69l12.313-27.73
		l5.445,7.85c0.136,0.195,0.344,0.33,0.579,0.373c0.053,0.01,0.106,0.014,0.16,0.014c0.182,0,0.361-0.055,0.514-0.16l6.076-4.215
		c0.196-0.135,0.33-0.344,0.373-0.58c0.042-0.234-0.011-0.475-0.147-0.672L3.976,5.562c-0.282-0.406-0.845-0.51-1.251-0.227
		l-5.343,3.703L1.888-1.104L1.888-1.104z M5.617,26.909l0.013,7.945l-5.596,0.008l-0.006-4.213l5.297-3.74H5.617z M-17.402-1.198
		l2.012-4.264l7.186,3.391l-2.386,5.059l-6.812-3.211V-1.198z M-1.589,10.515L3.01,7.327l4.527,6.527l-4.598,3.189L-1.589,10.515z
		 M-7.541-40.249l19.9,9.279l-29.762,67.016V1.767l6.857,3.232c0.124,0.059,0.255,0.086,0.384,0.086
		c0.337,0,0.661-0.191,0.814-0.516l3.153-6.688c0.212-0.449,0.02-0.986-0.43-1.197l-8.813-4.158c-0.449-0.213-0.985-0.02-1.198,0.43
		l-0.768,1.627v-13.686L-7.541-40.249z M-41.9-41.688h21.948V41.69H-41.9V-41.688z M-15.58,41.669l13.811-9.75l0.004,3.846
		c0,0.238,0.096,0.467,0.265,0.635s0.397,0.264,0.636,0.264h0.001l7.396-0.01c0.239,0,0.468-0.096,0.637-0.264
		c0.169-0.17,0.263-0.398,0.263-0.637l-0.014-9.746c0-0.17-0.062-0.324-0.151-0.467l8.557-6.041l25.963-0.182l0.113,21.949
		L-15.58,41.669z"/>
	<path d="M34.781,25.11h-0.002l-7.393,0.008c-0.239,0-0.468,0.094-0.637,0.264s-0.263,0.398-0.263,0.637l0.011,9.744
		c0,0.238,0.095,0.467,0.265,0.637c0.168,0.166,0.396,0.262,0.635,0.262h0.001l7.396-0.008c0.238,0,0.467-0.096,0.635-0.266
		c0.17-0.168,0.264-0.398,0.264-0.637l-0.012-9.742C35.68,25.513,35.277,25.11,34.781,25.11z M28.297,34.86l-0.009-7.943
		l5.595-0.006l0.01,7.941L28.297,34.86z"/>
	<path d="M21.452,25.372c-0.169-0.168-0.397-0.264-0.636-0.264h-0.001l-7.395,0.01c-0.498,0.002-0.9,0.404-0.899,0.9l0.013,9.746
		c0,0.238,0.096,0.467,0.264,0.635c0.169,0.168,0.397,0.264,0.636,0.264h0.001l7.396-0.01c0.497,0,0.899-0.404,0.898-0.9
		l-0.012-9.744C21.717,25.769,21.621,25.54,21.452,25.372z M14.333,34.862l-0.011-7.945l5.595-0.008l0.011,7.945L14.333,34.862z"/>
	<path d="M25.19,2.692c0.175,0.25,0.455,0.387,0.74,0.387c0.177,0,0.356-0.053,0.513-0.162l6.076-4.213
		c0.406-0.283,0.51-0.844,0.227-1.25l-5.552-8.01c-0.137-0.197-0.345-0.33-0.58-0.375c-0.233-0.041-0.477,0.012-0.674,0.148
		l-6.076,4.213c-0.408,0.283-0.51,0.844-0.227,1.254L25.19,2.692z M26.228-8.792l4.525,6.531l-4.596,3.188L21.63-5.603L26.228-8.792
		z"/>
	<path d="M13.696,10.622c0.174,0.252,0.455,0.387,0.74,0.387c0.177,0,0.355-0.053,0.512-0.16l6.076-4.211
		c0.197-0.137,0.331-0.346,0.374-0.58c0.042-0.236-0.011-0.477-0.146-0.674l-5.554-8.008c-0.136-0.197-0.344-0.33-0.58-0.373
		c-0.229-0.043-0.476,0.01-0.672,0.145L8.37,1.362c-0.196,0.135-0.33,0.344-0.373,0.58C7.955,2.177,8.008,2.419,8.144,2.614
		L13.696,10.622z M14.732-0.858l4.527,6.529l-4.598,3.186l-4.527-6.527L14.732-0.858z"/>
	<path d="M-7.317-24.728l8.816,4.156c0.124,0.061,0.255,0.088,0.383,0.088c0.338,0,0.662-0.191,0.815-0.518l3.153-6.686
		c0.212-0.451,0.02-0.986-0.43-1.199l-8.814-4.156c-0.449-0.213-0.986-0.02-1.198,0.43l-3.155,6.688
		c-0.102,0.215-0.114,0.463-0.033,0.688S-7.532-24.829-7.317-24.728z M-3.349-31.03l7.188,3.389l-2.386,5.059l-7.188-3.389
		L-3.349-31.03z"/>
	<path d="M-13.301-12.11l8.813,4.158c0.121,0.057,0.252,0.086,0.384,0.086c0.104,0,0.206-0.018,0.305-0.053
		c0.225-0.082,0.407-0.248,0.51-0.463l3.153-6.689c0.212-0.449,0.02-0.986-0.43-1.197l-8.813-4.158
		c-0.216-0.102-0.464-0.111-0.688-0.033c-0.225,0.082-0.408,0.248-0.51,0.463l-3.153,6.689
		C-13.942-12.858-13.75-12.321-13.301-12.11z M-9.334-18.415l7.187,3.389l-2.386,5.062l-7.186-3.391L-9.334-18.415z"/>
	<path d="M-31.471,25.13c-3.42,0-6.201,2.779-6.201,6.197c0,3.42,2.781,6.201,6.201,6.201c3.419,0,6.2-2.781,6.2-6.201
		C-25.271,27.909-28.052,25.13-31.471,25.13z M-31.471,34.829c-1.931,0-3.501-1.57-3.501-3.502c0-1.93,1.57-3.498,3.501-3.498
		s3.5,1.568,3.5,3.498C-27.971,33.259-29.54,34.829-31.471,34.829z"/>
</g>
</svg>
